<svg width="14" height="14" viewBox="0 0 14 14" fill="none" xmlns="http://www.w3.org/2000/svg">
<path d="M1.43151 4.63143C1.5956 4.4674 1.81812 4.37524 2.05014 4.37524C2.28216 4.37524 2.50467 4.4674 2.66876 4.63143L7.00001 8.96268L11.3313 4.63143C11.4963 4.47204 11.7173 4.38385 11.9467 4.38584C12.1762 4.38784 12.3956 4.47986 12.5579 4.64209C12.7201 4.80432 12.8121 5.02378 12.8141 5.25321C12.8161 5.48263 12.7279 5.70366 12.5685 5.86868L7.61864 10.8186C7.45455 10.9826 7.23203 11.0747 7.00001 11.0747C6.76799 11.0747 6.54547 10.9826 6.38139 10.8186L1.43151 5.86868C1.26747 5.7046 1.17532 5.48208 1.17532 5.25006C1.17532 5.01804 1.26747 4.79552 1.43151 4.63143Z" fill="#57546F"/>
</svg>
