<svg width="160" height="160" viewBox="0 0 160 160" fill="none" xmlns="http://www.w3.org/2000/svg">
<g clip-path="url(#clip0_1161_3864)">
<rect width="160" height="160" rx="10" fill="#C69CFD"/>
<path d="M134.378 27.7872C138.767 25.8354 143.112 23.7684 147.56 21.9634C151.833 20.2302 156.229 19.9201 160.582 21.8463C163.866 23.3009 166.251 25.7566 168.043 28.8055C168.755 30.0174 169.352 31.3025 169.927 32.5879C173.467 40.536 177.077 48.4564 180.472 56.4661C182.292 60.7576 182.559 65.2243 180.593 69.6207C179.138 72.8748 176.694 75.2415 173.666 77.0157C172.454 77.7274 171.169 78.3239 169.884 78.8985C161.937 82.4384 154.03 86.0805 146.004 89.4354C140.895 91.5719 135.711 91.5941 130.853 88.4551C128.139 86.6997 126.087 84.2848 124.766 81.3846C120.757 72.5727 116.732 63.7613 112.991 54.8329C110.761 49.5131 110.915 44.1392 114.425 39.2289C116.165 36.7917 118.466 34.951 121.153 33.6965C125.526 31.6513 129.965 29.7495 134.378 27.7872ZM151.977 45.4029C154.379 44.3348 156.78 43.2705 159.181 42.1998C160.48 41.622 161.026 40.3604 160.521 39.154C160.022 37.9608 158.62 37.4393 157.319 38.0119C152.532 40.1245 147.753 42.2528 142.977 44.389C141.637 44.9881 141.108 46.2801 141.652 47.5036C142.201 48.7377 143.489 49.1743 144.84 48.5769C147.219 47.5219 149.599 46.4605 151.977 45.4029ZM158.885 60.7819C157.751 61.2862 156.614 61.7917 155.48 62.2959C154.106 62.9102 152.717 63.493 151.37 64.1613C150.231 64.7245 149.85 66.0103 150.393 67.1528C150.961 68.3466 152.241 68.7493 153.628 68.1356C158.346 66.047 163.059 63.9452 167.772 61.8461C167.99 61.7492 168.2 61.6339 168.4 61.5041C169.158 61.0033 169.533 60.0915 169.353 59.2061C169.046 57.6756 167.576 56.949 166.028 57.6185C163.639 58.6524 161.268 59.7284 158.886 60.7845L158.885 60.7819ZM129.043 52.076C128.669 51.9433 128.404 51.8412 128.134 51.7505C126.852 51.3206 125.605 51.897 125.161 53.1195C124.719 54.3382 125.261 55.5154 126.519 56.0252C127.47 56.4105 128.436 56.7707 129.395 57.1332C130.747 57.6422 131.943 57.142 132.509 55.8118C132.769 55.1959 132.994 54.5642 133.232 53.9395C134.132 51.5993 135.033 49.2552 135.932 46.915C136.292 45.9781 136.144 45.1224 135.48 44.3861C134.838 43.6778 134.012 43.5232 133.12 43.7941C132.327 44.0334 131.881 44.6281 131.595 45.3843C130.76 47.5951 129.911 49.7999 129.041 52.0734L129.043 52.076ZM137.709 71.7707C137.348 71.5884 137.066 71.3929 136.749 71.295C135.524 70.9088 134.275 71.5365 133.854 72.724C133.432 73.9115 133.966 75.0831 135.186 75.5784C136.204 75.9937 137.23 76.3863 138.265 76.7625C139.442 77.1889 140.694 76.6604 141.158 75.4826C142.357 72.4368 143.527 69.3756 144.684 66.3138C145.042 65.3653 144.769 64.5052 144.055 63.8322C142.903 62.747 140.999 63.2254 140.399 64.747C139.506 67.0155 138.653 69.2974 137.708 71.7745L137.709 71.7707Z" fill="white"/>
</g>
<defs>
<clipPath id="clip0_1161_3864">
<rect width="160" height="160" rx="10" fill="white"/>
</clipPath>
</defs>
</svg>
