<svg width="302" height="309" viewBox="0 0 302 309" fill="none" xmlns="http://www.w3.org/2000/svg">
<g clip-path="url(#clip0_1047_2551)">
<rect width="302" height="309" rx="16" fill="#FF8A8B"/>
<g clip-path="url(#clip1_1047_2551)">
<path d="M247.859 110.821C258.907 107.997 269.957 105.156 281.011 102.351C285.874 101.119 290.268 103.062 292.438 107.379C292.82 108.139 293.039 108.995 293.252 109.83C298.869 131.76 304.41 153.709 310.123 175.614C311.632 181.393 308.175 186.779 302.639 188.168C280.68 193.669 258.76 199.342 236.828 204.944C230.916 206.455 225.892 203.473 224.378 197.55C218.756 175.579 213.193 153.587 207.485 131.638C206.089 126.259 209.141 120.607 214.823 119.224C225.863 116.535 236.849 113.63 247.857 110.816L247.859 110.821Z" fill="white"/>
<path d="M244.959 100.107C233.991 102.911 223.028 105.714 212.059 108.518C206.294 109.992 201.231 107.003 199.757 101.259C198.666 96.9919 197.564 92.7227 196.483 88.4534C195.095 82.9602 198.152 77.8314 203.662 76.4229C225.803 70.7572 247.946 65.0966 270.09 59.4409C275.609 58.0299 280.646 60.8965 282.125 66.3666C283.335 70.8279 284.485 75.3047 285.56 79.8007C286.857 85.2315 283.795 90.1739 278.362 91.5681C267.229 94.4195 256.094 97.2609 244.959 100.107Z" fill="white"/>
<path d="M293.918 67.6078C292.124 60.5888 296.226 53.1293 303.029 51.0364C310.209 48.8256 317.592 52.4002 320.226 59.3278C321.109 61.6483 321.365 64.0112 320.951 66.4381C320.833 67.1327 320.959 67.5188 321.608 67.8781C323.641 69.0148 325.638 70.2248 327.635 71.4297C329.903 72.7957 330.605 75.2053 329.363 77.2864C328.115 79.3688 325.686 79.888 323.39 78.5398C321.455 77.4051 319.507 76.2843 317.603 75.0877C316.882 74.6343 316.423 74.6229 315.702 75.1772C307.802 81.1793 296.361 77.1841 293.913 67.6091L293.918 67.6078ZM301.944 65.5399C302.674 68.4356 305.718 70.2786 308.628 69.583C311.542 68.8862 313.45 65.6755 312.671 62.7763C311.895 59.8871 308.821 58.0946 305.929 58.8392C303.011 59.5852 301.21 62.6241 301.944 65.5399Z" fill="white"/>
</g>
</g>
<defs>
<clipPath id="clip0_1047_2551">
<rect width="302" height="309" rx="16" fill="white"/>
</clipPath>
<clipPath id="clip1_1047_2551">
<rect width="132.783" height="132.783" fill="white" transform="translate(194 78.8875) rotate(-14.3402)"/>
</clipPath>
</defs>
</svg>
