<svg width="160" height="160" viewBox="0 0 160 160" fill="none" xmlns="http://www.w3.org/2000/svg">
<g clip-path="url(#clip0_1161_3881)">
<rect width="160" height="160" rx="10" fill="#FF8A8B"/>
<g clip-path="url(#clip1_1161_3881)">
<path d="M140.984 51.9467C146.109 50.6365 151.235 49.3187 156.362 48.0178C158.618 47.4461 160.656 48.3474 161.663 50.3502C161.84 50.7028 161.942 51.0996 162.041 51.487C164.646 61.6597 167.217 71.8413 169.867 82.0026C170.567 84.6831 168.963 87.1818 166.395 87.8258C156.209 90.3776 146.041 93.0093 135.867 95.6077C133.125 96.3088 130.794 94.9253 130.092 92.1782C127.484 81.9863 124.903 71.7849 122.256 61.6031C121.608 59.1081 123.024 56.4859 125.659 55.8445C130.781 54.5973 135.877 53.2499 140.983 51.9444L140.984 51.9467Z" fill="white"/>
<path d="M139.639 46.9769C134.551 48.2776 129.465 49.5777 124.377 50.8783C121.703 51.5621 119.354 50.1758 118.671 47.5109C118.165 45.5317 117.653 43.5514 117.152 41.571C116.508 39.0228 117.926 36.6437 120.482 35.9903C130.753 33.3622 141.024 30.7363 151.296 28.1128C153.857 27.4583 156.193 28.788 156.879 31.3255C157.44 33.395 157.974 35.4716 158.472 37.5572C159.074 40.0764 157.654 42.369 155.133 43.0158C149.969 44.3385 144.804 45.6565 139.639 46.9769Z" fill="white"/>
</g>
</g>
<defs>
<clipPath id="clip0_1161_3881">
<rect width="160" height="160" rx="10" fill="white"/>
</clipPath>
<clipPath id="clip1_1161_3881">
<rect width="61.5945" height="61.5945" fill="white" transform="translate(116 37.1335) rotate(-14.3402)"/>
</clipPath>
</defs>
</svg>
