<svg width="302" height="309" viewBox="0 0 302 309" fill="none" xmlns="http://www.w3.org/2000/svg">
<g clip-path="url(#clip0_1047_2539)">
<rect width="302" height="309" rx="16" fill="#47E79B"/>
<g clip-path="url(#clip1_1047_2539)">
<path d="M196.724 142.222C193.334 126.359 189.926 110.506 186.563 94.6373C185.072 87.5641 186.568 81.1749 191.316 75.6574C194.517 71.9422 198.613 69.7852 203.421 68.7713C220.262 65.227 237.084 61.5984 253.914 58.0023C259.796 56.7453 265.665 55.4574 271.556 54.2393C281.914 52.0938 291.482 57.0137 295.744 66.6754C296.321 67.9763 296.754 69.3689 297.052 70.7633C301.954 93.5797 306.862 116.388 311.68 139.223C313.8 149.268 308.989 158.806 299.764 163.144C298.285 163.84 296.674 164.333 295.074 164.682C272.317 169.579 249.551 174.43 226.789 179.301C222.554 180.206 220.08 183.861 220.961 187.829C221.785 191.525 225.249 193.803 229.224 193.238C229.823 193.151 230.415 193.004 231.005 192.878C257.758 187.162 284.519 181.457 311.264 175.708C314.04 175.115 316.523 175.31 318.604 177.401C320.505 179.314 321.152 181.611 320.447 184.216C319.742 186.822 318.05 188.485 315.425 189.182C315.103 189.264 314.781 189.34 314.456 189.409C287.159 195.242 259.873 201.093 232.569 206.894C222.787 208.97 213.531 204.689 209.085 196.009C208.095 194.071 207.393 191.929 206.924 189.798C203.469 173.949 200.114 158.085 196.724 142.222Z" fill="white"/>
</g>
</g>
<defs>
<clipPath id="clip0_1047_2539">
<rect width="302" height="309" rx="16" fill="white"/>
</clipPath>
<clipPath id="clip1_1047_2539">
<rect width="113.085" height="141.184" fill="white" transform="translate(182 73.3486) rotate(-12.0617)"/>
</clipPath>
</defs>
</svg>
