<svg width="72" height="72" viewBox="0 0 72 72" fill="none" xmlns="http://www.w3.org/2000/svg">
<g clip-path="url(#clip0_1047_2591)">
<path d="M27.4754 8.05079C28.8646 7.65364 30.1648 7.82214 31.4655 8.03274C32.8874 8.26441 34.3072 8.62578 35.7604 8.41652C36.9841 8.24119 38.1984 7.99347 39.4074 7.73557C41.394 7.3101 43.2101 7.62186 44.8197 8.90194C45.3483 9.3231 45.8927 9.72561 46.3946 10.1757C47.8311 11.4662 49.4787 12.3527 51.3389 12.8722C52.0417 13.069 52.7269 13.3344 53.4132 13.5876C55.2233 14.2578 56.3677 15.577 57.0446 17.3467C57.434 18.3623 57.8481 19.3659 58.2396 20.3808C58.6519 21.4507 59.3329 22.3391 60.0812 23.1845C60.6157 23.787 61.1508 24.3917 61.689 24.9908C63.1251 26.5865 63.6646 28.4408 63.3094 30.5601C63.2173 31.1149 63.1676 31.6785 63.038 32.2255C62.5537 34.2885 62.7433 36.3196 63.2598 38.3449C63.445 39.0701 63.5581 39.814 63.6298 40.5606C63.8016 42.2966 63.1608 43.7573 62.1111 45.0789C61.7848 45.4907 61.4648 45.9076 61.1109 46.2969C59.7884 47.7542 58.8573 49.4191 58.3308 51.3207C58.1366 52.025 57.8655 52.707 57.6149 53.3947C56.9505 55.2097 55.6352 56.3528 53.864 57.0348C52.7265 57.4737 51.5904 57.9098 50.4679 58.3843C49.5767 58.7586 48.8288 59.3587 48.1095 59.9928C47.4204 60.6016 46.7342 61.212 46.0432 61.8143C44.4855 63.1734 42.6781 63.6336 40.6516 63.3009C40.0406 63.2018 39.4223 63.1423 38.8192 63.0056C36.8479 62.556 34.9098 62.7444 32.9739 63.2232C32.374 63.3719 31.7614 63.461 31.1504 63.5637C29.2893 63.8799 27.5991 63.4118 26.2321 62.1667C23.8915 60.0362 21.2343 58.5846 18.181 57.748C16.125 57.1845 14.8155 55.7256 14.1013 53.7227C13.7809 52.8232 13.4194 51.9357 13.0693 51.0472C12.5895 49.8257 11.8294 48.7866 10.9471 47.8276C10.4146 47.248 9.89838 46.6519 9.38284 46.0579C8.07159 44.5526 7.56761 42.8124 7.86441 40.8392C7.96371 40.1719 8.02983 39.4956 8.18214 38.8411C8.63437 36.8696 8.44185 34.9332 7.97254 32.9975C7.82314 32.3791 7.73282 31.7459 7.6258 31.12C7.31267 29.2773 7.79173 27.6078 9.02094 26.2574C11.1501 23.9177 12.6068 21.2596 13.4425 18.2097C14.0064 16.1541 15.4603 14.8416 17.4625 14.1229C18.4151 13.7824 19.351 13.3928 20.2939 13.0269C22.1694 12.3005 23.4701 10.8003 24.9571 9.55327C25.74 8.896 26.5721 8.33474 27.4717 8.05422L27.4754 8.05079ZM37.4055 35.4592C37.3703 35.4835 37.3351 35.5078 37.2993 35.53C37.1156 35.3745 36.9303 35.2219 36.7497 35.0609C35.2811 33.7492 33.8141 32.4347 32.3425 31.1285C31.8771 30.7148 31.3414 30.6407 30.8962 30.9016C30.4007 31.1913 30.2061 31.6844 30.3859 32.3104C31.2393 35.2678 32.0965 38.2219 32.9651 41.1749C33.1794 41.9034 33.7763 42.2367 34.4265 42.0428C35.0746 41.8496 35.3816 41.2509 35.1747 40.5156C34.7713 39.0887 34.3462 37.6682 33.9391 36.2448C33.89 36.076 33.7759 35.9097 33.8443 35.7091C34.067 35.7241 34.1641 35.9047 34.2944 36.0217C35.7943 37.3525 37.2933 38.6882 38.7849 40.0308C39.0778 40.2952 39.3926 40.4735 39.7913 40.4561C40.5621 40.4266 41.0404 39.6984 40.8014 38.8691C39.9558 35.9304 39.0972 32.9956 38.2401 30.058C38.2137 29.9671 38.1835 29.8797 38.1441 29.7926C37.9125 29.2709 37.345 29.0065 36.7927 29.1578C36.2189 29.3154 35.8589 29.8614 35.9639 30.448C36.0103 30.7044 36.0932 30.9572 36.1663 31.2082C36.5786 32.6254 36.991 34.0426 37.4033 35.4598L37.4055 35.4592ZM13.6253 41.937C14.0546 43.4126 14.4775 44.8901 14.9155 46.3632C15.1533 47.1647 15.7155 47.4751 16.5114 47.2577C17.2353 47.0588 17.9572 46.8534 18.6707 46.6271C19.975 46.2124 20.8235 45.3365 21.1013 44.0001C21.3789 42.6709 20.9953 41.5058 19.9579 40.6108C19.6569 40.351 19.5987 40.1591 19.7149 39.7756C20.4365 37.3666 18.58 35.0765 16.0632 35.269C15.1217 35.3411 14.2514 35.7305 13.3501 35.981C12.4098 36.2428 12.1279 36.7825 12.4002 37.7265C12.8044 39.132 13.2173 40.5349 13.6253 41.937ZM24.8527 20.2077C26.0277 20.8492 27.0559 21.4301 28.1034 21.9725C28.4845 22.1691 28.6316 22.4243 28.6695 22.8451C28.7748 24.0301 28.9303 25.2099 29.0628 26.3753C29.2485 26.4245 29.3114 26.31 29.3848 26.2394C30.1617 25.4806 30.9538 24.7338 31.6984 23.9446C31.9981 23.6274 32.2659 23.5635 32.6828 23.6652C33.8226 23.9437 34.9745 24.1671 36.2259 24.4343C35.6606 23.2658 35.1632 22.1855 34.6141 21.1296C34.407 20.7322 34.4132 20.4229 34.6371 20.0386C35.2286 19.0217 35.7809 17.9833 36.377 16.9016C36.1958 16.8839 36.0879 16.852 35.9861 16.8651C34.876 17.0192 33.7661 17.1661 32.6592 17.3473C32.3836 17.3923 32.1991 17.3474 32.0173 17.1422C31.3484 16.384 30.6735 15.6299 29.9913 14.8826C29.8127 14.6882 29.6749 14.4325 29.3669 14.318C29.1868 15.3772 28.9452 16.3862 28.8643 17.4072C28.7966 18.2717 28.3566 18.6555 27.6115 18.9427C26.71 19.2895 25.8515 19.7435 24.8549 20.2071L24.8527 20.2077ZM45.3867 55.9435C44.7829 54.6993 44.2603 53.6052 43.7174 52.5217C43.5586 52.2018 43.5688 51.9383 43.7484 51.6279C44.2815 50.7007 44.7776 49.7514 45.3029 48.8218C45.5074 48.4595 45.4339 48.3683 45.0301 48.4247C43.9385 48.5781 42.8412 48.6955 41.7522 48.8575C41.4666 48.9007 41.3015 48.8173 41.1259 48.6173C40.4071 47.8008 39.6773 46.9947 38.9459 46.1913C38.8425 46.0782 38.775 45.8866 38.5134 45.9393C38.3289 47.0561 38.1085 48.1786 37.9734 49.3116C37.9093 49.8418 37.639 50.0824 37.1978 50.2765C36.2894 50.6722 35.3954 51.1013 34.4983 51.5195C34.401 51.5643 34.2527 51.5628 34.2341 51.6926C34.2111 51.8636 34.3828 51.8888 34.4895 51.9492C35.4078 52.4588 36.3221 52.979 37.2563 53.4629C37.6297 53.657 37.795 53.9022 37.8326 54.3301C37.9313 55.4279 38.0895 56.5201 38.2247 57.6143C38.2373 57.7139 38.1742 57.8683 38.3372 57.8796C38.409 57.8845 38.4978 57.8024 38.5622 57.7414C39.3166 57.0103 40.1028 56.3075 40.8034 55.5286C41.1687 55.122 41.4915 55.0938 41.9747 55.2137C43.06 55.4823 44.1619 55.6873 45.3895 55.945L45.3867 55.9435ZM29.3988 37.4297C29.3988 37.4297 29.4161 37.4247 29.4248 37.4221C29.205 36.667 28.9977 35.906 28.7628 35.1553C28.2039 33.3794 26.416 32.3014 24.6893 32.6841C22.8194 33.0991 21.5949 34.732 21.9263 36.6375C22.2466 38.4804 22.7899 40.2913 23.4852 42.0275C24.1773 43.7529 25.981 44.5141 27.7006 44.0021C29.4029 43.4951 30.4447 41.8636 30.1372 40.024C29.9887 39.1426 29.6528 38.2945 29.4016 37.4312L29.3988 37.4297ZM48.3467 31.0929C47.9639 29.7774 47.6541 28.6965 47.3307 27.6172C47.2684 27.403 47.1847 27.188 47.0649 27.0022C46.7605 26.5369 46.1841 26.3714 45.677 26.5729C45.1743 26.7732 44.8721 27.2999 44.9617 27.8418C44.9917 28.0255 45.0532 28.2047 45.1055 28.3843C45.7029 30.4376 46.3025 32.4903 46.8956 34.5449C47.1147 35.2979 46.86 35.9071 46.2546 36.1419C45.5435 36.4168 44.8866 36.0471 44.6401 35.2082C44.0104 33.0681 43.393 30.922 42.7655 28.7812C42.5426 28.0153 41.9601 27.6591 41.2894 27.8472C40.634 28.0308 40.293 28.6745 40.5068 29.4173C41.1457 31.6533 41.7759 33.8919 42.4623 36.1141C43.0017 37.8628 44.8153 38.9004 46.5272 38.515C48.3736 38.0998 49.5418 36.4832 49.2894 34.5994C49.1173 33.3141 48.5868 32.112 48.3445 31.0936L48.3467 31.0929ZM54.8519 36.1046L54.8507 36.1003C55.2099 35.9957 55.5758 35.9057 55.93 35.7839C57.2489 35.3227 58.0553 34.391 58.2915 33.0245C58.5265 31.6537 58.0588 30.506 56.9541 29.654C56.0724 28.9718 55.0737 28.7907 53.9789 29.0459C53.1655 29.2356 52.5297 28.8738 52.3807 28.2084C52.233 27.5473 52.6156 27.0065 53.3978 26.7742C54.0804 26.5709 54.7734 26.3951 55.4485 26.1658C56.1063 25.9416 56.4256 25.3042 56.2403 24.6916C56.0581 24.0899 55.4215 23.7494 54.7561 23.9313C53.9596 24.1466 53.1628 24.3691 52.381 24.627C50.2851 25.3143 49.3622 27.8545 50.5053 29.7421C51.3179 31.0827 52.6985 31.6643 54.3218 31.3539C55.2136 31.1837 55.7977 31.4807 55.9679 32.1869C56.1319 32.8714 55.7575 33.384 54.9076 33.6336C54.2778 33.8168 53.6427 33.9899 53.0173 34.1883C52.2649 34.426 51.9317 35.0157 52.1415 35.6963C52.3434 36.358 52.9222 36.6449 53.6653 36.4475C54.0638 36.3409 54.4574 36.217 54.8534 36.1018L54.8519 36.1046Z" fill="#FC7B4A"/>
<path d="M37.4056 35.4592C36.9932 34.042 36.5809 32.6248 36.1685 31.2076C36.0949 30.9544 36.0104 30.7044 35.9661 30.4474C35.8612 29.8607 36.2211 29.3148 36.795 29.1572C37.3494 29.0053 37.9148 29.2703 38.1464 29.7919C38.1852 29.8769 38.2159 29.9665 38.2424 30.0573C39.0967 32.9934 39.9574 35.9276 40.8037 38.8684C41.0426 39.6977 40.5643 40.4259 39.7935 40.4554C39.3942 40.4707 39.0794 40.2924 38.7872 40.0301C37.2956 38.6875 35.7994 37.3534 34.2967 36.0211C34.1664 35.9041 34.0671 35.7241 33.8466 35.7085C33.7782 35.9091 33.8923 36.0754 33.9414 36.2441C34.3491 37.6697 34.7742 39.0903 35.1769 40.5149C35.3839 41.2503 35.079 41.8483 34.4288 42.0422C33.7786 42.236 33.1816 41.9028 32.9673 41.1743C32.0987 38.2212 31.2416 35.2672 30.3881 32.3097C30.2062 31.6844 30.4029 31.1907 30.8985 30.901C31.3458 30.6394 31.8793 30.7142 32.3448 31.1279C33.817 32.4362 35.2819 33.7514 36.7519 35.0603C36.9326 35.2213 37.1178 35.3739 37.3016 35.5293C37.3367 35.505 37.3719 35.4807 37.4077 35.4585L37.4056 35.4592Z" fill="white"/>
<path d="M13.6253 41.937C13.2167 40.5327 12.806 39.1291 12.4002 37.7265C12.1273 36.7803 12.4092 36.2406 13.3501 35.981C14.2514 35.7305 15.1239 35.3405 16.0632 35.269C18.5779 35.0771 20.4344 37.3672 19.7149 39.7756C19.6009 40.1584 19.6597 40.3525 19.9579 40.6107C20.9953 41.5058 21.3789 42.6708 21.1013 44.0001C20.8213 45.3372 19.9756 46.2145 18.6707 46.627C17.9551 46.854 17.2353 47.0588 16.5114 47.2576C15.714 47.4779 15.1533 47.1646 14.9155 46.3632C14.4775 44.8901 14.0546 43.4126 13.6253 41.937ZM15.7054 37.7505C14.8026 38.0202 14.9049 37.8473 15.1488 38.7338C15.2524 39.1143 15.3691 39.4911 15.4793 39.8697C15.5258 40.0298 15.559 40.2244 15.8035 40.1532C16.2342 40.0279 16.689 39.9613 17.0661 39.692C17.482 39.395 17.6516 38.7918 17.4661 38.3318C17.2622 37.8326 16.7235 37.5223 16.1958 37.6125C16.0306 37.6418 15.8705 37.7048 15.7082 37.752L15.7054 37.7505ZM17.6174 44.4834C17.7256 44.4519 17.8345 44.4226 17.9421 44.3889C18.6073 44.1743 18.9757 43.5766 18.8189 42.9651C18.6678 42.3731 18.0827 42.0082 17.4173 42.1174C17.1416 42.1624 16.8762 42.2748 16.6022 42.3334C16.3217 42.3939 16.231 42.5259 16.3305 42.8114C16.4573 43.1829 16.5508 43.5687 16.6653 43.9461C16.9307 44.8099 16.7637 44.7201 17.6187 44.4877L17.6174 44.4834Z" fill="white"/>
<path d="M24.8528 20.2077C25.8494 19.7441 26.7079 19.2901 27.6094 18.9433C28.3545 18.6561 28.7939 18.2702 28.8622 17.4078C28.9431 16.3868 29.1847 15.3778 29.3648 14.3186C29.6728 14.4332 29.8106 14.6888 29.9892 14.8832C30.6714 15.6305 31.3478 16.3818 32.0152 17.1428C32.1977 17.3502 32.3815 17.3929 32.6571 17.3479C33.7619 17.1673 34.8739 17.0198 35.984 16.8658C36.0858 16.8526 36.1959 16.8839 36.3749 16.9022C35.7788 17.9839 35.2271 19.0245 34.635 20.0392C34.4111 20.4236 34.4042 20.7307 34.612 21.1302C35.1604 22.1839 35.6585 23.2664 36.2238 24.4349C34.9724 24.1677 33.8205 23.9443 32.6807 23.6658C32.2638 23.5641 31.9982 23.6274 31.6963 23.9452C30.9495 24.7351 30.1596 25.4812 29.3827 26.24C29.3093 26.3106 29.247 26.4273 29.0607 26.3759C28.9282 25.2105 28.7727 24.0307 28.6674 22.8457C28.6295 22.4249 28.4824 22.1697 28.1013 21.9731C27.0538 21.4307 26.0262 20.852 24.8506 20.2083L24.8528 20.2077Z" fill="#FED201"/>
<path d="M45.3867 55.9435C44.1613 55.6851 43.0594 55.4801 41.972 55.2121C41.4887 55.0922 41.1659 55.1204 40.8007 55.5271C40.1 56.3059 39.3139 57.0087 38.5595 57.7398C38.495 57.8008 38.4063 57.883 38.3344 57.8781C38.1715 57.8668 38.2324 57.713 38.222 57.6127C38.0867 56.5185 37.9286 55.4263 37.8299 54.3286C37.7922 53.9007 37.6291 53.6548 37.2536 53.4613C36.3215 52.9768 35.4057 52.4595 34.4868 51.9477C34.3806 51.8894 34.2084 51.862 34.2314 51.6911C34.2493 51.5591 34.3983 51.5627 34.4956 51.518C35.3933 51.1019 36.2873 50.6728 37.195 50.2749C37.6368 50.083 37.9072 49.8424 37.9706 49.31C38.108 48.1764 38.3283 47.0539 38.5106 45.9377C38.7729 45.8872 38.8398 46.0766 38.9431 46.1897C39.6745 46.9931 40.405 47.8014 41.1232 48.6157C41.2987 48.8157 41.4639 48.8991 41.7494 48.8559C42.8406 48.6933 43.9358 48.5765 45.0273 48.4232C45.4311 48.3667 45.5046 48.458 45.3002 48.8202C44.7727 49.7505 44.2766 50.6998 43.7457 51.6264C43.566 51.9368 43.5558 52.2003 43.7146 52.5202C44.2576 53.6037 44.778 54.6984 45.3839 55.9419L45.3867 55.9435Z" fill="#FED201"/>
<path d="M29.3987 37.4297C29.6499 38.293 29.9865 39.1432 30.1343 40.0225C30.444 41.8615 29.4007 43.4957 27.6978 44.0005C25.9782 44.5126 24.1745 43.7513 23.4823 42.026C22.7849 40.2904 22.2437 38.4789 21.9234 36.6359C21.5927 34.7327 22.8165 33.0976 24.6864 32.6826C26.4153 32.2992 28.201 33.3779 28.76 35.1537C28.997 35.9038 29.2022 36.6655 29.4219 37.4206C29.4132 37.4231 29.4046 37.4256 29.3959 37.4282L29.3987 37.4297ZM27.1432 38.0038C26.9442 37.3201 26.7518 36.6345 26.547 35.9548C26.3158 35.2007 25.7286 34.8365 25.0666 35.022C24.4047 35.2076 24.072 35.8395 24.2837 36.5828C24.6864 38.0075 25.0994 39.4269 25.5238 40.8453C25.7469 41.5877 26.3644 41.9431 27.0226 41.7445C27.6786 41.5466 27.981 40.9236 27.7714 40.1632C27.5711 39.4423 27.3528 38.7243 27.1438 38.006L27.1432 38.0038Z" fill="white"/>
<path d="M48.3464 31.0929C48.5894 32.1135 49.1214 33.3128 49.2913 34.5988C49.5415 36.4832 48.3755 38.0992 46.5291 38.5143C44.8172 38.8998 43.0036 37.8621 42.4642 36.1134C41.7778 33.8912 41.1476 31.6527 40.5087 29.4166C40.2971 28.6732 40.6359 28.0302 41.2914 27.8465C41.962 27.6584 42.5452 28.0168 42.7674 28.7806C43.3949 30.9213 44.0145 33.0668 44.642 35.2075C44.8885 36.0464 45.5454 36.4162 46.2565 36.1412C46.8597 35.907 47.1144 35.2979 46.8975 34.5443C46.3044 32.4897 45.7026 30.4376 45.1074 28.3837C45.0551 28.2041 44.9936 28.0249 44.9636 27.8412C44.874 27.2993 45.1762 26.7725 45.6789 26.5723C46.1839 26.3714 46.763 26.5385 47.0668 27.0016C47.1866 27.1873 47.2703 27.4024 47.3326 27.6166C47.6554 28.6937 47.9658 29.7768 48.3486 31.0923L48.3464 31.0929Z" fill="white"/>
<path d="M54.8518 36.1046C54.4558 36.2198 54.0616 36.3415 53.6636 36.4503C52.9206 36.6477 52.3412 36.3587 52.1399 35.6991C51.9301 35.0185 52.2632 34.4288 53.0157 34.1911C53.6411 33.9927 54.2775 33.8239 54.906 33.6364C55.7559 33.3867 56.1303 32.8742 55.9663 32.1896C55.7961 31.4835 55.212 31.1864 54.3202 31.3567C52.6947 31.6677 51.3163 31.0855 50.5037 29.7448C49.3584 27.8579 50.2835 25.3171 52.3794 24.6298C53.1639 24.3734 53.9586 24.1516 54.7545 23.9341C55.4205 23.7544 56.0565 24.0926 56.2387 24.6944C56.4246 25.3092 56.1053 25.9465 55.4469 26.1686C54.7718 26.3979 54.081 26.5731 53.3962 26.777C52.614 27.0093 52.2314 27.5501 52.3791 28.2111C52.5281 28.8765 53.1639 29.2384 53.9773 29.0486C55.0743 28.7928 56.0714 28.9768 56.9524 29.6568C58.0544 30.5073 58.5242 31.6543 58.2899 33.0273C58.0559 34.3932 57.2494 35.3248 55.9284 35.7867C55.5748 35.9107 55.2083 35.9985 54.849 36.103L54.8503 36.1074L54.8518 36.1046Z" fill="white"/>
<path d="M15.7052 37.7505C15.8675 37.7032 16.0276 37.6402 16.1928 37.6109C16.7199 37.5186 17.2586 37.8289 17.4631 38.3303C17.6508 38.7896 17.4784 39.3913 17.0631 39.6905C16.686 39.9598 16.2312 40.0264 15.8005 40.1517C15.556 40.2228 15.5256 40.0298 15.4763 39.8682C15.3661 39.4896 15.2494 39.1128 15.1458 38.7323C14.9019 37.8457 14.7996 38.0186 15.7024 37.7489L15.7052 37.7505Z" fill="#FC7B4A"/>
<path d="M17.6175 44.4834C16.7604 44.7164 16.9274 44.8062 16.6641 43.9418C16.5496 43.5644 16.4567 43.1807 16.3293 42.8071C16.2325 42.5231 16.3211 42.3917 16.601 42.3291C16.875 42.2705 17.1404 42.158 17.4161 42.113C18.0815 42.0039 18.6644 42.3694 18.8177 42.9608C18.9745 43.5723 18.6083 44.1693 17.9409 44.3846C17.8333 44.4183 17.7244 44.4476 17.6162 44.4791L17.6175 44.4834Z" fill="#FC7B4A"/>
<path d="M27.1433 38.0038C27.3523 38.7221 27.5685 39.4408 27.771 40.161C27.9805 40.9214 27.6782 41.5445 27.0221 41.7424C26.3639 41.9409 25.7464 41.5855 25.5234 40.8431C25.0989 39.4247 24.686 38.0054 24.2832 36.5807C24.0731 35.8345 24.4042 35.2054 25.0662 35.0199C25.7282 34.8343 26.3154 35.1985 26.5465 35.9527C26.7541 36.6339 26.9444 37.3201 27.1427 38.0016L27.1433 38.0038Z" fill="#FC7B4A"/>
</g>
<defs>
<clipPath id="clip0_1047_2591">
<rect width="57.4321" height="57.4321" fill="white" transform="translate(0 16.0449) rotate(-16.2227)"/>
</clipPath>
</defs>
</svg>
