<svg width="160" height="160" viewBox="0 0 160 160" fill="none" xmlns="http://www.w3.org/2000/svg">
<g clip-path="url(#clip0_1161_3869)">
<rect width="160" height="160" rx="10" fill="#47E79B"/>
<g clip-path="url(#clip1_1161_3869)">
<path d="M122.328 56.4027C120.871 49.5848 119.406 42.7714 117.961 35.9511C117.32 32.911 117.963 30.165 120.004 27.7936C121.379 26.1968 123.14 25.2697 125.206 24.834C132.445 23.3106 139.675 21.7511 146.908 20.2055C149.436 19.6652 151.959 19.1117 154.49 18.5882C158.942 17.666 163.055 19.7806 164.887 23.9332C165.134 24.4923 165.32 25.0908 165.448 25.6901C167.556 35.4965 169.665 45.2996 171.736 55.1138C172.647 59.431 170.579 63.5308 166.614 65.3952C165.978 65.6942 165.286 65.9063 164.598 66.0562C154.818 68.1607 145.033 70.2458 135.25 72.3392C133.429 72.7281 132.366 74.299 132.745 76.0047C133.099 77.5933 134.588 78.5722 136.297 78.3295C136.554 78.292 136.808 78.2289 137.062 78.1747C148.56 75.7178 160.062 73.2658 171.557 70.795C172.75 70.54 173.817 70.6239 174.712 71.5228C175.529 72.3451 175.807 73.332 175.504 74.4519C175.201 75.5717 174.473 76.2867 173.345 76.5861C173.207 76.6214 173.068 76.654 172.929 76.6838C161.197 79.1907 149.469 81.7054 137.734 84.1985C133.53 85.0911 129.551 83.2509 127.641 79.5204C127.215 78.6874 126.913 77.7667 126.712 76.8508C125.227 70.0388 123.785 63.2207 122.328 56.4027Z" fill="white"/>
</g>
</g>
<defs>
<clipPath id="clip0_1161_3869">
<rect width="160" height="160" rx="10" fill="white"/>
</clipPath>
<clipPath id="clip1_1161_3869">
<rect width="48.6035" height="60.6803" fill="white" transform="translate(116 26.8013) rotate(-12.0617)"/>
</clipPath>
</defs>
</svg>
