<svg width="302" height="309" viewBox="0 0 302 309" fill="none" xmlns="http://www.w3.org/2000/svg">
<g clip-path="url(#clip0_1047_2533)">
<rect width="302" height="309" rx="16" fill="#C69CFD"/>
<g clip-path="url(#clip1_1047_2533)">
<path d="M251.664 69.5155C262.416 64.7346 273.058 59.6714 283.954 55.2499C294.42 51.0043 305.188 50.2448 315.851 54.9631C323.897 58.5262 329.737 64.5415 334.129 72.0099C335.872 74.9784 337.334 78.1263 338.741 81.2749C347.414 100.744 356.257 120.145 364.573 139.765C369.032 150.278 369.684 161.219 364.869 171.988C361.304 179.959 355.318 185.756 347.9 190.102C344.932 191.846 341.785 193.307 338.637 194.714C319.171 203.385 299.802 212.307 280.142 220.525C267.628 225.758 254.929 225.813 243.03 218.124C236.381 213.824 231.356 207.908 228.12 200.804C218.298 179.219 208.438 157.635 199.276 135.765C193.812 122.734 194.19 109.57 202.789 97.5424C207.051 91.5723 212.686 87.0636 219.268 83.9905C229.98 78.9809 240.855 74.3221 251.664 69.5155ZM294.774 112.666C300.658 110.05 306.538 107.442 312.419 104.82C315.602 103.404 316.939 100.314 315.702 97.3589C314.479 94.4361 311.046 93.1587 307.858 94.5613C296.133 99.7361 284.427 104.949 272.728 110.182C269.445 111.65 268.149 114.814 269.482 117.812C270.826 120.834 273.982 121.904 277.29 120.441C283.119 117.856 288.948 115.256 294.774 112.666ZM311.695 150.337C308.917 151.572 306.133 152.811 303.355 154.046C299.988 155.551 296.587 156.978 293.287 158.615C290.496 159.995 289.563 163.144 290.892 165.943C292.285 168.867 295.419 169.854 298.817 168.35C310.375 163.234 321.918 158.086 333.464 152.944C333.998 152.706 334.512 152.424 335.002 152.106C336.859 150.879 337.776 148.646 337.335 146.477C336.585 142.728 332.982 140.948 329.191 142.588C323.339 145.121 317.533 147.757 311.698 150.344L311.695 150.337ZM238.595 129.012C237.68 128.687 237.029 128.437 236.368 128.214C233.228 127.161 230.174 128.573 229.087 131.568C228.004 134.553 229.332 137.437 232.414 138.685C234.744 139.629 237.108 140.512 239.459 141.4C242.77 142.646 245.699 141.421 247.085 138.163C247.723 136.654 248.275 135.107 248.858 133.577C251.061 127.844 253.267 122.102 255.47 116.37C256.352 114.075 255.99 111.979 254.364 110.175C252.791 108.44 250.767 108.061 248.582 108.725C246.64 109.311 245.547 110.768 244.846 112.62C242.802 118.036 240.721 123.436 238.592 129.005L238.595 129.012ZM259.823 177.255C258.939 176.808 258.249 176.329 257.472 176.089C254.471 175.143 251.412 176.681 250.379 179.59C249.347 182.499 250.654 185.368 253.642 186.582C256.136 187.599 258.651 188.561 261.186 189.482C264.069 190.527 267.136 189.232 268.272 186.347C271.208 178.886 274.074 171.388 276.908 163.888C277.785 161.564 277.118 159.457 275.368 157.809C272.545 155.151 267.883 156.323 266.414 160.05C264.225 165.606 262.135 171.196 259.82 177.264L259.823 177.255Z" fill="white"/>
</g>
</g>
<defs>
<clipPath id="clip0_1047_2533">
<rect width="302" height="309" rx="16" fill="white"/>
</clipPath>
<clipPath id="clip1_1047_2533">
<rect width="149.948" height="149.948" fill="white" transform="translate(183 99.9252) rotate(-23.9732)"/>
</clipPath>
</defs>
</svg>
