<svg width="61" height="53" viewBox="0 0 61 53" fill="none" xmlns="http://www.w3.org/2000/svg">
<rect x="0.416077" y="9.26253" width="48.8832" height="43.4518" rx="5" transform="rotate(-5.94931 0.416077 9.26253)" fill="#20B464"/>
<rect x="9.63068" y="4.26624" width="3.77841" height="8.73758" rx="1.88921" transform="rotate(-5.94931 9.63068 4.26624)" fill="#1F5E40"/>
<rect x="22.3147" y="2.94431" width="3.77841" height="8.73758" rx="1.88921" transform="rotate(-5.94931 22.3147 2.94431)" fill="#1F5E40"/>
<rect x="34.7626" y="1.64696" width="3.77841" height="8.73758" rx="1.88921" transform="rotate(-5.94931 34.7626 1.64696)" fill="#1F5E40"/>
<circle cx="14.4135" cy="21.0033" r="2.5" transform="rotate(-5.94931 14.4135 21.0033)" fill="white"/>
<circle cx="15.45" cy="30.9494" r="2.5" transform="rotate(-5.94931 15.45 30.9494)" fill="white"/>
<circle cx="16.4865" cy="40.8955" r="2.5" transform="rotate(-5.94931 16.4865 40.8955)" fill="white"/>
<circle cx="27.3434" cy="19.6558" r="2.5" transform="rotate(-5.94931 27.3434 19.6558)" fill="white"/>
<circle cx="28.3799" cy="29.602" r="2.5" transform="rotate(-5.94931 28.3799 29.602)" fill="white"/>
<circle cx="29.4164" cy="39.5481" r="2.5" transform="rotate(-5.94931 29.4164 39.5481)" fill="white"/>
<circle cx="40.2734" cy="18.3084" r="2.5" transform="rotate(-5.94931 40.2734 18.3084)" fill="white"/>
<circle cx="41.3099" cy="28.2546" r="2.5" transform="rotate(-5.94931 41.3099 28.2546)" fill="white"/>
<circle cx="42.3464" cy="38.2007" r="2.5" transform="rotate(-5.94931 42.3464 38.2007)" fill="white"/>
</svg>
