<svg width="62" height="53" viewBox="0 0 62 53" fill="none" xmlns="http://www.w3.org/2000/svg">
<g clip-path="url(#clip0_1047_2564)">
<path d="M39.5389 46.456C36.552 46.4512 33.5675 46.444 30.5807 46.444C21.9447 46.444 13.3086 46.444 4.67264 46.444C2.80978 46.444 1.3442 45.753 0.46001 44.0674C0.128136 43.4362 -0.000253622 42.7548 -0.000253622 42.0495C-0.000253622 29.5042 -0.00509851 16.9589 0.00459126 4.41127C0.00701371 1.78363 1.86503 0.00954714 4.59512 0.00476526C9.37702 -0.00479851 14.1589 0.00237432 18.9408 0.00237432C31.7144 0.00237432 44.4855 0.00237432 57.259 0.00237432C59.1437 0.00237432 60.6359 0.664665 61.5346 2.37419C61.8859 3.04126 61.9973 3.76572 61.9973 4.51169C61.9973 16.9781 61.9973 29.4444 61.9949 41.9108C61.9949 44.6436 60.1853 46.4321 57.4068 46.444C55.0255 46.456 52.6443 46.4464 50.263 46.4464C50.2485 44.4595 50.2364 42.4727 50.2218 40.4882C50.7742 40.0291 51.1278 39.4362 51.4306 38.8002C51.6705 38.2957 51.966 37.8175 52.1985 37.3106C52.5304 36.5886 53.0488 36.0769 53.7731 35.7374C54.5386 35.3787 55.2872 34.9914 56.0333 34.5945C57.0555 34.0518 57.4649 33.1384 57.1476 32.0386C56.9005 31.1779 56.6025 30.3315 56.3167 29.4827C56.0987 28.8371 56.0987 28.1987 56.3143 27.5508C56.6025 26.6829 56.9029 25.815 57.1549 24.9375C57.4528 23.8855 57.0749 22.9937 56.1132 22.4557C55.4834 22.1018 54.839 21.7623 54.1753 21.4778C53.1603 21.0451 52.4384 20.366 52.012 19.3499C51.7577 18.745 51.4209 18.1735 51.1133 17.5925C50.5125 16.4592 49.5775 16.0719 48.3396 16.4473C47.5111 16.6983 46.6826 16.947 45.8639 17.2291C45.205 17.4562 44.5678 17.4491 43.9138 17.2291C43.1313 16.9661 42.344 16.7198 41.5568 16.4736C40.2244 16.0575 39.2724 16.4401 38.6353 17.6523C38.2647 18.3576 37.8892 19.063 37.5428 19.7826C37.2254 20.4401 36.7434 20.9159 36.0869 21.2363C35.3093 21.6165 34.5341 21.9966 33.7686 22.3983C32.7003 22.9602 32.3079 23.9166 32.664 25.0642C32.9232 25.9011 33.1921 26.7355 33.4755 27.5628C33.6911 28.1916 33.6911 28.8037 33.4755 29.4325C33.1896 30.2597 32.9232 31.0942 32.664 31.931C32.3079 33.0834 32.693 34.0303 33.7589 34.6065C34.3233 34.9125 34.8926 35.2257 35.4861 35.4648C36.5956 35.9119 37.3102 36.6746 37.8238 37.7434C38.2913 38.7165 38.6426 39.7972 39.58 40.4906C39.5655 42.4774 39.5485 44.4667 39.534 46.4536L39.5389 46.456ZM16.0242 42.1714C19.028 42.1714 22.0343 42.1714 25.0381 42.1714C25.2973 42.1714 25.5565 42.181 25.8157 42.1045C27.1771 41.7076 27.9232 40.5312 27.7246 39.0584C27.5671 37.8868 26.4359 36.9281 25.0405 36.9233C19.0523 36.9018 13.0616 36.8826 7.07328 36.9329C5.23464 36.9472 4.30927 38.059 4.28263 39.5366C4.25598 41.1098 5.43571 42.2025 7.129 42.1834C10.0941 42.1475 13.0567 42.1738 16.0218 42.1738L16.0242 42.1714ZM16.0412 32.7248C19.8105 32.7248 23.5798 32.7248 27.3515 32.7248C27.5332 32.7248 27.7222 32.7511 27.8942 32.7081C28.369 32.5885 28.7445 32.3399 28.8171 31.8138C28.8995 31.2352 28.6282 30.8694 28.0855 30.671C27.853 30.5849 27.6156 30.5753 27.3733 30.5753C19.8129 30.5753 12.2549 30.5753 4.69444 30.5753C4.42797 30.5753 4.16635 30.5873 3.92653 30.6997C3.54378 30.8766 3.2652 31.1253 3.26035 31.5987C3.25551 32.3662 3.64068 32.7248 4.55152 32.7248C8.3814 32.7272 12.2113 32.7248 16.0412 32.7248ZM19.7523 20.0576C17.1119 20.0576 14.469 20.0528 11.8285 20.06C11.1963 20.06 10.8111 20.4138 10.7191 21.0211C10.6464 21.5041 10.971 21.9297 11.5209 22.1138C11.7559 22.1927 11.9933 22.2047 12.2355 22.2047C17.2354 22.2047 22.2378 22.2023 27.2377 22.2094C27.5453 22.2094 27.8457 22.176 28.1267 22.0803C28.5579 21.9345 28.8292 21.6523 28.8268 21.1574C28.822 20.4569 28.3859 20.06 27.555 20.06C24.9533 20.0552 22.3516 20.06 19.7523 20.06V20.0576ZM12.3566 25.3177C9.83729 25.3177 7.31795 25.3177 4.79618 25.3177C4.51276 25.3177 4.23902 25.3368 3.96286 25.4181C3.49049 25.5591 3.28216 25.8461 3.25793 26.329C3.23371 26.8455 3.49049 27.1467 3.92895 27.3452C4.21237 27.4719 4.51518 27.4647 4.81798 27.4647C9.7961 27.4647 14.7766 27.4647 19.7548 27.4623C19.9946 27.4623 20.232 27.4767 20.4742 27.405C21.1283 27.2089 21.4311 26.7427 21.3051 26.0971C21.2058 25.5974 20.7528 25.3177 19.9752 25.3177C17.4341 25.3129 14.8953 25.3177 12.3542 25.3177H12.3566ZM26.1137 27.4647C26.5957 27.4647 27.0802 27.4743 27.5623 27.4623C28.3399 27.4408 28.8195 27.032 28.822 26.4032C28.8268 25.7648 28.3593 25.3368 27.5865 25.3224C26.6418 25.3033 25.697 25.3057 24.7498 25.3224C24.0304 25.3344 23.5023 25.8269 23.5096 26.4438C23.5168 26.9722 24.0643 27.4408 24.7256 27.4623C25.1883 27.4767 25.651 27.4647 26.1137 27.4647ZM5.90808 20.0576C5.42602 20.0576 4.94395 20.0576 4.46189 20.0576C4.4207 20.0576 4.38195 20.0576 4.34076 20.0576C3.69397 20.1006 3.31607 20.4234 3.27004 20.9709C3.21675 21.5902 3.4808 22.0397 4.12032 22.1281C5.2734 22.2883 6.44344 22.262 7.59895 22.1401C8.16822 22.0803 8.58973 21.528 8.55581 21.0785C8.51463 20.5071 8.02045 20.0767 7.35428 20.0576C6.87222 20.0432 6.39015 20.0552 5.90808 20.0552V20.0576Z" fill="#4FB96F"/>
<path d="M39.5391 46.456C39.5536 44.4691 39.5706 42.4799 39.5851 40.493C40.3942 40.8445 41.1766 40.7058 41.9712 40.4093C42.6277 40.163 43.306 39.9813 43.9697 39.7542C44.5366 39.5581 45.0986 39.5486 45.6654 39.7231C46.2977 39.9168 46.9372 40.0841 47.5573 40.3113C48.4367 40.6341 49.3064 40.8803 50.2269 40.4882C50.2414 42.4751 50.2535 44.4619 50.2681 46.4464C50.2608 48.156 50.2487 49.8679 50.2511 51.5774C50.2511 52.0986 50.1978 52.5768 49.6843 52.8661C49.161 53.1578 48.7201 52.9235 48.2768 52.6581C47.3999 52.1321 46.5133 51.6204 45.6388 51.0872C45.1397 50.7812 44.6674 50.7764 44.1684 51.0801C43.2769 51.6228 42.3709 52.1417 41.4794 52.6796C41.0507 52.9378 40.6219 53.1363 40.1229 52.8733C39.5948 52.5935 39.5609 52.1058 39.5609 51.587C39.5609 49.8774 39.5488 48.1679 39.5415 46.456H39.5391Z" fill="#BF3A2B"/>
<path d="M50.2271 40.4858C49.3065 40.8779 48.4345 40.6317 47.5575 40.3089C46.9398 40.0817 46.2979 39.9144 45.6656 39.7207C45.0963 39.5462 44.5343 39.5581 43.9699 39.7518C43.3086 39.9813 42.6279 40.163 41.9714 40.4069C41.1792 40.7034 40.3944 40.8421 39.5853 40.4906C38.6478 39.7972 38.2965 38.7165 37.829 37.7434C37.3154 36.6747 36.6008 35.9095 35.4913 35.4648C34.8954 35.2257 34.3286 34.9125 33.7641 34.6065C32.6983 34.0279 32.3131 33.0811 32.6692 31.931C32.9284 31.0942 33.1949 30.2598 33.4807 29.4325C33.6963 28.8037 33.6987 28.1916 33.4807 27.5628C33.1973 26.7355 32.9284 25.9011 32.6692 25.0642C32.3131 23.9142 32.7055 22.9602 33.7738 22.3983C34.5393 21.9967 35.3169 21.6165 36.0921 21.2363C36.7486 20.916 37.2307 20.4402 37.548 19.7826C37.8944 19.063 38.2675 18.3576 38.6405 17.6523C39.2776 16.4401 40.2296 16.0576 41.562 16.4736C42.3493 16.7199 43.1366 16.9661 43.919 17.2291C44.5731 17.4491 45.2102 17.4563 45.8691 17.2291C46.6854 16.947 47.5163 16.6983 48.3448 16.4473C49.5827 16.0719 50.5177 16.4592 51.1185 17.5925C51.4262 18.1735 51.7653 18.745 52.0172 19.3499C52.4436 20.366 53.1655 21.0451 54.1805 21.4778C54.8442 21.76 55.4886 22.1019 56.1184 22.4557C57.0801 22.9937 57.4605 23.8855 57.1601 24.9375C56.9106 25.8174 56.6102 26.6829 56.3195 27.5508C56.1039 28.1988 56.1063 28.8371 56.3219 29.4827C56.6078 30.3315 56.9057 31.1779 57.1528 32.0386C57.4702 33.1408 57.0632 34.0518 56.0385 34.5945C55.2924 34.9914 54.5438 35.3788 53.7784 35.7374C53.0516 36.0769 52.5332 36.5886 52.2038 37.3106C51.9712 37.8175 51.6757 38.2957 51.4359 38.8002C51.1331 39.4362 50.777 40.0291 50.2271 40.4882V40.4858ZM44.9316 35.8474C48.6307 35.9454 52.3733 32.9759 52.3709 28.4928C52.3685 24.1342 48.8123 21.1048 44.8613 21.1287C40.7456 21.1527 37.4148 24.4354 37.4148 28.5048C37.4148 32.6124 40.7359 35.8593 44.9292 35.8498L44.9316 35.8474Z" fill="#E54C3C"/>
<path d="M16.0243 42.1714C13.0592 42.1714 10.0941 42.1475 7.13148 42.181C5.44061 42.2001 4.25846 41.1075 4.28511 39.5342C4.31176 38.0566 5.23713 36.9448 7.07576 36.9305C13.064 36.8827 19.0547 36.8994 25.043 36.9209C26.4359 36.9257 27.5696 37.8845 27.7271 39.056C27.9233 40.5289 27.1796 41.7052 25.8182 42.1021C25.5566 42.1786 25.2998 42.169 25.0406 42.169C22.0368 42.1714 19.0305 42.169 16.0267 42.169L16.0243 42.1714Z" fill="#4C8157"/>
<path d="M16.0416 32.7248C12.2117 32.7248 8.38183 32.7248 4.55195 32.7248C3.64353 32.7248 3.25594 32.3662 3.26079 31.5987C3.26563 31.1253 3.54421 30.879 3.92696 30.6997C4.16678 30.5873 4.4284 30.5754 4.69487 30.5754C12.2553 30.5778 19.8133 30.5778 27.3738 30.5754C27.616 30.5754 27.8534 30.5849 28.086 30.671C28.6286 30.8718 28.8999 31.2377 28.8176 31.8139C28.7425 32.3399 28.3694 32.5885 27.8946 32.7081C27.7226 32.7511 27.5337 32.7248 27.352 32.7248C23.5827 32.7248 19.8133 32.7248 16.0416 32.7248Z" fill="#4C8157"/>
<path d="M19.7524 20.0576C22.3541 20.0576 24.9558 20.0552 27.5551 20.0576C28.386 20.0576 28.8196 20.4545 28.8268 21.1551C28.8293 21.65 28.558 21.9321 28.1268 22.078C27.8433 22.1736 27.5454 22.2071 27.2377 22.2071C22.2378 22.1999 17.2355 22.2023 12.2355 22.2023C11.9933 22.2023 11.7583 22.1903 11.5209 22.1114C10.971 21.9273 10.6464 21.4993 10.7191 21.0188C10.8111 20.4115 11.1963 20.06 11.8286 20.0576C14.469 20.0504 17.1119 20.0552 19.7524 20.0552V20.0576Z" fill="#4C8157"/>
<path d="M12.3571 25.3177C14.8983 25.3177 17.437 25.3153 19.9781 25.3177C20.7533 25.3177 21.2087 25.5974 21.308 26.0971C21.434 26.7427 21.1312 27.2065 20.4771 27.405C20.2373 27.4767 19.9975 27.4624 19.7577 27.4624C14.7796 27.4624 9.79902 27.4624 4.8209 27.4647C4.5181 27.4647 4.21287 27.4719 3.93187 27.3452C3.49341 27.1467 3.23663 26.8455 3.26085 26.329C3.28508 25.8461 3.49341 25.5568 3.96578 25.4181C4.24194 25.3368 4.51568 25.3153 4.7991 25.3177C7.31844 25.3177 9.83778 25.3177 12.3595 25.3177H12.3571Z" fill="#4C8157"/>
<path d="M26.114 27.4647C25.6513 27.4647 25.1886 27.4767 24.7259 27.4624C24.0646 27.4408 23.5147 26.9722 23.5098 26.4438C23.5026 25.827 24.0307 25.3344 24.7501 25.3225C25.6949 25.3081 26.6421 25.3057 27.5868 25.3225C28.3596 25.3368 28.8271 25.7648 28.8223 26.4032C28.8174 27.032 28.3402 27.4408 27.5626 27.4624C27.0805 27.4743 26.5985 27.4647 26.114 27.4624V27.4647Z" fill="#4C8157"/>
<path d="M5.90839 20.0576C6.39046 20.0576 6.87252 20.0457 7.35459 20.06C8.02076 20.0791 8.51494 20.5071 8.55612 21.0809C8.58761 21.5304 8.16853 22.0827 7.59926 22.1425C6.44375 22.2644 5.27371 22.2907 4.12063 22.1306C3.4811 22.0421 3.21706 21.5902 3.27035 20.9733C3.31638 20.4282 3.69428 20.1054 4.34107 20.06C4.38225 20.0576 4.42101 20.06 4.46219 20.06C4.94426 20.06 5.42632 20.06 5.90839 20.06V20.0576Z" fill="#4C8157"/>
<path d="M44.9314 35.8474C40.7382 35.8569 37.4194 32.6124 37.417 28.5024C37.417 24.433 40.7478 21.1527 44.8636 21.1264C48.8146 21.1025 52.3707 24.1318 52.3732 28.4905C52.3756 32.9759 48.6305 35.9454 44.9338 35.845L44.9314 35.8474Z" fill="#EFC319"/>
<path d="M9.35313 7.97809C9.87113 7.97809 10.3238 8.08076 10.7111 8.28609C11.0985 8.49142 11.3971 8.78076 11.6071 9.15409C11.8218 9.52276 11.9291 9.94976 11.9291 10.4351C11.9291 10.9158 11.8218 11.3428 11.6071 11.7161C11.3971 12.0894 11.0961 12.3788 10.7041 12.5841C10.3168 12.7894 9.86646 12.8921 9.35313 12.8921H7.51213V7.97809H9.35313ZM9.27613 11.8561C9.72879 11.8561 10.0811 11.7324 10.3331 11.4851C10.5851 11.2378 10.7111 10.8878 10.7111 10.4351C10.7111 9.98242 10.5851 9.63009 10.3331 9.37809C10.0811 9.12609 9.72879 9.00009 9.27613 9.00009H8.70913V11.8561H9.27613ZM15.6571 12.0241H13.8231L13.5291 12.8921H12.2761L14.0541 7.97809H15.4401L17.2181 12.8921H15.9511L15.6571 12.0241ZM15.3491 11.1001L14.7401 9.30109L14.1381 11.1001H15.3491ZM19.1656 9.22409C19.1843 8.72476 19.3476 8.33976 19.6556 8.06909C19.9636 7.79842 20.3813 7.66309 20.9086 7.66309C21.2586 7.66309 21.5573 7.72376 21.8046 7.84509C22.0566 7.96642 22.2456 8.13209 22.3716 8.34209C22.5023 8.55209 22.5676 8.78776 22.5676 9.04909C22.5676 9.35709 22.4906 9.60909 22.3366 9.80509C22.1826 9.99642 22.0029 10.1271 21.7976 10.1971V10.2251C22.0636 10.3138 22.2736 10.4608 22.4276 10.6661C22.5816 10.8714 22.6586 11.1351 22.6586 11.4571C22.6586 11.7464 22.5909 12.0031 22.4556 12.2271C22.3249 12.4464 22.1313 12.6191 21.8746 12.7451C21.6226 12.8711 21.3216 12.9341 20.9716 12.9341C20.4116 12.9341 19.9636 12.7964 19.6276 12.5211C19.2963 12.2458 19.1213 11.8304 19.1026 11.2751H20.2646C20.2693 11.4804 20.3276 11.6438 20.4396 11.7651C20.5516 11.8818 20.7149 11.9401 20.9296 11.9401C21.1116 11.9401 21.2516 11.8888 21.3496 11.7861C21.4523 11.6788 21.5036 11.5388 21.5036 11.3661C21.5036 11.1421 21.4313 10.9811 21.2866 10.8831C21.1466 10.7804 20.9203 10.7291 20.6076 10.7291H20.3836V9.75609H20.6076C20.8456 9.75609 21.0369 9.71642 21.1816 9.63709C21.3309 9.55309 21.4056 9.40609 21.4056 9.19609C21.4056 9.02809 21.3589 8.89742 21.2656 8.80409C21.1723 8.71076 21.0439 8.66409 20.8806 8.66409C20.7033 8.66409 20.5703 8.71776 20.4816 8.82509C20.3976 8.93242 20.3486 9.06542 20.3346 9.22409H19.1656ZM25.8889 9.16109C25.8515 8.98842 25.7862 8.86009 25.6929 8.77609C25.5995 8.68742 25.4665 8.64309 25.2939 8.64309C25.0279 8.64309 24.8365 8.75976 24.7199 8.99309C24.6032 9.22176 24.5425 9.58576 24.5379 10.0851C24.6405 9.92176 24.7875 9.79342 24.9789 9.70009C25.1749 9.60676 25.3895 9.56009 25.6229 9.56009C26.0802 9.56009 26.4465 9.70476 26.7219 9.99409C27.0019 10.2834 27.1419 10.6871 27.1419 11.2051C27.1419 11.5458 27.0719 11.8444 26.9319 12.1011C26.7965 12.3578 26.5959 12.5584 26.3299 12.7031C26.0685 12.8478 25.7582 12.9201 25.3989 12.9201C24.6802 12.9201 24.1809 12.6961 23.9009 12.2481C23.6209 11.7954 23.4809 11.1468 23.4809 10.3021C23.4809 9.41542 23.6279 8.75742 23.9219 8.32809C24.2205 7.89409 24.6965 7.67709 25.3499 7.67709C25.6999 7.67709 25.9939 7.74709 26.2319 7.88709C26.4745 8.02242 26.6565 8.20209 26.7779 8.42609C26.9039 8.65009 26.9785 8.89509 27.0019 9.16109H25.8889ZM25.3359 10.5051C25.1352 10.5051 24.9672 10.5658 24.8319 10.6871C24.7012 10.8038 24.6359 10.9718 24.6359 11.1911C24.6359 11.4151 24.6965 11.5901 24.8179 11.7161C24.9439 11.8421 25.1212 11.9051 25.3499 11.9051C25.5552 11.9051 25.7162 11.8444 25.8329 11.7231C25.9542 11.5971 26.0149 11.4268 26.0149 11.2121C26.0149 10.9928 25.9565 10.8201 25.8399 10.6941C25.7232 10.5681 25.5552 10.5051 25.3359 10.5051ZM27.8189 10.2671C27.8189 9.46442 27.9729 8.83209 28.2809 8.37009C28.5936 7.90809 29.0952 7.67709 29.7859 7.67709C30.4766 7.67709 30.9759 7.90809 31.2839 8.37009C31.5966 8.83209 31.7529 9.46442 31.7529 10.2671C31.7529 11.0791 31.5966 11.7161 31.2839 12.1781C30.9759 12.6401 30.4766 12.8711 29.7859 12.8711C29.0952 12.8711 28.5936 12.6401 28.2809 12.1781C27.9729 11.7161 27.8189 11.0791 27.8189 10.2671ZM30.5769 10.2671C30.5769 9.79576 30.5256 9.43409 30.4229 9.18209C30.3202 8.92542 30.1079 8.79709 29.7859 8.79709C29.4639 8.79709 29.2516 8.92542 29.1489 9.18209C29.0462 9.43409 28.9949 9.79576 28.9949 10.2671C28.9949 10.5844 29.0136 10.8481 29.0509 11.0581C29.0882 11.2634 29.1629 11.4314 29.2749 11.5621C29.3916 11.6881 29.5619 11.7511 29.7859 11.7511C30.0099 11.7511 30.1779 11.6881 30.2899 11.5621C30.4066 11.4314 30.4836 11.2634 30.5209 11.0581C30.5582 10.8481 30.5769 10.5844 30.5769 10.2671Z" fill="white"/>
</g>
<defs>
<clipPath id="clip0_1047_2564">
<rect width="62" height="53" fill="white"/>
</clipPath>
</defs>
</svg>
