<svg width="63" height="63" viewBox="0 0 63 63" fill="none" xmlns="http://www.w3.org/2000/svg">
<g clip-path="url(#clip0_970_606)">
<path d="M52.1067 0.109235C52.0652 0.0815264 52.0262 0.0554468 51.9847 0.0277379C52.0679 -0.0101797 52.1093 0.0175298 52.1067 0.109235Z" fill="#FEFEFE"/>
<path d="M62.4275 51.976C62.455 51.9345 62.4809 51.8953 62.5085 51.8538C62.5464 51.9373 62.5189 51.9789 62.4275 51.976Z" fill="#FEFEFE"/>
<path d="M5.30068 36.1647C2.71491 23.2701 10.976 10.7965 23.8148 8.2093C36.6697 5.61879 49.1312 13.9563 51.7134 26.8749C54.2894 39.763 46.0032 52.248 33.1705 54.8128C20.3292 57.3772 7.88481 49.0511 5.30068 36.1647ZM45.7876 28.0089C43.8525 18.467 34.5423 12.248 25.0288 14.1435C15.5152 16.0389 9.29621 25.4179 11.2142 34.9802C13.1306 44.5343 22.4949 50.7912 32.0031 48.8693C41.5251 46.9424 47.7251 37.5631 45.788 28.011L45.7876 28.0089Z" fill="#FC5C65"/>
<path d="M45.7876 28.0089C47.7247 37.561 41.5251 46.9424 32.0027 48.8672C22.4949 50.7912 13.1306 44.5343 11.2138 34.9781C9.2958 25.4158 15.5148 16.0369 25.0284 14.1414C34.5419 12.2459 43.8521 18.465 45.7872 28.0069L45.7876 28.0089ZM25.789 26.3788C26.1363 28.1069 26.4975 29.8301 26.8226 31.5627C26.9468 32.2225 27.2716 32.683 27.8264 33.0485C30.0866 34.5362 32.3311 36.0505 34.5816 37.5529C35.7132 38.3092 36.8371 39.0797 37.982 39.8185C38.94 40.4358 40.1716 39.9677 40.4733 38.8957C40.6831 38.1539 40.3891 37.4582 39.638 36.9562C36.5864 34.9131 33.5383 32.8671 30.4737 30.8435C30.1063 30.6015 29.9426 30.3227 29.8611 29.9066C29.2456 26.7716 28.6115 23.6382 27.9778 20.5069C27.7648 19.4473 26.9116 18.8258 25.9758 19.033C25.0421 19.2398 24.5301 20.106 24.7374 21.1477C25.084 22.8929 25.4387 24.6365 25.7894 26.3809L25.789 26.3788Z" fill="#FEFEFE"/>
<path d="M25.789 26.3788C25.4383 24.6345 25.0856 22.8905 24.737 21.1457C24.528 20.1064 25.0416 19.2378 25.9754 19.031C26.9132 18.8234 27.7648 19.4473 27.9774 20.5049C28.6091 23.6366 29.2452 26.7696 29.8606 29.9046C29.9446 30.3223 30.1059 30.5995 30.4733 30.8415C33.5379 32.8651 36.5859 34.9111 39.6376 36.9542C40.3887 37.4562 40.6827 38.1519 40.4729 38.8937C40.1708 39.9637 38.9396 40.4338 37.9816 39.8164C36.8387 39.0773 35.7148 38.3067 34.5812 37.5508C32.3303 36.0464 30.0862 34.5342 27.826 33.0465C27.2712 32.681 26.9464 32.2205 26.8222 31.5606C26.4971 29.8281 26.1359 28.1049 25.7885 26.3768L25.789 26.3788Z" fill="#FC5C65"/>
</g>
<defs>
<clipPath id="clip0_970_606">
<rect width="53" height="53" fill="white" transform="translate(0.130493 10.4453) rotate(-11.3663)"/>
</clipPath>
</defs>
</svg>
