<svg width="145" height="151" viewBox="0 0 145 151" fill="none" xmlns="http://www.w3.org/2000/svg">
<g clip-path="url(#clip0_970_246)">
<path d="M124.643 47.4611L109.228 113.312L22.0861 92.976L37.5018 27.1247C39.2239 19.768 46.5664 15.1992 53.9115 16.913L114.464 31.0437C121.809 32.7575 126.362 40.1028 124.64 47.4595L124.643 47.4611Z" fill="white"/>
<path d="M21.6824 93.8659C21.5072 93.7873 21.3552 93.657 21.2523 93.4909C21.1152 93.2722 21.074 93.0055 21.1344 92.7515L36.5486 26.9037C38.388 19.0372 46.2797 14.1278 54.1336 15.9584L114.69 30.0906C122.542 31.9247 127.436 39.8159 125.596 47.6824L110.177 113.532C110.056 114.061 109.529 114.387 109.003 114.262L21.8619 93.9258C21.7989 93.9099 21.7408 93.8921 21.6824 93.8659ZM116.555 32.7764C115.823 32.4479 115.054 32.1851 114.243 31.995L53.6872 17.8628C46.8835 16.2763 40.0507 20.528 38.4515 27.3445L23.258 92.241L108.498 112.133L123.692 47.2366C125.096 41.2302 121.973 35.2049 116.553 32.7714L116.555 32.7764Z" fill="#EBEBEB"/>
<path d="M23.1759 88.2964L19.9598 102.033C18.0424 110.22 23.1148 118.403 31.2889 120.311L88.8339 133.74C97.008 135.648 105.187 130.558 107.105 122.371L110.321 108.634L23.1759 88.2964Z" fill="#EFEFEF"/>
<path d="M28.116 120.272C21.1979 117.166 17.2113 109.479 19.0067 101.812L22.2227 88.0752C22.2831 87.8212 22.436 87.6003 22.658 87.4643C22.88 87.3282 23.1445 87.2816 23.3982 87.3417L110.546 107.681C111.069 107.804 111.399 108.329 111.274 108.855L108.058 122.592C106.022 131.292 97.298 136.722 88.6117 134.695L31.0666 121.265C30.0351 121.026 29.0503 120.691 28.116 120.272ZM23.9034 89.4708L20.908 102.256C19.117 109.904 23.8803 117.58 31.5096 119.36L89.0546 132.789C96.6908 134.572 104.36 129.798 106.151 122.15L109.143 109.363L23.9 89.4692L23.9034 89.4708Z" fill="#EBEBEB"/>
<path d="M101.124 95.664L38.7705 81.1135L58.8485 63.0252L64.9277 74.0581L85.8846 57.3031L101.124 95.664Z" fill="#00C09A"/>
<path d="M38.3703 82.0049C38.1024 81.8847 37.8988 81.6485 37.8244 81.3546C37.7323 80.999 37.8453 80.6279 38.1167 80.3817L58.1947 62.2934C58.4159 62.095 58.7157 62.0063 59.0111 62.0562C59.3031 62.1046 59.56 62.2861 59.7023 62.5485L65.2258 72.5669L85.275 56.5374C85.5183 56.3448 85.8376 56.2772 86.1359 56.3574C86.4342 56.4376 86.6792 56.6551 86.7938 56.9422L102.033 95.3031C102.167 95.6401 102.104 96.0293 101.865 96.3027C101.625 96.5796 101.258 96.6999 100.902 96.6188L38.5482 82.0683C38.4852 82.0524 38.4272 82.0346 38.3688 82.0084L38.3703 82.0049ZM58.5849 64.5776L40.8158 80.5845L99.5234 94.2837L85.4641 58.8926L65.5373 74.824C65.312 75.004 65.0199 75.0755 64.736 75.0183C64.4521 74.9612 64.2104 74.7824 64.0704 74.5334L58.5849 64.5776Z" fill="#060F11"/>
<path d="M73.8788 55.9056C76.9838 52.8363 77.0195 47.8315 73.9585 44.7269C70.8975 41.6224 65.899 41.5938 62.794 44.6631C59.6891 47.7323 59.6534 52.7372 62.7144 55.8417C65.7754 58.9463 70.7739 58.9749 73.8788 55.9056Z" fill="#FFD400"/>
<path d="M64.681 58.3906C63.0872 57.6751 61.7409 56.5 60.7969 54.9803C59.5477 52.9639 59.1587 50.5852 59.7014 48.2732C60.8161 43.5012 65.6022 40.5264 70.365 41.6391C72.6699 42.1777 74.6308 43.5833 75.8766 45.5982C77.1258 47.6146 77.5148 49.9934 76.9721 52.3053C75.854 57.0758 71.0713 60.0521 66.3119 58.9409C65.7435 58.8097 65.1997 58.6235 64.681 58.3906ZM71.1887 43.9691C70.7834 43.7871 70.3576 43.6414 69.9168 43.5386C66.2026 42.6733 62.4738 44.9939 61.6009 48.7125C61.1806 50.5128 61.4844 52.3736 62.4556 53.9427C63.4303 55.5134 64.9571 56.6082 66.753 57.0299C70.4672 57.8952 74.196 55.5746 75.0654 51.8545C75.4857 50.0542 75.182 48.1934 74.2107 46.6243C73.476 45.4384 72.4253 44.5242 71.1853 43.9675L71.1887 43.9691Z" fill="#060F11"/>
<path d="M63.3035 106.389L30.3588 98.6997L29.6158 101.873L62.5604 109.562L63.3035 106.389Z" fill="white"/>
<path d="M50.7001 110.824L28.7198 105.694L27.9768 108.867L49.957 113.998L50.7001 110.824Z" fill="white"/>
</g>
<defs>
<clipPath id="clip0_970_246">
<rect width="105" height="118" fill="white" transform="translate(48.3301) rotate(24.1781)"/>
</clipPath>
</defs>
</svg>
