<svg width="88" height="102" viewBox="0 0 88 102" fill="none" xmlns="http://www.w3.org/2000/svg">
<g clip-path="url(#clip0_970_222)">
<path d="M81.2222 49.0653L78.2102 68.9448L5.71765 57.9614L10.0242 29.5374C10.3744 27.2258 12.535 25.6366 14.8506 25.9875L32.064 28.5955C33.3285 28.7871 34.4404 29.5406 35.0877 30.6446L38.0315 35.67C38.786 36.9585 40.0835 37.8375 41.5614 38.0614L77.0714 43.4415C79.7724 43.8508 81.6315 46.3684 81.2228 49.0654L81.2222 49.0653Z" fill="#F7AB3E"/>
<path d="M78.0846 69.7783L5.59134 58.7948C5.12983 58.7249 4.81227 58.2947 4.88207 57.834L9.1886 29.41C9.60793 26.6423 12.2045 24.7331 14.9763 25.153L32.1897 27.7611C33.7137 27.992 35.0359 28.8877 35.8161 30.2181L38.7598 35.2443C39.3893 36.3176 40.4566 37.0405 41.6877 37.2271L77.1971 42.6071C80.3557 43.0857 82.5355 46.0387 82.0579 49.1912L79.046 69.0706C78.9762 69.5313 78.5454 69.8481 78.0839 69.7782L78.0846 69.7783ZM6.67969 57.2537L77.5023 67.984L80.3878 48.9388C80.726 46.7065 79.1818 44.6146 76.9456 44.2758L41.435 38.8955C39.6963 38.6321 38.1896 37.6117 37.3019 36.0954L34.358 31.0699C33.8369 30.1818 32.954 29.5836 31.937 29.4295L14.7235 26.8215C12.8728 26.5411 11.1391 27.8162 10.8592 29.6638L6.67902 57.2536L6.67969 57.2537Z" fill="#2D2D2D"/>
<path d="M79.7116 10.8632L21.4879 2.04175L13.141 57.1335L71.3646 65.9549L79.7116 10.8632Z" fill="#F0F0F0"/>
<path d="M31.371 25.6673L24.601 24.6416L22.7403 36.9232L29.5103 37.9489L31.371 25.6673Z" fill="#FF5284"/>
<path d="M29.9829 38.5892L22.0985 37.3947L24.1277 24.0012L32.0122 25.1958L29.9829 38.5892ZM23.3815 36.451L29.0377 37.308L30.7299 26.1389L25.0737 25.2819L23.3815 36.451Z" fill="#FF5284"/>
<path d="M45.1796 21.5645L38.4096 20.5388L35.6313 38.8763L42.4013 39.902L45.1796 21.5645Z" fill="#73D3FF"/>
<path d="M58.9883 17.4618L52.2183 16.436L48.5224 40.8294L55.2924 41.8552L58.9883 17.4618Z" fill="#D2D2D2"/>
<path d="M70.9618 25.4708L64.1918 24.4451L61.4135 42.7826L68.1835 43.8083L70.9618 25.4708Z" fill="#FF5284"/>
<path d="M68.6562 44.4486L60.7717 43.254L63.7185 23.8047L71.6029 24.9993L68.6562 44.4486ZM62.0547 42.3104L67.711 43.1673L70.3207 25.9424L64.6645 25.0854L62.0547 42.3104Z" fill="#FF5284"/>
<path d="M71.239 66.7886L13.0154 57.9672C12.5539 57.8972 12.2363 57.467 12.3061 57.0063L20.653 1.91527C20.7228 1.45456 21.1535 1.13774 21.615 1.20767L79.8386 10.0291C80.3002 10.0991 80.6177 10.5293 80.5479 10.99L72.2009 66.0817C72.1311 66.5424 71.7004 66.8592 71.2389 66.7893L71.239 66.7886ZM14.1037 56.426L70.6567 64.9943L78.7509 11.5711L22.1979 3.00271L14.1037 56.426Z" fill="#2D2D2D"/>
<path d="M80.1257 56.3022L74.347 94.4426C73.8541 97.6962 70.8128 99.9331 67.5535 99.4393L6.86292 90.2441C3.60363 89.7502 1.36148 86.7129 1.85444 83.4592L6.69519 51.5092C7.10372 48.8128 9.62452 46.9582 12.3262 47.3675L47.314 52.6685C49.3835 52.9821 51.4918 52.4495 53.1617 51.1905L55.1726 49.6747C56.6906 48.531 58.6067 48.047 60.4874 48.3319L75.9749 50.6784C78.6759 51.0877 80.535 53.6053 80.1263 56.3023L80.1257 56.3022Z" fill="#F9C160"/>
<path d="M67.4266 100.273L6.73664 91.0778C3.02251 90.515 0.457033 87.0404 1.01889 83.3321L5.85954 51.3828C6.33717 48.2303 9.29407 46.0549 12.4527 46.5334L47.4398 51.8343C49.2732 52.1121 51.1722 51.6323 52.6517 50.5175L54.6634 49.0018C56.3517 47.7286 58.5203 47.1807 60.6138 47.4978L76.1006 49.8442C79.2592 50.3228 81.4391 53.2758 80.9614 56.4283L75.1828 94.5687C74.6209 98.277 71.1414 100.836 67.4259 100.273L67.4266 100.273ZM12.2 48.2012C9.96308 47.8623 7.86919 49.403 7.53096 51.6353L2.69032 83.5846C2.26786 86.3729 4.19709 88.9856 6.98952 89.4086L67.6801 98.6039C70.4739 99.0272 73.0905 97.1032 73.5129 94.315L79.2916 56.1746C79.6298 53.9423 78.0856 51.8504 75.8494 51.5116L60.3626 49.1652C58.7166 48.9158 57.0106 49.3465 55.6828 50.3467L53.6712 51.8624C51.8319 53.249 49.4689 53.8465 47.1886 53.501L12.2002 48.1999L12.2 48.2012Z" fill="#2D2D2D"/>
<path d="M29.384 38.7825L22.614 37.7568C22.1525 37.6869 21.8349 37.2567 21.9047 36.796L23.7655 24.5144C23.8353 24.0537 24.266 23.7369 24.7275 23.8068L31.4975 24.8325C31.9591 24.9024 32.2766 25.3326 32.2068 25.7933L30.346 38.0749C30.2762 38.5356 29.8455 38.8525 29.384 38.7825ZM23.7016 36.2155L28.801 36.9882L30.409 26.375L25.3096 25.6024L23.7016 36.2155Z" fill="#2D2D2D"/>
<path d="M42.275 40.7357L35.505 39.71C35.0435 39.6401 34.726 39.2099 34.7958 38.7492L37.574 20.4123C37.6438 19.9516 38.0745 19.6348 38.536 19.7047L45.306 20.7305C45.7676 20.8004 46.0851 21.2306 46.0153 21.6913L43.237 40.0288C43.1672 40.4895 42.7365 40.8063 42.2749 40.7364L42.275 40.7357ZM36.5927 38.1687L41.6921 38.9413L44.2176 22.2723L39.1183 21.4997L36.5927 38.1687Z" fill="#2D2D2D"/>
<path d="M55.1661 42.6889L48.3961 41.6631C47.9346 41.5932 47.617 41.163 47.6868 40.7023L51.3826 16.3096C51.4524 15.8488 51.8831 15.532 52.3446 15.602L59.1146 16.6277C59.5762 16.6976 59.8937 17.1278 59.8239 17.5885L56.1281 41.9819C56.0583 42.4426 55.6275 42.7594 55.166 42.6895L55.1661 42.6889ZM49.4838 40.1219L54.5831 40.8945L58.0262 18.1695L52.9268 17.3969L49.4838 40.1219Z" fill="#2D2D2D"/>
<path d="M68.0572 44.642L61.2872 43.6163C60.8257 43.5463 60.5081 43.1161 60.5779 42.6554L63.3562 24.3186C63.426 23.8579 63.8567 23.5411 64.3182 23.611L71.0882 24.6367C71.5497 24.7066 71.8673 25.1368 71.7975 25.5975L69.0192 43.935C68.9494 44.3958 68.5186 44.7126 68.0571 44.6426L68.0572 44.642ZM62.3749 42.075L67.4742 42.8476L69.9998 26.1785L64.9004 25.4059L62.3749 42.075Z" fill="#2D2D2D"/>
<path d="M42.9931 12.6576L26.1818 10.1105C25.7203 10.0406 25.4028 9.61037 25.4726 9.14965C25.5424 8.68893 25.9731 8.37212 26.4346 8.44204L43.2459 10.9891C43.7074 11.059 44.025 11.4892 43.9552 11.95C43.8854 12.4107 43.4547 12.7275 42.9931 12.6576Z" fill="#2D2D2D"/>
<path d="M38.9298 17.1015L25.4325 15.0565C24.9709 14.9866 24.6534 14.5564 24.7232 14.0957C24.793 13.635 25.2237 13.3182 25.6852 13.3881L39.1826 15.4331C39.6441 15.503 39.9616 15.9332 39.8918 16.3939C39.822 16.8546 39.3913 17.1714 38.9298 17.1015Z" fill="#2D2D2D"/>
</g>
<defs>
<clipPath id="clip0_970_222">
<rect width="75.011" height="91.0848" fill="white" transform="translate(13.6445) rotate(8.61538)"/>
</clipPath>
</defs>
</svg>
