<svg width="178" height="53" viewBox="0 0 178 53" fill="none" xmlns="http://www.w3.org/2000/svg">
<g clip-path="url(#clip0_18_72)">
<path d="M38.2388 0C35.2098 0 32.7498 2.46004 32.7498 5.489C32.7498 8.51797 35.2098 10.978 38.2388 10.978C41.2677 10.978 43.7278 8.51797 43.7278 5.489C43.7278 2.46004 41.2677 0 38.2388 0Z" fill="#F79825"/>
<path d="M33.2225 22.1323C32.8619 22.3406 32.4773 22.4368 32.0846 22.4368C31.2913 22.4368 30.5221 22.0281 30.0974 21.2909C29.4723 20.1931 29.849 18.7988 30.9388 18.1738L34.5927 16.0823C34.6568 16.0423 34.721 16.0102 34.7851 15.9862C30.6423 7.85283 22.1964 2.28369 12.4444 2.28369C7.91699 2.28369 3.66201 3.49368 0 5.59312V35.8828L5.62523 32.6535L11.9797 8.12528C12.0838 7.29191 12.6447 6.53867 13.5021 6.2502C14.6961 5.84153 15.9942 6.47457 16.4109 7.66853L21.8198 23.3663L24.0955 22.0601C25.1933 21.4351 26.5876 21.8117 27.2207 22.9095C27.8457 24.0073 27.4691 25.4016 26.3793 26.0266L23.3423 27.7735L26.3472 36.5078C26.7559 37.7018 26.1229 38.9999 24.9289 39.4166C24.6805 39.5048 24.4321 39.5448 24.1837 39.5448C23.2381 39.5448 22.3487 38.9518 22.0201 37.9983L19.2957 30.0973L9.56769 35.6584L5.48099 51.4443C7.69262 52.0854 10.0325 52.4219 12.4444 52.4219C26.2911 52.4219 37.5175 41.1955 37.5175 27.3568C37.5175 24.8888 37.157 22.5009 36.4919 20.2492L33.2225 22.1323Z" fill="#E01033"/>
<path d="M26.2191 45.3544C24.969 45.3544 23.9594 44.3447 23.9594 43.0947C23.9594 41.8526 24.969 40.835 26.2191 40.835C27.4611 40.835 28.4707 41.8446 28.4707 43.0947C28.4707 44.3447 27.4611 45.3544 26.2191 45.3544Z" fill="white"/>
<path d="M11.1703 29.4723L17.7811 25.6821L14.5679 16.3628L11.1703 29.4723Z" fill="#E01033"/>
<path d="M0 49.1285C0.392644 49.3528 0.785288 49.5612 1.18595 49.7695L4.0226 38.8396L0 41.1474V49.1285Z" fill="#E01033"/>
<path d="M65.5796 18.2618C65.5796 19.7443 65.3472 21.0264 64.8904 22.1162C64.4337 23.206 63.7766 24.1195 62.9352 24.8486C62.0858 25.5778 61.0682 26.1227 59.8822 26.4753C58.6883 26.8279 57.3741 27.0042 55.9237 27.0042C55.2346 27.0042 54.4573 26.9721 53.5839 26.916C52.7105 26.8599 51.8851 26.7397 51.0918 26.5554V9.97625C51.8771 9.79195 52.7185 9.67977 53.6079 9.63169C54.4974 9.58361 55.2827 9.55957 55.9718 9.55957C57.3981 9.55957 58.7043 9.72785 59.8902 10.0644C61.0762 10.401 62.0858 10.9298 62.9352 11.643C63.7846 12.3562 64.4337 13.2616 64.8904 14.3514C65.3472 15.4492 65.5796 16.7474 65.5796 18.2618ZM54.1929 24.2477C54.3772 24.2637 54.6096 24.2797 54.9061 24.2877C55.2025 24.2957 55.6032 24.3038 56.116 24.3038C58.1995 24.3038 59.754 23.7749 60.7877 22.7172C61.8134 21.6594 62.3262 20.177 62.3262 18.2699C62.3262 16.3307 61.8294 14.8482 60.8198 13.8065C59.8181 12.7728 58.2636 12.252 56.1641 12.252C55.2426 12.252 54.5855 12.276 54.1929 12.3241V24.2477Z" fill="#333333"/>
<path d="M70.9564 10.1526C70.9564 10.7135 70.7721 11.1542 70.4115 11.4828C70.0509 11.8113 69.6262 11.9716 69.1294 11.9716C68.6245 11.9716 68.1838 11.8113 67.8232 11.4828C67.4626 11.1542 67.2783 10.7135 67.2783 10.1526C67.2783 9.57565 67.4626 9.12691 67.8232 8.79837C68.1838 8.46983 68.6165 8.30957 69.1294 8.30957C69.6262 8.30957 70.0509 8.47785 70.4115 8.79837C70.7801 9.12691 70.9564 9.57565 70.9564 10.1526ZM69.1454 26.8119C68.32 26.8119 67.6549 26.1468 67.6549 25.3215V15.4092C67.6549 14.5839 68.32 13.9188 69.1454 13.9188C69.9707 13.9188 70.6358 14.5839 70.6358 15.4092V25.3215C70.6358 26.1388 69.9707 26.8119 69.1454 26.8119Z" fill="#333333"/>
<path d="M83.8736 25.5058C83.8736 27.5571 83.3528 29.0636 82.3111 30.0172C81.2694 30.9707 79.6667 31.4435 77.5192 31.4435C76.7339 31.4435 75.9647 31.3794 75.2114 31.2432C74.931 31.1951 74.6585 31.139 74.3941 31.0749C73.713 30.9146 73.2802 30.2496 73.4245 29.5684C73.5767 28.8633 74.2819 28.4306 74.9871 28.5989C75.1393 28.6389 75.2915 28.671 75.4598 28.703C76.1089 28.8312 76.814 28.9034 77.5673 28.9034C78.7693 28.9034 79.6186 28.6549 80.1315 28.1661C80.6443 27.6773 80.8927 26.9401 80.8927 25.9705V25.4817C80.5962 25.626 80.2036 25.7782 79.7228 25.9225C79.234 26.0667 78.6811 26.1468 78.0561 26.1468C77.2307 26.1468 76.4855 26.0186 75.8044 25.7542C75.1233 25.4898 74.5383 25.1051 74.0575 24.6003C73.5767 24.0875 73.1921 23.4544 72.9197 22.6932C72.6472 21.9319 72.511 21.0425 72.511 20.0408C72.511 19.1033 72.6552 18.2459 72.9437 17.4526C73.2322 16.6673 73.6489 15.9942 74.2018 15.4333C74.7547 14.8723 75.4198 14.4396 76.2131 14.1271C76.9984 13.8146 77.8958 13.6624 78.8975 13.6624C79.8671 13.6624 80.7886 13.7345 81.654 13.8867C82.5274 14.031 83.2646 14.1912 83.8736 14.3515V25.5058ZM75.572 20.0328C75.572 21.2989 75.8445 22.2204 76.3974 22.8053C76.9503 23.3903 77.6554 23.6788 78.5289 23.6788C79.0096 23.6788 79.4504 23.6147 79.8751 23.4785C80.2918 23.3502 80.6363 23.19 80.9008 23.0137V16.3387C80.6844 16.2907 80.42 16.2426 80.1075 16.2025C79.7949 16.1625 79.4023 16.1384 78.9215 16.1384C77.8397 16.1384 77.0064 16.499 76.4294 17.2122C75.8605 17.9253 75.572 18.8629 75.572 20.0328Z" fill="#333333"/>
<path d="M89.7953 10.1526C89.7953 10.7135 89.611 11.1542 89.2504 11.4828C88.8899 11.8113 88.4652 11.9716 87.9683 11.9716C87.4635 11.9716 87.0228 11.8113 86.6622 11.4828C86.3016 11.1542 86.1173 10.7135 86.1173 10.1526C86.1173 9.57565 86.3016 9.12691 86.6622 8.79837C87.0228 8.46983 87.4555 8.30957 87.9683 8.30957C88.4652 8.30957 88.8899 8.47785 89.2504 8.79837C89.6191 9.12691 89.7953 9.57565 89.7953 10.1526ZM87.9844 26.8119C87.159 26.8119 86.4939 26.1468 86.4939 25.3215V15.4092C86.4939 14.5839 87.159 13.9188 87.9844 13.9188C88.8097 13.9188 89.4748 14.5839 89.4748 15.4092V25.3215C89.4748 26.1388 88.8097 26.8119 87.9844 26.8119Z" fill="#333333"/>
<path d="M93.3611 10.0885C94.2025 10.0564 94.9077 10.7296 94.9077 11.5789V13.9268H99.4912V16.4189H94.9077V21.6675C94.9077 22.7012 95.068 23.4384 95.3965 23.8871C95.725 24.3279 96.2859 24.5522 97.0712 24.5522C97.6161 24.5522 98.0969 24.4961 98.5136 24.384C98.9303 24.2718 99.2668 24.1596 99.5072 24.0634L99.996 26.4273C99.6515 26.5715 99.2027 26.7318 98.6418 26.8841C98.0809 27.0443 97.4238 27.1164 96.6706 27.1164C95.7491 27.1164 94.9798 26.9962 94.3628 26.7478C93.7458 26.4994 93.257 26.1468 92.8964 25.6741C92.5358 25.2093 92.2794 24.6404 92.1351 23.9753C91.9909 23.3102 91.9108 22.5489 91.9108 21.6995V11.5789C91.9268 10.7776 92.5598 10.1125 93.3611 10.0885Z" fill="#333333"/>
<path d="M106.166 13.5984C107.152 13.5984 107.977 13.7186 108.658 13.967C109.331 14.2154 109.868 14.56 110.269 15.0007C110.67 15.4414 110.958 15.9863 111.134 16.6113C111.311 17.2444 111.391 17.9415 111.391 18.6947V26.5076C110.934 26.6037 110.237 26.7239 109.307 26.8682C108.378 27.0044 107.336 27.0765 106.166 27.0765C105.397 27.0765 104.692 27.0044 104.051 26.8521C103.41 26.7079 102.865 26.4675 102.416 26.139C101.967 25.8104 101.607 25.3857 101.358 24.8569C101.102 24.328 100.974 23.6789 100.974 22.9097C100.974 22.1725 101.118 21.5474 101.406 21.0346C101.695 20.5217 102.087 20.1131 102.576 19.7926C103.073 19.472 103.642 19.2396 104.291 19.1034C104.94 18.9672 105.621 18.8951 106.326 18.8951C106.655 18.8951 107 18.9191 107.36 18.9592C107.721 18.9992 108.105 19.0714 108.522 19.1675V18.6707C108.522 18.3261 108.482 17.9976 108.402 17.6851C108.322 17.3726 108.177 17.1001 107.969 16.8597C107.761 16.6193 107.488 16.435 107.152 16.3068C106.815 16.1786 106.391 16.1145 105.886 16.1145C105.197 16.1145 104.564 16.1626 103.987 16.2588C103.922 16.2668 103.858 16.2828 103.802 16.2908C103.129 16.419 102.488 15.9543 102.384 15.2731C102.288 14.6321 102.704 14.0311 103.338 13.8949C103.506 13.8628 103.682 13.8228 103.874 13.7907C104.572 13.6705 105.341 13.5984 106.166 13.5984ZM106.415 24.7126C107.336 24.7126 108.033 24.6645 108.506 24.5684V21.267C108.346 21.2189 108.105 21.1708 107.793 21.1227C107.48 21.0747 107.136 21.0506 106.759 21.0506C106.431 21.0506 106.094 21.0747 105.765 21.1227C105.429 21.1708 105.124 21.259 104.852 21.3952C104.58 21.5234 104.363 21.7077 104.195 21.9481C104.027 22.1885 103.947 22.485 103.947 22.8456C103.947 23.5507 104.171 24.0395 104.612 24.312C105.06 24.5764 105.653 24.7126 106.415 24.7126Z" fill="#333333"/>
<path d="M118.498 26.0267C118.394 26.6357 117.833 27.0604 117.216 26.9882C116.8 26.9402 116.439 26.868 116.118 26.7639C115.533 26.5796 115.069 26.3232 114.724 25.9866C114.38 25.6501 114.139 25.2334 113.995 24.7285C113.859 24.2317 113.787 23.6548 113.787 23.0137V8.88655C113.787 8.50192 114.099 8.1814 114.492 8.1814H116.07C116.455 8.1814 116.776 8.49391 116.776 8.88655V22.4528C116.776 22.8134 116.808 23.1179 116.864 23.3663C116.92 23.6147 117.024 23.8231 117.168 23.9913C117.312 24.1596 117.513 24.2958 117.769 24.384H117.777C118.322 24.5763 118.651 25.1372 118.554 25.7061L118.498 26.0267Z" fill="#333333"/>
<path d="M62.4465 47.6462C62.2141 46.9731 61.9737 46.308 61.7333 45.6509C61.4849 44.9938 61.2445 44.3207 61.0201 43.6316H53.8083C53.5759 44.3207 53.3435 45.0018 53.1032 45.6669C52.8628 46.332 52.6304 46.9971 52.398 47.6542H49.1687C49.8098 45.8272 50.4188 44.1444 50.9877 42.6059C51.5646 41.0594 52.1256 39.601 52.6704 38.2227C53.2234 36.8444 53.7682 35.5303 54.3051 34.2802C54.85 33.0302 55.4029 31.7962 55.9799 30.5862H58.9447C59.5217 31.8042 60.0746 33.0302 60.6195 34.2802C61.1644 35.5303 61.7093 36.8444 62.2622 38.2227C62.8151 39.601 63.376 41.0674 63.961 42.6059C64.5459 44.1524 65.1549 45.8352 65.796 47.6542H62.4465V47.6462ZM57.4142 33.8716C57.0376 34.745 56.6049 35.8027 56.1241 37.0528C55.6353 38.3028 55.1305 39.6571 54.6096 41.1155H60.2268C59.698 39.6571 59.1931 38.2948 58.6963 37.0288C58.1995 35.7627 57.7748 34.713 57.4142 33.8716Z" fill="#333333"/>
<path d="M66.2446 41.2115C66.2446 40.2579 66.3889 39.3685 66.6854 38.5351C66.9818 37.7097 67.4065 36.9886 67.9514 36.3796C68.5043 35.7706 69.1694 35.2978 69.9627 34.9532C70.748 34.6087 71.6375 34.4324 72.6231 34.4324C73.4004 34.4324 74.1536 34.5205 74.8748 34.7048C75.5479 34.8731 75.9566 35.5462 75.7803 36.2193L75.7642 36.2914C75.596 36.9405 74.9309 37.3251 74.2818 37.1729C74.2738 37.1729 74.2738 37.1729 74.2658 37.1729C73.8331 37.0767 73.3683 37.0286 72.8715 37.0286C71.7016 37.0286 70.8201 37.3972 70.2111 38.1264C69.6021 38.8556 69.2976 39.8893 69.2976 41.2195C69.2976 42.5016 69.5861 43.5193 70.1631 44.2645C70.74 45.0097 71.7096 45.3863 73.0718 45.3863C73.5847 45.3863 74.0815 45.3383 74.5783 45.2421C75.0751 45.1459 75.4998 45.0177 75.8604 44.8735L76.2771 47.3335C75.9486 47.5018 75.4517 47.646 74.7866 47.7743C74.1216 47.9025 73.4324 47.9746 72.7273 47.9746C71.6295 47.9746 70.6679 47.8063 69.8586 47.4698C69.0492 47.1332 68.3761 46.6684 67.8392 46.0675C67.3024 45.4665 66.9097 44.7533 66.6453 43.9199C66.3728 43.0866 66.2446 42.1811 66.2446 41.2115Z" fill="#333333"/>
<path d="M82.3832 34.4404C83.3688 34.4404 84.1942 34.5606 84.8753 34.809C85.5484 35.0574 86.0853 35.402 86.4859 35.8427C86.8866 36.2835 87.1751 36.8283 87.3513 37.4534C87.5276 38.0864 87.6078 38.7836 87.6078 39.5368V47.3496C87.151 47.4458 86.4539 47.566 85.5243 47.7102C84.5948 47.8464 83.5531 47.9185 82.3832 47.9185C81.6139 47.9185 80.9088 47.8464 80.2677 47.6942C79.6267 47.5499 79.0818 47.3095 78.633 46.981C78.1843 46.6525 77.8237 46.2278 77.5753 45.6989C77.3189 45.17 77.1907 44.521 77.1907 43.7517C77.1907 43.0145 77.3349 42.3895 77.6234 41.8766C77.9119 41.3638 78.3045 40.9551 78.7933 40.6346C79.2901 40.3141 79.8591 40.0817 80.5081 39.9455C81.1572 39.8092 81.8383 39.7371 82.5435 39.7371C82.872 39.7371 83.2166 39.7612 83.5772 39.8012C83.9377 39.8413 84.3224 39.9134 84.7391 40.0096V39.5128C84.7391 39.1682 84.699 38.8396 84.6189 38.5271C84.5387 38.2146 84.3945 37.9422 84.1861 37.7018C83.9778 37.4614 83.7054 37.2771 83.3688 37.1489C83.0323 37.0207 82.6076 36.9566 82.1027 36.9566C81.4136 36.9566 80.7806 37.0046 80.2036 37.1008C80.1395 37.1088 80.0754 37.1248 80.0193 37.1328C79.3462 37.2611 78.7052 36.7963 78.601 36.1152C78.5048 35.4741 78.9215 34.8731 79.5545 34.7369C79.7228 34.7049 79.8991 34.6648 80.0914 34.6327C80.7886 34.5045 81.5578 34.4404 82.3832 34.4404ZM82.6316 45.5547C83.5531 45.5547 84.2503 45.5066 84.723 45.4104V42.109C84.5628 42.0609 84.3224 42.0128 84.0099 41.9648C83.6973 41.9167 83.3528 41.8927 82.9762 41.8927C82.6476 41.8927 82.3111 41.9167 81.9825 41.9648C81.646 42.0128 81.3415 42.101 81.069 42.2372C80.7966 42.3654 80.5802 42.5497 80.412 42.7901C80.2437 43.0305 80.1635 43.327 80.1635 43.6876C80.1635 44.3928 80.3879 44.8816 80.8286 45.154C81.2774 45.4184 81.8704 45.5547 82.6316 45.5547Z" fill="#333333"/>
<path d="M100.942 47.2536C100.349 47.4379 99.6033 47.5982 98.7139 47.7504C97.8164 47.8947 96.8789 47.9748 95.8933 47.9748C94.8756 47.9748 93.9621 47.8145 93.1608 47.502C92.3595 47.1895 91.6703 46.7408 91.1014 46.1558C90.5325 45.5709 90.0997 44.8657 89.7952 44.0323C89.4908 43.207 89.3385 42.2694 89.3385 41.2358C89.3385 40.2181 89.4667 39.2966 89.7231 38.4632C89.9796 37.6298 90.3482 36.9247 90.845 36.3317C91.3418 35.7387 91.9348 35.282 92.6399 34.9615C93.3451 34.6409 94.1544 34.4807 95.0759 34.4807C95.7009 34.4807 96.2458 34.5528 96.7266 34.705C97.1994 34.8493 97.6161 35.0176 97.9606 35.2019V30.2818C97.9606 29.5526 98.4895 28.9276 99.2107 28.8074C100.116 28.6551 100.942 29.3603 100.942 30.2818V47.2536ZM92.3915 41.1636C92.3915 42.4778 92.704 43.5115 93.329 44.2567C93.9541 45.0019 94.8195 45.3786 95.9173 45.3786C96.3981 45.3786 96.7987 45.3545 97.1353 45.3144C97.4718 45.2744 97.7443 45.2263 97.9606 45.1782V37.7901C97.6962 37.6058 97.3516 37.4455 96.9109 37.2853C96.4702 37.125 96.0134 37.0529 95.5166 37.0529C94.4349 37.0529 93.6416 37.4215 93.1367 38.1587C92.6479 38.8959 92.3915 39.8976 92.3915 41.1636Z" fill="#333333"/>
<path d="M102.825 41.2596C102.825 40.1297 102.993 39.1361 103.33 38.2787C103.666 37.4213 104.115 36.7161 104.676 36.1472C105.237 35.5783 105.878 35.1536 106.599 34.8651C107.32 34.5766 108.057 34.4324 108.819 34.4324C110.589 34.4324 111.976 34.9853 112.969 36.0831C113.963 37.1809 114.46 38.8236 114.46 41.0112C114.46 41.1794 114.452 41.3637 114.452 41.5641C114.444 41.7724 114.428 41.9567 114.412 42.117H105.91C105.99 43.1507 106.358 43.952 107.008 44.5209C107.657 45.0899 108.594 45.3703 109.828 45.3703C110.549 45.3703 111.214 45.3062 111.815 45.17C112.008 45.1299 112.184 45.0818 112.352 45.0418C112.825 44.9136 113.306 45.2261 113.386 45.7069L113.522 46.5242C113.586 46.9249 113.354 47.3255 112.961 47.4457H112.953C112.665 47.5339 112.336 47.614 111.968 47.6941C111.599 47.7662 111.198 47.8303 110.774 47.8784C110.349 47.9265 109.908 47.9505 109.468 47.9505C108.338 47.9505 107.352 47.7823 106.511 47.4457C105.677 47.1092 104.98 46.6444 104.443 46.0434C103.898 45.4424 103.498 44.7373 103.233 43.9279C102.953 43.1266 102.825 42.2292 102.825 41.2596ZM111.471 39.9294C111.471 39.5207 111.415 39.1281 111.295 38.7595C111.182 38.3909 111.014 38.0703 110.79 37.7979C110.565 37.5254 110.293 37.3171 109.972 37.1568C109.652 36.9966 109.267 36.9245 108.827 36.9245C108.37 36.9245 107.961 37.0126 107.617 37.1809C107.272 37.3572 106.984 37.5815 106.743 37.862C106.503 38.1425 106.318 38.463 106.19 38.8236C106.054 39.1842 105.966 39.5528 105.918 39.9294H111.471Z" fill="#333333"/>
<path d="M123.747 40.867C123.747 39.5208 123.579 38.5512 123.242 37.9502C122.906 37.3492 122.273 37.0527 121.359 37.0527C121.031 37.0527 120.67 37.0768 120.277 37.1249C119.885 37.1729 119.588 37.213 119.388 37.245V47.6461H116.407V35.1777C116.984 35.0174 117.737 34.8571 118.659 34.7129C119.588 34.5687 120.566 34.4885 121.599 34.4885C122.489 34.4885 123.21 34.6007 123.779 34.8331C124.348 35.0655 124.821 35.37 125.197 35.7466C125.374 35.6184 125.606 35.4741 125.887 35.3299C126.167 35.1857 126.48 35.0494 126.824 34.9212C127.169 34.801 127.537 34.6969 127.922 34.6167C128.315 34.5366 128.715 34.4965 129.116 34.4965C130.109 34.4965 130.927 34.6408 131.568 34.9292C132.217 35.2177 132.73 35.6184 133.098 36.1392C133.467 36.6601 133.723 37.2771 133.86 38.0143C133.996 38.7435 134.068 39.5448 134.068 40.4183V47.6621H131.087V40.867C131.087 39.5208 130.919 38.5512 130.59 37.9502C130.262 37.3492 129.629 37.0527 128.691 37.0527C128.218 37.0527 127.762 37.1329 127.337 37.2851C126.912 37.4454 126.592 37.5896 126.375 37.7419C126.504 38.1505 126.6 38.5913 126.648 39.048C126.696 39.5048 126.72 40.0016 126.72 40.5304V46.1637C126.72 46.989 126.055 47.6541 125.229 47.6541C124.404 47.6541 123.739 46.989 123.739 46.1637V40.867H123.747Z" fill="#333333"/>
<path d="M147.354 34.761C146.023 39.657 144.485 44.0883 142.73 48.0628C142.402 48.8 142.065 49.4331 141.72 49.9619C141.376 50.4908 140.991 50.9235 140.559 51.2681C140.134 51.6126 139.653 51.861 139.124 52.0213C138.587 52.1816 137.97 52.2537 137.265 52.2537C136.792 52.2537 136.32 52.1976 135.855 52.0934C135.438 51.9973 135.118 51.8931 134.901 51.7889L135.446 49.401C136.039 49.6334 136.624 49.7456 137.201 49.7456C137.978 49.7456 138.587 49.5613 139.02 49.1927C139.461 48.8241 139.837 48.2551 140.174 47.4778C139.236 45.6749 138.331 43.7037 137.465 41.5641C136.832 40.0096 136.255 38.3909 135.727 36.7082C135.422 35.7466 136.151 34.769 137.161 34.769C137.842 34.769 138.435 35.2257 138.611 35.8748C138.707 36.2354 138.82 36.62 138.932 37.0047C139.172 37.814 139.429 38.6313 139.709 39.4567C139.99 40.2901 140.286 41.1154 140.599 41.9328C140.911 42.7501 141.224 43.5194 141.536 44.2245C142.057 42.7581 142.546 41.2036 143.011 39.5528C143.467 37.9021 143.884 36.3075 144.261 34.761H147.354Z" fill="#333333"/>
<path d="M151.577 48.5116C151.232 48.5116 150.872 48.4876 150.503 48.4475C150.142 48.3994 149.79 48.3433 149.461 48.2712C149.133 48.1991 148.836 48.127 148.564 48.0388C148.283 47.9507 148.075 47.8705 147.923 47.7904L147.802 47.7263L148.339 45.4345L148.54 45.5307C148.796 45.6509 149.173 45.7951 149.67 45.9474C150.158 46.0996 150.767 46.1798 151.497 46.1798C152.442 46.1798 153.131 45.9955 153.54 45.6429C153.949 45.2903 154.141 44.8256 154.141 44.2326C154.141 43.8479 154.061 43.5274 153.909 43.287C153.748 43.0306 153.54 42.8303 153.267 42.678C152.987 42.5178 152.666 42.4056 152.298 42.3415C151.921 42.2774 151.521 42.2373 151.104 42.2373C150.575 42.2373 150.15 41.8126 150.15 41.2837V40.9792C150.15 40.4504 150.575 40.0257 151.104 40.0257H151.272C151.553 40.0257 151.833 40.0016 152.122 39.9455C152.394 39.8895 152.65 39.8013 152.867 39.6651C153.083 39.5369 153.259 39.3606 153.396 39.1442C153.532 38.9359 153.596 38.6554 153.596 38.3109C153.596 38.0384 153.548 37.806 153.444 37.6137C153.34 37.4214 153.211 37.2692 153.051 37.1409C152.883 37.0127 152.699 36.9246 152.474 36.8685C152.25 36.8124 152.009 36.7804 151.761 36.7804C151.216 36.7804 150.727 36.8605 150.311 37.0207C149.886 37.189 149.501 37.3733 149.165 37.5817L148.996 37.6858L148.011 35.6665L148.139 35.5784C148.323 35.4582 148.54 35.338 148.796 35.2098C149.053 35.0816 149.341 34.9534 149.662 34.8412C149.974 34.721 150.319 34.6328 150.687 34.5607C151.048 34.4886 151.44 34.4565 151.841 34.4565C152.586 34.4565 153.243 34.5527 153.788 34.729C154.341 34.9133 154.806 35.1777 155.167 35.5143C155.535 35.8508 155.808 36.2595 155.992 36.7162C156.168 37.173 156.256 37.6778 156.256 38.2147C156.256 38.8558 156.08 39.4407 155.719 39.9455C155.519 40.226 155.287 40.4824 155.022 40.6908L154.726 40.9231L155.046 41.1155C155.447 41.3559 155.808 41.6604 156.104 42.037C156.577 42.6219 156.817 43.3832 156.817 44.2887C156.817 44.8897 156.713 45.4586 156.505 45.9794C156.288 46.5003 155.96 46.957 155.527 47.3337C155.094 47.7103 154.542 48.0068 153.884 48.2231C153.259 48.4074 152.474 48.5116 151.577 48.5116Z" fill="#333333"/>
<path d="M162.667 48.5116C161.112 48.5116 159.91 47.9907 159.093 46.957C158.284 45.9394 157.867 44.521 157.867 42.7421C157.867 41.46 158.059 40.3061 158.436 39.3125C158.821 38.3109 159.365 37.4615 160.071 36.7723C160.776 36.0912 161.641 35.5623 162.635 35.2018C163.051 35.0575 163.877 34.9053 165.015 34.7771C165.055 34.769 165.103 34.769 165.143 34.769C165.72 34.769 166.209 35.2258 166.249 35.8027C166.289 36.4037 165.84 36.9326 165.239 36.9807C164.774 37.0207 164.446 37.0608 164.253 37.1089C163.684 37.2371 163.164 37.4374 162.715 37.7019C162.266 37.9663 161.882 38.3189 161.561 38.7355C161.401 38.9439 161.265 39.1843 161.136 39.4407L160.904 39.9295L161.425 39.8013C161.817 39.7051 162.242 39.649 162.675 39.649C163.476 39.649 164.173 39.7612 164.742 39.9936C165.311 40.226 165.784 40.5385 166.145 40.9392C166.497 41.3318 166.762 41.7966 166.93 42.3174C167.09 42.8303 167.178 43.3752 167.178 43.9361C167.178 44.4489 167.09 44.9778 166.914 45.5067C166.738 46.0435 166.457 46.5404 166.088 46.9811C165.712 47.4218 165.239 47.7824 164.678 48.0709C164.117 48.3673 163.436 48.5116 162.667 48.5116ZM162.402 41.8446C162.05 41.8446 161.705 41.8767 161.369 41.9408C161.144 41.9809 160.928 42.037 160.728 42.1091L160.567 42.1652L160.551 42.3895C160.543 42.5097 160.543 42.6219 160.543 42.7341C160.543 43.2309 160.575 43.7037 160.648 44.1364C160.712 44.5611 160.832 44.9377 160.992 45.2582C161.152 45.5708 161.361 45.8031 161.633 45.9874C161.898 46.1637 162.242 46.2519 162.643 46.2519C162.979 46.2519 163.26 46.1798 163.492 46.0515C163.733 45.9073 163.917 45.739 164.069 45.5147C164.221 45.2903 164.334 45.0499 164.406 44.7855C164.478 44.521 164.51 44.2566 164.51 44.0082C164.51 43.295 164.342 42.7581 164.005 42.3895C163.684 42.0209 163.148 41.8446 162.402 41.8446Z" fill="#333333"/>
<path d="M172.892 48.5117C171.409 48.5117 170.231 47.8866 169.39 46.6606C168.565 45.4587 168.148 43.7118 168.148 41.4681C168.148 40.3623 168.252 39.3607 168.468 38.4952C168.685 37.6298 168.997 36.8846 169.406 36.2836C169.815 35.6826 170.319 35.2179 170.912 34.8973C171.497 34.5848 172.17 34.4246 172.9 34.4246C174.382 34.4246 175.56 35.0496 176.401 36.2756C177.227 37.4856 177.643 39.2244 177.643 41.4681C177.643 43.7038 177.227 45.4506 176.401 46.6606C175.552 47.8947 174.374 48.5117 172.892 48.5117ZM172.892 36.7804C172.515 36.7804 172.21 36.8926 171.954 37.117C171.69 37.3494 171.481 37.6779 171.321 38.0786C171.161 38.4952 171.041 39.0001 170.968 39.577C170.904 40.162 170.864 40.795 170.864 41.4681C170.864 42.1412 170.896 42.7823 170.968 43.3592C171.041 43.9362 171.153 44.441 171.321 44.8577C171.481 45.2663 171.698 45.5869 171.954 45.8273C172.21 46.0516 172.515 46.1638 172.892 46.1638C173.268 46.1638 173.565 46.0516 173.813 45.8273C174.07 45.5949 174.278 45.2663 174.438 44.8577C174.606 44.441 174.727 43.9362 174.799 43.3512C174.871 42.7662 174.911 42.1332 174.911 41.4601C174.911 40.787 174.871 40.1459 174.799 39.569C174.727 38.9921 174.606 38.4872 174.438 38.0625C174.278 37.6539 174.07 37.3253 173.813 37.0929C173.565 36.8926 173.268 36.7804 172.892 36.7804Z" fill="#333333"/>
</g>
<defs>
<clipPath id="clip0_18_72">
<rect width="177.635" height="52.43" fill="white"/>
</clipPath>
</defs>
</svg>
