<svg width="37" height="48" viewBox="0 0 37 48" fill="none" xmlns="http://www.w3.org/2000/svg">
<g clip-path="url(#clip0_970_598)">
<path d="M13.7149 44.1369C10.0662 43.3181 6.41555 42.5006 2.76721 41.6802C1.59937 41.4181 0.917882 40.6018 0.957205 39.5454C1.0088 38.1878 2.18867 37.2388 3.50663 37.5413C3.92267 37.6364 4.05409 37.5511 4.13757 37.1343C4.51467 35.2522 4.9593 33.3903 5.86272 31.672C7.58506 28.3952 10.1179 25.9873 13.4564 24.4322C14.4685 23.9621 14.9675 23.1945 14.8857 22.2224C14.8432 21.7098 14.6075 21.2889 14.2849 20.9042C11.7487 17.8686 10.4718 14.3662 10.4779 10.3886C10.4809 8.68758 10.8579 7.04518 11.2584 5.40977C11.3583 5.00172 11.2881 4.85934 10.8642 4.76928C9.72256 4.52491 9.0396 3.43135 9.26638 2.29378C9.49152 1.17104 10.5577 0.459861 11.7197 0.658167C11.8261 0.676974 11.9334 0.699354 12.0403 0.723341C19.2974 2.35357 26.5562 3.98416 33.8151 5.60636C34.4947 5.75887 35.0833 6.026 35.4291 6.66575C35.8506 7.44573 35.821 8.22745 35.307 8.94945C34.7912 9.67269 34.0626 9.93968 33.1933 9.7885C32.6435 9.69213 32.6402 9.68463 32.5268 10.2197C32.1287 12.0835 31.6949 13.9343 30.7992 15.6409C29.0784 18.918 26.5453 21.3275 23.2067 22.8826C22.1907 23.3552 21.696 24.1187 21.7759 25.0921C21.8183 25.6047 22.0544 26.024 22.3766 26.4103C24.9128 29.4458 26.1877 32.9495 26.1832 36.9275C26.1802 38.6285 25.8033 40.2709 25.4028 41.9063C25.3025 42.316 25.3766 42.4558 25.7973 42.5452C26.9393 42.7879 27.6239 43.8819 27.3955 45.0191C27.1707 46.1402 26.0959 46.89 24.9424 46.6463C22.4678 46.1214 20.0033 45.5514 17.5348 44.9992C16.2617 44.7135 14.987 44.4274 13.7138 44.1417L13.7149 44.1369ZM22.0108 7.28076C19.4629 6.709 16.915 6.13725 14.3656 5.56514C13.8742 5.45487 13.3821 5.34781 12.893 5.23469C12.7319 5.19853 12.6143 5.17721 12.5677 5.39972C12.2602 6.84498 11.8622 8.27501 11.7945 9.76396C11.617 13.6761 12.8079 17.1137 15.3006 20.0972C15.6097 20.4671 15.8616 20.868 16.0109 21.3303C16.5804 23.0787 15.7552 24.7995 13.9674 25.6273C10.893 27.0509 8.57642 29.2794 6.9966 32.2944C6.14621 33.9184 5.77007 35.6842 5.36767 37.4475C5.28291 37.8252 5.33497 37.9516 5.7294 38.0385C11.307 39.2749 16.8803 40.5306 22.4546 41.7816C22.8662 41.8739 23.2815 41.9502 23.6864 42.0647C23.956 42.1404 24.0687 42.0864 24.124 41.7949C24.2517 41.1213 24.4241 40.4577 24.5662 39.7873C25.0201 37.6524 25.0059 35.5204 24.5014 33.4C23.9574 31.112 22.9359 29.063 21.4124 27.2794C20.5919 26.3204 20.2732 25.2394 20.6041 24.0036C20.9059 22.8829 21.6511 22.1605 22.6916 21.6833C25.8001 20.2571 28.125 17.9917 29.7033 14.9459C30.5393 13.334 30.9069 11.5764 31.3016 9.82486C31.3788 9.48091 31.3333 9.36266 30.9704 9.2846C27.9798 8.63207 24.9966 7.95418 22.01 7.28397L22.0108 7.28076ZM22.2808 6.00265C25.9151 6.81822 29.5511 7.63414 33.1854 8.44971C33.3051 8.47656 33.4229 8.51145 33.5442 8.52347C33.9225 8.56278 34.2738 8.31917 34.3869 7.94953C34.4975 7.59113 34.3283 7.18009 33.9846 7.01685C33.8269 6.94265 33.6521 6.90005 33.4798 6.86139C26.2498 5.23724 19.0194 3.61471 11.7887 1.99377C11.6307 1.95833 11.4678 1.93021 11.3069 1.9228C11.0252 1.90855 10.8104 2.04435 10.6565 2.27485C10.3117 2.78832 10.5913 3.37946 11.2549 3.52839C14.9288 4.35451 18.605 5.17778 22.2792 6.0023L22.2808 6.00265ZM14.4121 41.3138C10.7778 40.4982 7.14183 39.6823 3.50749 38.8667C3.4006 38.8427 3.29638 38.8143 3.18805 38.7967C2.76587 38.729 2.38907 38.9669 2.2723 39.3678C2.15928 39.7594 2.36145 40.1728 2.75828 40.3311C2.90885 40.3919 3.07071 40.4248 3.22866 40.4602C10.4192 42.0738 17.6097 43.6874 24.8002 45.301C24.998 45.3454 25.2022 45.3912 25.4032 45.384C25.8482 45.3724 26.1784 44.9688 26.1363 44.5221C26.0975 44.1049 25.8735 43.8858 25.3566 43.7698C21.7079 42.951 18.0608 42.1326 14.4121 41.3138Z" fill="#414141"/>
<path d="M22.0112 7.28087C24.9978 7.95108 27.981 8.62897 30.9716 9.2815C31.3341 9.36116 31.38 9.47781 31.3028 9.82175C30.9081 11.5733 30.5405 13.3309 29.7045 14.9428C28.1262 17.9886 25.8013 20.254 22.6928 21.6801C21.6523 22.1574 20.9067 22.8814 20.6053 24.0005C20.2731 25.2343 20.5935 26.3157 21.4136 27.2763C22.9387 29.0602 23.9583 31.1105 24.5026 33.3969C25.0071 35.5173 25.0213 37.6493 24.5673 39.7842C24.4253 40.4546 24.2545 41.1185 24.1252 41.7918C24.0699 42.0832 23.9572 42.1373 23.6876 42.0616C23.2826 41.9471 22.8658 41.8705 22.4558 41.7784C16.8815 40.5275 11.3082 39.2718 5.73058 38.0353C5.33652 37.9469 5.28251 37.8217 5.36886 37.4443C5.77126 35.6811 6.1474 33.9152 6.99779 32.2913C8.57761 29.2763 10.8942 27.0478 13.9686 25.6242C15.7548 24.796 16.5816 23.0756 16.012 21.3272C15.8612 20.8645 15.6109 20.464 15.3017 20.0941C12.8079 17.1086 11.6186 13.6714 11.7957 9.76086C11.8634 8.2719 12.261 6.84348 12.5689 5.39662C12.6155 5.17411 12.735 5.19417 12.8942 5.23158C13.3845 5.34667 13.877 5.45212 14.3667 5.56203C16.9146 6.13379 19.4625 6.70554 22.0119 7.27765L22.0112 7.28087ZM14.8574 16.2569C15.418 17.5002 16.1798 18.4663 17.2693 19.1598C18.1224 19.7041 18.3994 20.374 18.1799 21.3596C17.874 22.7377 17.5509 24.1102 17.2562 25.4908C16.6664 28.2537 15.0163 30.0881 12.4254 31.0969C11.6984 31.3795 10.9991 31.7104 10.3523 32.151C8.89015 33.1481 7.84879 34.4507 7.41361 36.2032C7.34772 36.467 7.38238 36.5963 7.67629 36.6606C12.5872 37.7542 17.4978 38.8561 22.4051 39.9658C22.6987 40.0317 22.7865 39.9315 22.838 39.6645C23.038 38.6239 23.0121 37.5968 22.7126 36.5792C22.2824 35.1135 21.443 33.9106 20.4099 32.8093C18.5745 30.8545 17.8917 28.5506 18.4915 25.893C18.8153 24.4497 19.1364 23.0041 19.4651 21.5619C19.6673 20.6754 20.2357 20.1665 21.1284 20.0562C21.7264 19.9828 22.3057 19.8359 22.8569 19.5899C23.4863 19.3091 24.066 18.9513 24.6141 18.4429L14.855 16.2529L14.8574 16.2569Z" fill="#F6F6F6"/>
<path d="M22.2813 6.00276C18.6071 5.17825 14.9312 4.35337 11.257 3.52886C10.5917 3.37956 10.3137 2.78879 10.6585 2.27531C10.8144 2.04357 11.0273 1.90902 11.309 1.92327C11.4699 1.93067 11.6328 1.9588 11.7907 1.99424C19.0211 3.61678 26.2519 5.23771 33.4819 6.86185C33.6526 6.90016 33.829 6.94312 33.9866 7.01732C34.3304 7.18055 34.4996 7.5916 34.389 7.94999C34.2759 8.31964 33.9246 8.56325 33.5463 8.52394C33.425 8.51191 33.3071 8.47702 33.1875 8.45017C29.5532 7.63461 25.9172 6.81869 22.2829 6.00312L22.2813 6.00276Z" fill="#F6F6F6"/>
<path d="M14.4126 41.3139C18.0613 42.1327 21.7084 42.9511 25.3571 43.7699C25.874 43.8859 26.098 44.105 26.1367 44.5222C26.1789 44.9689 25.8487 45.3725 25.4037 45.3841C25.2031 45.3897 24.9988 45.3439 24.8006 45.3011C17.6098 43.6891 10.4193 42.0755 3.22914 40.4603C3.0696 40.4245 2.90774 40.3916 2.75876 40.3311C2.36193 40.1729 2.15817 39.7591 2.27278 39.3679C2.38955 38.967 2.76636 38.7291 3.18853 38.7968C3.29527 38.814 3.40108 38.8428 3.50797 38.8668C7.14231 39.6824 10.7782 40.4983 14.4126 41.3139Z" fill="#F6F6F6"/>
<path d="M14.8574 16.2569L24.6166 18.4469C24.0685 18.9552 23.4884 19.3146 22.8594 19.5938C22.3081 19.8398 21.7289 19.9867 21.1309 20.0602C20.2365 20.1701 19.6698 20.6793 19.4675 21.5658C19.1373 23.0076 18.8194 24.454 18.4939 25.8969C17.8942 28.5545 18.5754 30.8581 20.4123 32.8133C21.4459 33.9129 22.2849 35.1175 22.7151 36.5831C23.0134 37.5988 23.0405 38.6279 22.8405 39.6685C22.7886 39.9371 22.7008 40.0372 22.4076 39.9697C17.5003 38.8601 12.5896 37.7581 7.67878 36.6645C7.38522 36.5986 7.3502 36.4709 7.41609 36.2072C7.85127 34.4546 8.89263 33.1521 10.3548 32.155C11.0016 31.7143 11.7009 31.3834 12.4279 31.1009C15.0188 30.092 16.6672 28.2572 17.2587 25.4948C17.5534 24.1142 17.8765 22.7416 18.1824 21.3635C18.4022 20.3763 18.1253 19.7064 17.2717 19.1637C16.1823 18.4702 15.4208 17.5025 14.8599 16.2608L14.8574 16.2569Z" fill="#7DC659"/>
</g>
<defs>
<clipPath id="clip0_970_598">
<rect width="27.0508" height="42" fill="white" transform="translate(9.73608 0.202896) rotate(12.6479)"/>
</clipPath>
</defs>
</svg>
