<svg width="341" height="127" viewBox="0 0 341 127" fill="none" xmlns="http://www.w3.org/2000/svg">
<g clip-path="url(#clip0_970_323)">
<path d="M287.724 60.9199L271.82 68.8714L272.093 65.6528L283.199 53.9053L287.724 60.9199Z" fill="#8F0E24"/>
<path d="M272.864 47.0144L309.251 80.9346C310.963 82.5291 313.743 81.84 314.516 79.6297L340.814 4.32287C341.672 1.86486 339.437 -0.554772 336.924 0.113374L253.635 22.293C251.172 22.949 250.395 26.0664 252.26 27.8074L272.863 47.0144" fill="#F42B4D"/>
<path d="M329.652 10.7949L283.105 56.5516L272.05 68.6863C271.212 69.5289 269.79 68.8102 269.967 67.6361L273.07 47.194L329.652 10.7949Z" fill="#BE1531"/>
<path d="M0.522299 127C0.459623 127 0.396947 126.99 0.336012 126.965C0.0661578 126.862 -0.0678988 126.559 0.0348199 126.288C0.226329 125.786 0.426544 125.28 0.626758 124.783C0.7347 124.514 1.03937 124.387 1.30749 124.493C1.5756 124.601 1.70443 124.907 1.59649 125.175C1.39802 125.665 1.20129 126.166 1.01152 126.662C0.931432 126.869 0.732959 126.998 0.52404 126.998L0.522299 127ZM115.715 126.601C115.705 126.601 115.694 126.601 115.682 126.601C114.967 126.557 114.239 126.482 113.518 126.381C113.233 126.341 113.034 126.075 113.074 125.789C113.114 125.503 113.377 125.304 113.664 125.344C114.357 125.442 115.059 125.514 115.747 125.556C116.034 125.573 116.253 125.822 116.236 126.11C116.218 126.388 115.989 126.602 115.715 126.602V126.601ZM121.037 126.389C120.782 126.389 120.557 126.201 120.52 125.939C120.48 125.653 120.679 125.388 120.964 125.348C121.647 125.252 122.34 125.126 123.024 124.976C123.306 124.915 123.585 125.093 123.645 125.376C123.706 125.658 123.529 125.938 123.247 125.999C122.536 126.154 121.817 126.285 121.107 126.384C121.083 126.388 121.058 126.389 121.034 126.389H121.037ZM108.401 125.167C108.347 125.167 108.293 125.158 108.239 125.14C107.564 124.919 106.878 124.669 106.202 124.401C105.934 124.294 105.804 123.989 105.91 123.72C106.016 123.452 106.319 123.321 106.589 123.427C107.245 123.689 107.91 123.93 108.565 124.144C108.838 124.235 108.988 124.53 108.899 124.804C108.828 125.023 108.622 125.165 108.403 125.165L108.401 125.167ZM128.223 124.406C128.017 124.406 127.822 124.284 127.74 124.081C127.631 123.815 127.758 123.508 128.024 123.398C128.663 123.134 129.309 122.843 129.941 122.534C130.2 122.408 130.514 122.515 130.639 122.775C130.766 123.035 130.658 123.349 130.399 123.474C129.748 123.794 129.083 124.094 128.421 124.366C128.357 124.392 128.289 124.406 128.223 124.406ZM101.585 122.129C101.498 122.129 101.411 122.108 101.331 122.063C100.713 121.718 100.088 121.348 99.4717 120.964C99.2263 120.812 99.1514 120.49 99.3029 120.244C99.4543 119.998 99.7764 119.923 100.022 120.074C100.624 120.449 101.237 120.811 101.841 121.149C102.094 121.29 102.182 121.609 102.041 121.861C101.946 122.032 101.768 122.129 101.585 122.129ZM160.692 121.215C160.405 121.215 160.17 120.981 160.17 120.692C160.17 120.402 160.403 120.169 160.692 120.169C161.389 120.169 162.099 120.151 162.804 120.121C163.089 120.109 163.335 120.333 163.347 120.622C163.359 120.912 163.136 121.156 162.847 121.168C162.127 121.2 161.402 121.215 160.692 121.217V121.215ZM155.365 120.929C155.346 120.929 155.326 120.929 155.307 120.926C154.884 120.879 154.454 120.824 154.031 120.765C153.742 120.725 153.453 120.681 153.166 120.634C152.88 120.589 152.687 120.319 152.734 120.034C152.779 119.748 153.047 119.554 153.333 119.602C153.613 119.647 153.894 119.689 154.176 119.729C154.59 119.786 155.008 119.841 155.422 119.886C155.709 119.917 155.915 120.177 155.883 120.463C155.854 120.73 155.628 120.929 155.365 120.929ZM134.776 120.835C134.609 120.835 134.445 120.755 134.344 120.606C134.182 120.367 134.243 120.041 134.481 119.879C135.054 119.486 135.629 119.071 136.189 118.642C136.419 118.466 136.746 118.51 136.922 118.74C137.098 118.97 137.055 119.298 136.825 119.474C136.25 119.914 135.66 120.341 135.072 120.744C134.981 120.805 134.878 120.835 134.777 120.835H134.776ZM168.138 120.685C167.881 120.685 167.658 120.495 167.621 120.233C167.583 119.947 167.783 119.684 168.069 119.643C168.756 119.549 169.46 119.441 170.161 119.322C170.447 119.275 170.715 119.465 170.764 119.752C170.813 120.036 170.621 120.306 170.337 120.355C169.623 120.477 168.908 120.587 168.21 120.681C168.185 120.685 168.163 120.687 168.138 120.687V120.685ZM3.26785 120.617C3.19124 120.617 3.11464 120.599 3.04152 120.565C2.78211 120.439 2.67243 120.127 2.79778 119.865C3.10942 119.218 3.43324 118.571 3.75881 117.939C3.89112 117.683 4.20624 117.581 4.46217 117.716C4.7181 117.848 4.81907 118.164 4.68502 118.421C4.36293 119.043 4.04433 119.682 3.73792 120.32C3.64738 120.507 3.4611 120.617 3.26785 120.617ZM148.049 119.453C148 119.453 147.95 119.446 147.901 119.432C147.215 119.228 146.522 119.005 145.845 118.766C145.573 118.67 145.429 118.372 145.525 118.1C145.62 117.827 145.918 117.683 146.19 117.779C146.851 118.011 147.527 118.23 148.197 118.428C148.474 118.509 148.632 118.801 148.55 119.078C148.483 119.305 148.275 119.453 148.049 119.453ZM175.473 119.27C175.238 119.27 175.024 119.11 174.967 118.871C174.899 118.59 175.069 118.307 175.35 118.237C176.02 118.073 176.711 117.895 177.404 117.707C177.682 117.632 177.97 117.796 178.045 118.075C178.119 118.354 177.956 118.642 177.677 118.717C176.976 118.907 176.276 119.089 175.597 119.254C175.555 119.265 175.513 119.27 175.473 119.27ZM95.3543 118.007C95.2446 118.007 95.1332 117.972 95.0392 117.901C94.4803 117.477 93.911 117.028 93.3452 116.57C93.1206 116.388 93.0858 116.058 93.2669 115.833C93.4479 115.608 93.777 115.573 94.0015 115.755C94.5587 116.207 95.1193 116.646 95.6694 117.065C95.8992 117.24 95.9445 117.567 95.7704 117.798C95.6677 117.934 95.511 118.005 95.3543 118.005V118.007ZM182.653 117.199C182.434 117.199 182.228 117.06 182.157 116.838C182.068 116.563 182.216 116.268 182.491 116.179C183.146 115.964 183.823 115.736 184.505 115.498C184.779 115.404 185.076 115.549 185.17 115.821C185.264 116.093 185.12 116.392 184.848 116.488C184.161 116.727 183.476 116.957 182.817 117.173C182.763 117.191 182.709 117.199 182.655 117.199H182.653ZM141.101 116.72C141.022 116.72 140.944 116.702 140.869 116.666C140.227 116.346 139.583 116.008 138.958 115.657C138.705 115.516 138.615 115.198 138.756 114.945C138.897 114.693 139.213 114.602 139.466 114.743C139.706 114.877 139.95 115.01 140.194 115.141C140.679 114.658 141.16 114.159 141.623 113.653C141.818 113.44 142.149 113.426 142.361 113.621C142.574 113.817 142.587 114.148 142.393 114.361C141.996 114.795 141.585 115.226 141.169 115.645C141.223 115.673 141.278 115.699 141.332 115.727C141.592 115.856 141.696 116.17 141.569 116.428C141.478 116.613 141.292 116.72 141.101 116.72ZM189.687 114.673C189.476 114.673 189.279 114.546 189.199 114.338C189.095 114.068 189.229 113.766 189.499 113.662C190.162 113.405 190.823 113.145 191.482 112.883C191.75 112.775 192.053 112.908 192.161 113.177C192.267 113.445 192.136 113.749 191.868 113.857C191.207 114.12 190.541 114.382 189.875 114.64C189.814 114.665 189.749 114.675 189.687 114.675V114.673ZM6.85256 114.054C6.75854 114.054 6.66453 114.03 6.57748 113.976C6.332 113.824 6.25714 113.501 6.4086 113.255C6.78814 112.641 7.17812 112.032 7.57159 111.443C7.73176 111.202 8.05558 111.137 8.29584 111.298C8.5361 111.458 8.60052 111.783 8.44034 112.023C8.05384 112.604 7.66908 113.204 7.29651 113.808C7.19727 113.969 7.02666 114.056 6.85256 114.056V114.054ZM89.6369 113.187C89.5115 113.187 89.3844 113.142 89.2852 113.049C88.7838 112.59 88.2702 112.112 87.7148 111.591C87.5042 111.394 87.4937 111.062 87.6922 110.851C87.8889 110.64 88.2197 110.63 88.4304 110.828C88.9823 111.348 89.4924 111.821 89.9903 112.278C90.2027 112.474 90.2184 112.803 90.0234 113.018C89.9207 113.131 89.7796 113.189 89.6369 113.189V113.187ZM134.718 112.843C134.612 112.843 134.504 112.81 134.41 112.742C133.83 112.318 133.254 111.875 132.697 111.423C132.472 111.242 132.437 110.912 132.619 110.687C132.8 110.462 133.129 110.427 133.353 110.609C133.898 111.05 134.461 111.483 135.026 111.896C135.26 112.067 135.31 112.393 135.141 112.627C135.039 112.768 134.88 112.842 134.718 112.842V112.843ZM196.614 111.866C196.41 111.866 196.215 111.746 196.132 111.545C196.02 111.279 196.146 110.971 196.412 110.86C197.067 110.584 197.721 110.309 198.376 110.029C198.642 109.916 198.949 110.04 199.062 110.305C199.175 110.57 199.051 110.879 198.787 110.992C198.132 111.273 197.474 111.551 196.818 111.826C196.752 111.854 196.684 111.866 196.616 111.866H196.614ZM145.377 110.389C145.27 110.389 145.164 110.357 145.07 110.289C144.837 110.12 144.785 109.792 144.954 109.558C145.363 108.993 145.765 108.407 146.151 107.817C146.31 107.577 146.634 107.509 146.874 107.667C147.114 107.826 147.182 108.151 147.024 108.391C146.628 108.995 146.216 109.593 145.798 110.173C145.695 110.314 145.537 110.389 145.375 110.389H145.377ZM203.474 108.899C203.273 108.899 203.082 108.784 202.997 108.589C202.88 108.325 202.997 108.015 203.261 107.898C203.911 107.608 204.558 107.317 205.206 107.024C205.469 106.905 205.779 107.022 205.897 107.285C206.015 107.549 205.899 107.859 205.636 107.978C204.986 108.273 204.337 108.564 203.684 108.854C203.615 108.885 203.543 108.899 203.472 108.899H203.474ZM84.2154 108.037C84.0848 108.037 83.9543 107.988 83.8533 107.891C83.3414 107.395 82.8296 106.902 82.316 106.408C82.1071 106.207 82.1001 105.876 82.3003 105.668C82.5005 105.459 82.8313 105.454 83.0385 105.652C83.5521 106.146 84.0657 106.642 84.5775 107.137C84.7847 107.338 84.7917 107.669 84.5915 107.877C84.4888 107.983 84.353 108.037 84.2154 108.037ZM11.1528 107.941C11.0379 107.941 10.923 107.903 10.8255 107.826C10.6009 107.645 10.5644 107.315 10.7454 107.09C11.1946 106.53 11.6594 105.972 12.126 105.433C12.3158 105.215 12.6448 105.19 12.8625 105.38C13.0801 105.569 13.1045 105.9 12.9147 106.118C12.4568 106.647 12.0007 107.195 11.5602 107.744C11.4575 107.873 11.306 107.94 11.1528 107.94V107.941ZM129.093 107.927C128.956 107.927 128.82 107.873 128.717 107.767C128.217 107.247 127.728 106.708 127.26 106.167C127.072 105.949 127.094 105.618 127.312 105.429C127.53 105.241 127.86 105.263 128.048 105.482C128.505 106.01 128.983 106.535 129.469 107.041C129.669 107.249 129.662 107.58 129.455 107.781C129.354 107.878 129.224 107.927 129.093 107.927ZM210.267 105.783C210.07 105.783 209.884 105.672 209.793 105.483C209.67 105.222 209.783 104.909 210.044 104.787C210.687 104.484 211.329 104.178 211.97 103.871C212.231 103.746 212.542 103.857 212.666 104.117C212.79 104.377 212.68 104.691 212.421 104.815C211.778 105.124 211.134 105.429 210.49 105.734C210.418 105.768 210.342 105.785 210.267 105.785V105.783ZM149.261 104.004C149.181 104.004 149.101 103.986 149.024 103.946C148.766 103.816 148.664 103.502 148.794 103.243C149.111 102.617 149.419 101.977 149.708 101.337C149.827 101.073 150.136 100.956 150.399 101.077C150.662 101.195 150.779 101.506 150.659 101.769C150.363 102.423 150.048 103.079 149.724 103.718C149.632 103.899 149.449 104.004 149.257 104.004H149.261ZM78.78 102.898C78.6547 102.898 78.5293 102.853 78.4301 102.762C77.8886 102.27 77.3541 101.795 76.8406 101.349C76.6229 101.159 76.6003 100.829 76.7883 100.611C76.9781 100.393 77.3072 100.37 77.5248 100.559C78.0418 101.009 78.5833 101.488 79.13 101.986C79.3441 102.179 79.3598 102.511 79.1665 102.725C79.0638 102.839 78.9211 102.898 78.7783 102.898H78.78ZM216.992 102.519C216.801 102.519 216.616 102.413 216.524 102.23C216.395 101.972 216.501 101.658 216.759 101.528C217.395 101.211 218.03 100.892 218.664 100.571C218.921 100.44 219.235 100.543 219.365 100.801C219.496 101.059 219.391 101.373 219.136 101.504C218.5 101.827 217.863 102.146 217.224 102.465C217.149 102.502 217.069 102.521 216.992 102.521V102.519ZM16.2104 102.443C16.0711 102.443 15.9318 102.387 15.8291 102.279C15.6307 102.068 15.6411 101.736 15.8518 101.539C16.3758 101.045 16.9138 100.559 17.4535 100.093C17.6711 99.9044 18.0019 99.9288 18.1899 100.147C18.3779 100.365 18.3536 100.696 18.1359 100.885C17.6084 101.34 17.0809 101.818 16.5673 102.301C16.4663 102.396 16.3375 102.443 16.2087 102.443H16.2104ZM124.439 102.083C124.269 102.083 124.102 102 124.002 101.846C123.607 101.241 123.226 100.62 122.869 99.9985C122.724 99.7473 122.81 99.4281 123.061 99.2833C123.309 99.1385 123.63 99.2257 123.774 99.4752C124.123 100.079 124.493 100.684 124.876 101.272C125.035 101.515 124.967 101.839 124.725 101.996C124.636 102.054 124.537 102.081 124.439 102.081V102.083ZM223.643 99.1106C223.455 99.1106 223.274 99.0094 223.18 98.8297C223.046 98.5733 223.143 98.2575 223.399 98.1232C224.028 97.7917 224.656 97.4586 225.283 97.1236C225.539 96.9875 225.854 97.0852 225.99 97.3399C226.126 97.5946 226.03 97.9121 225.774 98.0482C225.145 98.3849 224.515 98.7181 223.885 99.0495C223.808 99.0897 223.725 99.1089 223.643 99.1089V99.1106ZM73.0417 98.1093C72.932 98.1093 72.8223 98.0744 72.7283 98.0046C72.1555 97.5737 71.5775 97.1568 71.0134 96.7642C70.7767 96.6003 70.7175 96.274 70.8829 96.0368C71.0465 95.7995 71.3721 95.7402 71.6089 95.9059C72.1834 96.3054 72.7701 96.7311 73.3551 97.169C73.5866 97.3417 73.6319 97.6714 73.4595 97.9017C73.3568 98.0395 73.2001 98.111 73.0417 98.111V98.1093ZM22.0184 97.7481C21.8512 97.7481 21.6876 97.6679 21.5866 97.5214C21.4229 97.2824 21.4839 96.9579 21.7224 96.7939C22.3161 96.3874 22.9237 95.9897 23.5295 95.6129C23.775 95.4611 24.0971 95.5361 24.2486 95.7821C24.4 96.0281 24.3252 96.3508 24.0797 96.5026C23.4878 96.8707 22.8923 97.2579 22.3126 97.6574C22.2221 97.7202 22.1193 97.7499 22.0184 97.7499V97.7481ZM152.123 97.094C152.069 97.094 152.013 97.0852 151.959 97.0678C151.686 96.9771 151.536 96.6823 151.627 96.4066C151.846 95.7402 152.053 95.0599 152.243 94.383C152.321 94.1056 152.609 93.9434 152.887 94.0219C153.164 94.1004 153.326 94.39 153.248 94.6673C153.053 95.3582 152.842 96.0542 152.617 96.7346C152.544 96.9544 152.341 97.094 152.121 97.094H152.123ZM230.22 95.557C230.036 95.557 229.858 95.4594 229.763 95.2866C229.623 95.0337 229.714 94.7144 229.966 94.5749C230.588 94.2295 231.208 93.8841 231.827 93.5352C232.078 93.3921 232.397 93.4828 232.538 93.7358C232.679 93.9887 232.59 94.3062 232.338 94.4475C231.716 94.7964 231.094 95.1453 230.471 95.4908C230.391 95.5344 230.304 95.557 230.219 95.557H230.22ZM120.992 95.4541C120.785 95.4541 120.588 95.3303 120.506 95.1244C120.238 94.4545 119.988 93.7707 119.76 93.0886C119.667 92.8147 119.815 92.5181 120.089 92.4257C120.364 92.3332 120.658 92.4815 120.75 92.7554C120.973 93.4183 121.217 94.0847 121.478 94.7354C121.586 95.004 121.455 95.3093 121.187 95.4157C121.123 95.4419 121.058 95.4541 120.994 95.4541H120.992ZM66.7323 94.1196C66.654 94.1196 66.5757 94.1021 66.5008 94.0655C65.881 93.7585 65.2368 93.4619 64.5874 93.1863C64.3211 93.0729 64.1975 92.7658 64.3106 92.5007C64.4238 92.2355 64.7302 92.1099 64.9948 92.2233C65.6634 92.5077 66.325 92.8112 66.9621 93.1287C67.2216 93.256 67.326 93.57 67.1989 93.83C67.1084 94.0149 66.9221 94.1213 66.7306 94.1213L66.7323 94.1196ZM28.4966 94.0393C28.2999 94.0393 28.1118 93.9277 28.0231 93.7375C27.9012 93.4758 28.0144 93.1636 28.2755 93.0415C28.9249 92.7379 29.59 92.4466 30.2533 92.1744C30.5196 92.0645 30.8261 92.1936 30.934 92.4605C31.0419 92.7275 30.9148 93.0345 30.6485 93.1426C30.0008 93.4078 29.3514 93.6939 28.716 93.9905C28.6446 94.0236 28.5697 94.0393 28.4949 94.0393H28.4966ZM236.718 91.8604C236.539 91.8604 236.363 91.768 236.267 91.6005C236.122 91.351 236.206 91.03 236.455 90.8853C237.07 90.5276 237.682 90.1665 238.293 89.8054C238.542 89.6589 238.863 89.7409 239.009 89.9903C239.155 90.2398 239.073 90.5608 238.824 90.7073C238.212 91.0702 237.597 91.4313 236.981 91.7907C236.897 91.8395 236.807 91.8622 236.718 91.8622V91.8604ZM59.7562 91.4697C59.7092 91.4697 59.6622 91.4627 59.6152 91.4505C58.9431 91.2638 58.2554 91.0894 57.5695 90.9341C57.2874 90.8696 57.1116 90.5904 57.176 90.3078C57.2404 90.0252 57.519 89.849 57.801 89.9136C58.5027 90.0723 59.2078 90.2503 59.8955 90.4422C60.174 90.5189 60.3359 90.8085 60.2593 91.0859C60.1949 91.3179 59.9842 91.4697 59.7562 91.4697ZM35.4971 91.4557C35.2673 91.4557 35.0584 91.3039 34.994 91.0719C34.9174 90.7928 35.0811 90.505 35.3579 90.4282C36.0473 90.238 36.7507 90.0601 37.4523 89.9031C37.7326 89.8403 38.0129 90.0165 38.0773 90.2991C38.14 90.5817 37.9641 90.8608 37.6821 90.9254C36.9979 91.0806 36.3085 91.2534 35.6364 91.4383C35.5894 91.4505 35.5424 91.4575 35.4971 91.4575V91.4557ZM52.4214 90.0793C52.4022 90.0793 52.3848 90.0793 52.3656 90.0758C51.6693 90.0025 50.9624 89.945 50.2625 89.9031C49.9753 89.8857 49.7542 89.6379 49.7716 89.3501C49.789 89.0622 50.0362 88.8442 50.3235 88.8581C51.039 88.9 51.7633 88.9593 52.4753 89.0343C52.7626 89.064 52.9698 89.3222 52.9402 89.61C52.9123 89.8787 52.686 90.0793 52.4214 90.0793ZM42.8302 90.0723C42.5656 90.0723 42.3393 89.8717 42.3114 89.603C42.2818 89.3152 42.4907 89.0588 42.7762 89.0291C43.4901 88.9541 44.2126 88.8965 44.9281 88.8547C45.2154 88.8407 45.4626 89.0588 45.48 89.3466C45.4974 89.6344 45.2763 89.8822 44.9891 89.8996C44.2909 89.9397 43.5823 89.9973 42.8859 90.0688C42.8668 90.0706 42.8494 90.0723 42.832 90.0723H42.8302ZM153.916 89.8333C153.887 89.8333 153.859 89.8316 153.829 89.8263C153.545 89.7775 153.354 89.5071 153.401 89.2227C153.517 88.5302 153.622 87.8271 153.709 87.1293C153.746 86.8432 154.007 86.6409 154.292 86.6758C154.578 86.7124 154.781 86.9741 154.745 87.2602C154.656 87.9719 154.55 88.6924 154.43 89.3989C154.386 89.6536 154.165 89.8351 153.916 89.8351V89.8333ZM118.905 88.2772C118.659 88.2772 118.44 88.1028 118.393 87.8516C118.259 87.145 118.142 86.4246 118.046 85.7128C118.008 85.4267 118.208 85.1633 118.494 85.1249C118.781 85.0883 119.042 85.2871 119.081 85.5732C119.173 86.2676 119.286 86.9688 119.417 87.6562C119.471 87.9405 119.284 88.2144 119.001 88.2685C118.967 88.2755 118.934 88.2772 118.903 88.2772H118.905ZM243.132 88.0208C242.956 88.0208 242.783 87.9318 242.686 87.7713C242.535 87.5253 242.613 87.2026 242.858 87.0526C243.464 86.681 244.068 86.3077 244.672 85.9326C244.918 85.7808 245.24 85.8558 245.391 86.1018C245.543 86.3478 245.468 86.6705 245.223 86.8223C244.617 87.1991 244.011 87.5742 243.403 87.9458C243.318 87.9981 243.224 88.0225 243.132 88.0225V88.0208ZM249.462 84.0433C249.29 84.0433 249.122 83.9578 249.021 83.8026C248.865 83.5601 248.936 83.2356 249.178 83.0786C249.775 82.6931 250.372 82.3075 250.968 81.9185C251.21 81.7615 251.534 81.8295 251.69 82.072C251.847 82.3145 251.779 82.639 251.537 82.796C250.94 83.185 250.341 83.574 249.742 83.9596C249.655 84.0154 249.558 84.0433 249.46 84.0433H249.462ZM154.606 82.386C154.606 82.386 154.599 82.386 154.597 82.386C154.308 82.3808 154.078 82.1435 154.083 81.854C154.089 81.5801 154.09 81.3044 154.09 81.0305C154.09 80.6014 154.085 80.167 154.073 79.7379C154.066 79.4483 154.292 79.2075 154.581 79.2006C154.874 79.1883 155.109 79.4204 155.117 79.71C155.13 80.1478 155.135 80.5909 155.135 81.0305C155.135 81.3114 155.133 81.5923 155.128 81.8731C155.123 82.1592 154.889 82.3878 154.606 82.3878V82.386ZM118.21 80.8334C117.921 80.8334 117.688 80.5996 117.688 80.3101C117.688 79.5913 117.707 78.8621 117.745 78.1434C117.761 77.8538 118.012 77.634 118.295 77.648C118.583 77.6637 118.804 77.9096 118.79 78.1992C118.753 78.8988 118.734 79.6088 118.734 80.3101C118.734 80.5996 118.501 80.8334 118.212 80.8334H118.21ZM255.702 79.9245C255.535 79.9245 255.369 79.8443 255.268 79.6943C255.106 79.4553 255.171 79.129 255.409 78.9668C255.998 78.569 256.586 78.1696 257.173 77.7666C257.411 77.6043 257.737 77.6654 257.899 77.9026C258.062 78.1416 258 78.4661 257.763 78.6301C257.175 79.0331 256.586 79.4343 255.994 79.8338C255.905 79.8949 255.803 79.9228 255.703 79.9228L255.702 79.9245ZM261.849 75.6697C261.685 75.6697 261.524 75.5929 261.423 75.4481C261.255 75.2126 261.311 74.8847 261.548 74.7189C262.128 74.3072 262.707 73.8955 263.284 73.4803C263.519 73.3129 263.844 73.3652 264.013 73.6007C264.182 73.8362 264.128 74.1624 263.893 74.3316C263.313 74.7468 262.734 75.162 262.152 75.5737C262.06 75.6383 261.955 75.6697 261.851 75.6697H261.849ZM154.158 74.9195C153.902 74.9195 153.678 74.7294 153.641 74.4677C153.544 73.7699 153.43 73.0669 153.305 72.3795C153.253 72.0952 153.441 71.823 153.725 71.769C154.007 71.7166 154.28 71.9033 154.334 72.1894C154.463 72.8924 154.579 73.6094 154.679 74.3247C154.719 74.6108 154.519 74.8759 154.233 74.9143C154.209 74.9178 154.184 74.9195 154.16 74.9195H154.158ZM118.908 73.3896C118.875 73.3896 118.844 73.3861 118.811 73.3809C118.527 73.3268 118.341 73.0529 118.395 72.7686C118.529 72.0603 118.684 71.3485 118.854 70.6507C118.924 70.3699 119.206 70.1972 119.486 70.2669C119.767 70.3367 119.937 70.6193 119.869 70.9002C119.702 71.5788 119.552 72.2731 119.422 72.9622C119.375 73.2134 119.155 73.3879 118.91 73.3879L118.908 73.3896ZM152.549 67.6153C152.327 67.6153 152.119 67.4705 152.05 67.2455C151.843 66.5721 151.618 65.897 151.383 65.2393C151.286 64.9671 151.427 64.6671 151.698 64.5694C151.97 64.4717 152.269 64.613 152.367 64.8851C152.609 65.5568 152.838 66.2476 153.049 66.9384C153.134 67.2141 152.979 67.5071 152.703 67.5926C152.652 67.6083 152.6 67.6153 152.549 67.6153ZM120.987 66.211C120.923 66.211 120.856 66.1988 120.794 66.1743C120.526 66.0679 120.395 65.7626 120.501 65.494C120.768 64.8241 121.055 64.1542 121.358 63.5035C121.48 63.2418 121.79 63.1284 122.052 63.2488C122.314 63.3709 122.427 63.6814 122.307 63.9449C122.012 64.5781 121.732 65.2306 121.473 65.8813C121.391 66.0854 121.194 66.211 120.987 66.211ZM149.736 60.6914C149.55 60.6914 149.37 60.5919 149.276 60.4175C148.939 59.7912 148.58 59.1824 148.211 58.6119C148.054 58.3694 148.122 58.0449 148.364 57.8879C148.606 57.7309 148.93 57.799 149.087 58.0415C149.471 58.6363 149.844 59.2678 150.196 59.9185C150.333 60.1732 150.237 60.4907 149.985 60.6286C149.907 60.6722 149.821 60.6914 149.738 60.6914H149.736ZM124.448 59.5923C124.345 59.5923 124.243 59.5627 124.15 59.4999C123.914 59.3359 123.854 59.0097 124.018 58.7724C124.434 58.1705 124.876 57.5844 125.331 57.0314C125.514 56.8081 125.843 56.7767 126.065 56.9599C126.288 57.143 126.32 57.4727 126.137 57.696C125.7 58.2264 125.275 58.7898 124.876 59.3673C124.775 59.5138 124.612 59.5923 124.446 59.5923H124.448ZM145.223 54.7688C145.1 54.7688 144.976 54.7251 144.875 54.6362C144.349 54.1669 143.803 53.743 143.249 53.3766C143.009 53.2179 142.941 52.8934 143.101 52.6509C143.26 52.4102 143.583 52.3422 143.825 52.5026C144.421 52.8969 145.009 53.3522 145.573 53.8564C145.789 54.0483 145.807 54.3797 145.615 54.5961C145.512 54.7112 145.37 54.7705 145.225 54.7705L145.223 54.7688ZM129.591 54.2035C129.429 54.2035 129.271 54.1285 129.168 53.9872C128.999 53.7535 129.05 53.4255 129.285 53.2563C129.894 52.8132 130.519 52.4172 131.146 52.077C131.4 51.9392 131.717 52.0334 131.854 52.2881C131.992 52.5428 131.898 52.8603 131.644 52.9981C131.057 53.3156 130.47 53.6889 129.899 54.1041C129.807 54.1721 129.699 54.2035 129.593 54.2035H129.591ZM138.592 51.5868C138.569 51.5868 138.548 51.5868 138.526 51.5833C138.475 51.5763 138.427 51.5711 138.376 51.5658C137.753 51.4961 137.121 51.4821 136.497 51.5257C136.208 51.5432 135.961 51.3286 135.94 51.039C135.921 50.7512 136.137 50.5017 136.426 50.4808C137.112 50.4337 137.808 50.4476 138.493 50.5244C138.548 50.5314 138.602 50.5366 138.658 50.5436C138.944 50.5802 139.147 50.8419 139.111 51.128C139.078 51.3931 138.853 51.585 138.594 51.585L138.592 51.5868Z" fill="#C9C9C9"/>
</g>
<defs>
<clipPath id="clip0_970_323">
<rect width="341" height="127" fill="white"/>
</clipPath>
</defs>
</svg>
