<svg width="58" height="42" viewBox="0 0 58 42" fill="none" xmlns="http://www.w3.org/2000/svg">
<g clip-path="url(#clip0_1047_2617)">
<path d="M0.00601771 41.8955C0.0397802 41.9297 0.0715567 41.9618 0.105319 41.996C0.0199199 42.0161 -0.0138426 41.9819 0.00601771 41.8955Z" fill="#F3FAFD"/>
<path d="M19.163 0.775625C19.6456 0.775625 20.1282 0.775625 20.6128 0.775625C20.8392 1.41059 20.9703 1.50302 21.6733 1.50302C28.3782 1.50302 35.085 1.50302 41.7898 1.50302C43.4045 1.50302 44.3022 2.41126 44.3022 4.04488C44.3022 6.73343 44.3101 9.42197 44.2962 12.1105C44.2942 12.639 44.4749 12.9766 44.9973 13.0951C44.9973 13.5854 44.9973 14.0757 44.9973 14.566C44.4412 14.6886 44.2962 15.0603 44.2962 15.5988C44.3081 20.7408 44.3022 25.8848 44.3022 31.0268C44.3022 31.497 44.2823 31.9612 44.0043 32.3691C40.8365 32.2545 37.6668 32.2766 34.4971 32.2766C26.8807 32.2766 19.2643 32.2606 11.6479 32.2967C10.6787 32.3007 9.99152 31.6316 9.98953 30.6068C9.97563 21.006 10.1166 11.4032 9.91406 1.80242C10.2795 1.52713 10.7045 1.50101 11.1355 1.50101C13.4949 1.50101 15.8543 1.49498 18.2117 1.50503C18.736 1.50704 19.0637 1.3061 19.161 0.771606L19.163 0.775625ZM28.9998 12.7214C28.694 12.418 28.3166 12.2251 27.9512 12.0101C28.1399 11.3912 28.0723 11.1782 27.546 10.8346C25.7566 9.66913 23.9652 8.50771 22.1738 7.34428C21.4191 6.85399 20.6327 6.77161 19.8323 7.21166C19.014 7.66176 18.6506 8.38915 18.6506 9.31548C18.6506 14.795 18.6506 20.2726 18.6506 25.7522C18.6506 26.6785 19.0001 27.4119 19.8144 27.866C20.6307 28.3222 21.4271 28.2318 22.1996 27.7294C26.418 24.9866 30.6442 22.2539 34.8546 19.501C36.358 18.5184 36.36 16.5914 34.8705 15.6008C33.3254 14.574 31.7644 13.5754 30.2073 12.5687C29.683 12.2291 29.4407 12.2673 28.9998 12.7254V12.7214Z" fill="#FE7F85"/>
<path d="M44.0045 32.3711C44.2845 31.9652 44.3024 31.499 44.3024 31.0288C44.3024 25.8868 44.3063 20.7428 44.2964 15.6008C44.2964 15.0623 44.4414 14.6885 44.9975 14.568C45.641 14.7287 45.7899 14.9196 45.7919 15.6149C45.7998 17.9257 45.8058 20.2384 45.8137 22.5492C45.7383 23.8084 46.1917 24.7656 47.1742 25.4206C49.8513 27.1949 52.5305 28.9632 55.2057 30.7395C55.4996 30.9344 55.7856 31.061 56.1232 30.866C56.4549 30.6752 56.5244 30.3657 56.5125 30.01C56.4986 29.5258 56.4986 29.0435 56.4926 28.5593C56.4986 28.4086 56.5105 28.2599 56.5105 28.1092C56.5105 20.4635 56.5105 12.8158 56.5145 5.17013C56.5145 4.79036 56.5026 4.43269 56.1232 4.21568C55.7359 3.99465 55.4341 4.19357 55.1223 4.40054C52.4471 6.17884 49.7997 8.00134 47.0788 9.70329C46.1216 10.3021 45.5993 10.919 45.776 12.0985C45.8713 12.7314 45.631 12.9404 44.9995 13.0991C44.4771 12.9806 44.2964 12.645 44.2984 12.1145C44.3123 9.42599 44.3063 6.73745 44.3044 4.0489C44.3044 2.41528 43.4047 1.50704 41.792 1.50704C35.0872 1.50704 28.3804 1.50704 21.6755 1.50704C20.9745 1.50704 20.8414 1.41461 20.615 0.779644C20.7977 0.128606 20.9566 0.00201499 21.6259 0.00201499C28.3983 0.00201499 35.1726 -0.00200376 41.945 0.00201499C44.1733 0.00201499 45.772 1.6276 45.7879 3.89217C45.7979 5.49163 45.7899 7.0911 45.7899 8.77495C46.1474 8.54388 46.4473 8.35299 46.7432 8.15607C49.2814 6.47422 51.8215 4.79639 54.3517 3.10449C55.1461 2.57201 55.9564 2.41528 56.8163 2.88748C57.6743 3.35767 58.002 4.12124 58 5.08775C57.9921 13.3885 57.9921 21.6892 58 29.99C58 30.9565 57.6723 31.72 56.8144 32.1902C55.9544 32.6624 55.1441 32.5037 54.3497 31.9732C51.6229 30.1567 48.8861 28.3583 46.1534 26.5519C46.06 26.4896 45.9667 26.4273 45.8674 26.361C45.7303 26.5017 45.7939 26.6584 45.7939 26.795C45.7879 28.2318 45.7939 29.6685 45.7899 31.1031C45.782 33.4642 44.1991 35.0757 41.8774 35.0777C31.6355 35.0797 21.3935 35.0797 11.1516 35.0777C8.82395 35.0777 7.24307 33.4682 7.24307 31.1072C7.24307 22.0549 7.24108 13.0027 7.24307 3.95044C7.24307 1.61755 8.82395 0.00804313 11.1218 0.00402437C13.4832 -0.00200376 15.8465 0.00201499 18.2079 0.00402437C18.8256 0.00402437 19.0222 0.168793 19.1632 0.777634C19.0659 1.31213 18.7382 1.51307 18.2139 1.51106C15.8545 1.50101 13.4951 1.50704 11.1377 1.50704C10.7067 1.50704 10.2817 1.53316 9.91627 1.80844C9.02851 2.26055 8.72663 3.03216 8.72663 3.98862C8.73061 12.9705 8.72862 21.9524 8.72862 30.9344C8.72862 32.7187 9.57467 33.5787 11.3323 33.5787C21.4551 33.5787 31.5759 33.5787 41.6987 33.5787C41.8635 33.5787 42.0304 33.5908 42.1932 33.5727C42.9956 33.4843 43.6371 33.1386 44.0025 32.3751L44.0045 32.3711Z" fill="#010101"/>
<path d="M45.8119 22.5512C45.8059 20.2405 45.798 17.9277 45.79 15.6169C45.788 14.9216 45.6411 14.7307 44.9956 14.57C44.9956 14.0797 44.9956 13.5894 44.9956 13.0991C45.6272 12.9424 45.8675 12.7314 45.7721 12.0985C45.5934 10.921 46.1177 10.3041 47.075 9.70328C49.7958 7.99933 52.4432 6.17883 55.1184 4.40053C55.4302 4.19357 55.7321 3.99464 56.1194 4.21567C56.4987 4.43268 56.5106 4.79035 56.5106 5.17012C56.5066 12.8158 56.5086 20.4635 56.5066 28.1092C56.5066 28.2599 56.4947 28.4086 56.4888 28.5593C55.8989 28.7321 55.3488 28.7441 54.7947 28.3684C53.6746 27.6048 52.5266 26.8875 51.3886 26.152C49.5297 24.9504 47.6688 23.7508 45.8079 22.5512H45.8119Z" fill="#FE7F85"/>
<path d="M27.9511 12.008C28.3146 12.223 28.6939 12.418 28.9998 12.7214C28.8071 13.2297 28.9918 13.5693 29.4307 13.8506C30.9183 14.8011 32.3959 15.7716 33.8755 16.7361C34.6997 17.2726 34.6957 17.8111 33.8635 18.3516C31.387 19.9632 28.9104 21.5767 26.4298 23.1842C24.9344 24.1527 23.4329 25.1072 21.9335 26.0697C21.5263 25.929 21.4111 25.6256 21.4111 25.2117C21.4171 19.8748 21.4151 14.5378 21.4171 9.19893C21.4171 9.03818 21.3655 8.86135 21.5045 8.72472C23.2442 9.84595 24.99 10.9591 26.7218 12.0944C27.1766 12.3918 27.5658 12.4059 27.9511 12.008Z" fill="#F3FAFD"/>
<path d="M21.9338 26.0697C23.4332 25.1092 24.9347 24.1527 26.4302 23.1842C28.9107 21.5767 31.3873 19.9632 33.8639 18.3516C34.696 17.8111 34.7 17.2726 33.8758 16.7361C32.3962 15.7716 30.9186 14.8011 29.431 13.8506C28.9921 13.5693 28.8074 13.2297 29.0001 12.7214C29.441 12.2632 29.6813 12.225 30.2076 12.5646C31.7646 13.5713 33.3257 14.57 34.8708 15.5968C36.3603 16.5874 36.3583 18.5144 34.8549 19.497C30.6425 22.2498 26.4182 24.9826 22.1999 27.7254C21.4273 28.2277 20.6309 28.3202 19.8147 27.862C19.0004 27.4059 18.6509 26.6725 18.6509 25.7482C18.6509 20.2686 18.6509 14.791 18.6509 9.31145C18.6509 8.38513 19.0143 7.65773 19.8326 7.20763C20.6349 6.76758 21.4194 6.84996 22.1741 7.34025C23.9655 8.50368 25.7569 9.6651 27.5463 10.8305C28.0746 11.1741 28.1421 11.3891 27.9515 12.006C27.5682 12.4039 27.1769 12.3898 26.7221 12.0924C24.9903 10.9571 23.2446 9.84393 21.5048 8.7227C21.2129 8.45545 20.8911 8.32685 20.5177 8.54186C20.1881 8.73275 20.1364 9.05023 20.1364 9.40589C20.1404 14.8332 20.1384 20.2626 20.1404 25.6899C20.1404 25.7743 20.1344 25.8587 20.1444 25.9411C20.2159 26.5017 20.7461 26.8011 21.2387 26.5378C21.483 26.4072 21.7014 26.2264 21.9318 26.0676L21.9338 26.0697Z" fill="#010101"/>
<path d="M44.0044 32.3711C43.637 33.1346 42.9975 33.4802 42.1951 33.5686C42.0322 33.5867 41.8654 33.5747 41.7006 33.5747C31.5778 33.5747 21.457 33.5747 11.3342 33.5747C9.57655 33.5747 8.7305 32.7147 8.7305 30.9303C8.7305 21.9484 8.7305 12.9665 8.72852 3.98459C8.72852 3.02812 9.03039 2.25652 9.91815 1.80441C10.1187 11.4052 9.97971 21.008 9.99362 30.6088C9.99362 31.6336 10.6808 32.3027 11.652 32.2987C19.2684 32.2626 26.8848 32.2786 34.5012 32.2786C37.6709 32.2786 40.8386 32.2565 44.0083 32.3711H44.0044Z" fill="#D06161"/>
<path d="M45.8115 22.5512C47.6724 23.7508 49.5314 24.9504 51.3923 26.152C52.5303 26.8875 53.6802 27.6048 54.7983 28.3684C55.3504 28.7441 55.9006 28.7321 56.4924 28.5593C56.4984 29.0435 56.4984 29.5258 56.5123 30.01C56.5222 30.3657 56.4547 30.6751 56.123 30.866C55.7854 31.0609 55.4974 30.9344 55.2055 30.7394C52.5303 28.9632 49.8491 27.1949 47.1739 25.4206C46.1902 24.7682 45.7367 23.8111 45.8135 22.5492L45.8115 22.5512Z" fill="#AC3243"/>
<path d="M21.9336 26.0697C21.7032 26.2284 21.4867 26.4092 21.2404 26.5399C20.7479 26.8011 20.2176 26.5037 20.1461 25.9431C20.1362 25.8607 20.1422 25.7763 20.1422 25.6919C20.1422 20.2646 20.1422 14.8352 20.1382 9.40791C20.1382 9.05426 20.1898 8.73477 20.5195 8.54388C20.8929 8.32887 21.2146 8.45747 21.5066 8.72472C21.3695 8.86337 21.4192 9.03818 21.4192 9.19893C21.4172 14.5358 21.4192 19.8727 21.4132 25.2117C21.4132 25.6256 21.5284 25.929 21.9355 26.0697H21.9336Z" fill="#F6F6F6"/>
</g>
<defs>
<clipPath id="clip0_1047_2617">
<rect width="58" height="42" fill="white"/>
</clipPath>
</defs>
</svg>
