<svg width="58" height="58" viewBox="0 0 58 58" fill="none" xmlns="http://www.w3.org/2000/svg">
<g clip-path="url(#clip0_970_509)">
<path d="M36.476 19.9504C38.0981 19.9504 39.7201 19.9573 41.3422 19.9504C44.9035 19.9365 48.4557 20.1563 52.0079 20.3322C52.7147 20.3669 53.4306 20.3854 54.142 20.5057C55.9022 20.8042 57.2728 22.2897 57.4269 24.1107C57.6285 26.501 57.8075 28.8936 57.9139 31.2931C58.0091 33.4889 58.0227 35.6825 57.9638 37.8738C57.8913 40.5787 57.71 43.2813 57.4155 45.9724C57.1958 47.9901 55.6032 49.4432 53.5303 49.5543C52.1642 49.6283 51.3192 50.5331 51.3147 51.9376C51.3124 53.3444 51.3034 54.7513 51.317 56.1558C51.3238 56.894 50.9771 57.4215 50.3881 57.7593C49.7878 58.1041 49.1444 58.0856 48.5803 57.6483C46.111 55.7393 43.7685 53.6915 41.9425 51.1023C41.4351 50.3827 40.7826 50.031 39.9331 50.0263C38.669 50.0194 37.4048 50.0379 36.143 50.0171C34.2038 49.987 32.2623 49.9639 30.3231 49.8829C28.4065 49.8042 26.4944 49.6584 24.5801 49.5427C24.5756 49.3252 24.3853 49.2674 24.2539 49.1771C23.2594 48.5038 22.7134 47.5158 22.5752 46.3565C22.3532 44.5146 22.1878 42.6612 22.1153 40.8055C22.0496 39.1163 21.9749 37.4272 21.9635 35.7334C21.95 33.4612 22.1063 31.1959 22.0927 28.926C22.317 28.9074 22.5412 28.8797 22.7655 28.875C26.0481 28.8241 29.3263 28.6807 32.5976 28.4076C34.496 28.2503 35.853 26.8481 36.032 24.8905C36.1815 23.243 36.3287 21.5932 36.476 19.9457V19.9504ZM45.0983 41.5367C45.1096 41.4696 45.0326 41.3122 44.9737 41.1502C43.3652 36.7955 41.7522 32.4408 40.1483 28.0837C39.9399 27.5145 39.5661 27.172 38.9725 27.1743C38.4016 27.179 38.0437 27.5284 37.8421 28.0675C36.2087 32.4546 34.573 36.8418 32.9419 41.2289C32.7335 41.7912 32.9419 42.3026 33.4086 42.4761C33.8957 42.6589 34.342 42.4345 34.5708 41.8583C34.8539 41.1456 35.1281 40.4283 35.375 39.7017C35.4973 39.3385 35.6786 39.2019 36.0705 39.2066C37.9939 39.2297 39.9195 39.2274 41.8428 39.2066C42.2438 39.2019 42.4545 39.3176 42.5837 39.7203C42.8329 40.4862 43.1183 41.2405 43.4196 41.9879C43.6031 42.4437 43.9837 42.6057 44.4413 42.4946C44.8536 42.3928 45.0621 42.0874 45.096 41.5367H45.0983Z" fill="#9DC5FA"/>
<path d="M36.476 19.9504C36.3287 21.5979 36.1837 23.2477 36.0319 24.8952C35.853 26.8527 34.4982 28.2549 32.5975 28.4123C29.3262 28.683 26.0481 28.8288 22.7655 28.8797C22.5412 28.8843 22.3169 28.9121 22.0926 28.9306C21.4221 28.9445 20.7515 28.9607 20.0832 28.9746C19.0864 28.9699 18.0873 28.9537 17.0905 28.9653C16.4177 28.9722 15.908 29.3239 15.5251 29.8631C13.7852 32.3204 11.5787 34.2896 9.24753 36.1314C8.66531 36.5919 8.03778 36.7353 7.35362 36.3744C6.69664 36.0273 6.43385 35.4627 6.44291 34.7199C6.4565 33.3941 6.46103 32.0659 6.44291 30.7377C6.42479 29.4211 5.69305 28.6205 4.42893 28.4748C4.41986 28.2966 4.28167 28.2318 4.1616 28.1346C3.35737 27.4659 2.69359 26.7069 2.58485 25.5801C2.50103 24.7077 2.34698 23.84 2.28581 22.9654C2.14988 20.9801 1.98677 18.9924 1.95732 17.0048C1.92787 15.1074 1.9392 13.2054 2.01622 11.3034C2.11817 8.81593 2.29261 6.33544 2.50783 3.85726C2.58712 2.93633 2.91787 2.1311 3.56126 1.43924C3.926 1.04588 4.44252 0.870026 4.76421 0.44427C8.66078 0.222136 12.5551 0.0647917 16.4562 0.00925826C18.9074 -0.0254501 21.3541 0.0416528 23.803 0.0763611C26.7776 0.120325 29.7498 0.289239 32.7176 0.522942C34.3646 0.65252 35.8303 2.11027 36.0161 3.8133C36.5077 8.33233 36.6821 12.8676 36.5575 17.412C36.5349 18.2566 36.4601 19.1012 36.476 19.9481V19.9504ZM10.7609 14.1194C10.7427 15.2162 10.9738 16.2574 11.411 17.2547C13.3299 21.6488 18.6945 23.1783 22.5593 20.4155C22.915 20.1609 23.1166 20.1609 23.3907 20.4918C23.6694 20.8297 23.9911 21.1328 24.3082 21.4336C24.7251 21.8293 25.2167 21.8501 25.5746 21.5053C25.9462 21.1467 25.9394 20.6029 25.5429 20.1725C25.2189 19.8231 24.895 19.4714 24.5393 19.1544C24.2697 18.9138 24.2856 18.7379 24.4804 18.4417C25.5338 16.8521 25.9711 15.1028 25.74 13.1846C25.2597 9.16533 21.7573 6.17809 17.82 6.43956C13.8487 6.70335 10.7609 10.0608 10.7631 14.1194H10.7609Z" fill="#F8D942"/>
<path d="M4.76652 0.441956C4.44256 0.870025 3.9283 1.04357 3.56356 1.43693C2.92018 2.1311 2.58942 2.93402 2.51013 3.85495C2.29491 6.33312 2.12047 8.8113 2.01853 11.301C1.9415 13.2031 1.93017 15.1051 1.95963 17.0025C1.98908 18.9901 2.15219 20.9777 2.28812 22.9631C2.34928 23.8377 2.50333 24.7054 2.58715 25.5778C2.6959 26.7046 3.35741 27.4636 4.16391 28.1323C4.28171 28.2318 4.4199 28.2943 4.43123 28.4724C2.10914 28.4053 0.709098 26.9198 0.475757 24.3815C0.104223 20.3553 -0.0566235 16.3176 0.0181363 12.2706C0.0702416 9.40134 0.260539 6.54137 0.591295 3.69297C0.777061 2.0825 2.23374 0.668717 3.81276 0.522942C4.12992 0.492861 4.44935 0.469722 4.76878 0.444269L4.76652 0.441956Z" fill="#ECC933"/>
<path d="M20.0832 28.9745C20.7538 28.9607 21.4243 28.9445 22.0926 28.9306C22.1062 31.2005 21.9476 33.4658 21.9635 35.7381C21.9748 37.4318 22.0496 39.121 22.1153 40.8101C22.1878 42.6635 22.3532 44.517 22.5752 46.3611C22.7134 47.5204 23.2593 48.5084 24.2539 49.1818C24.3853 49.2697 24.5778 49.3275 24.5801 49.5474C22.6046 49.6631 20.6881 47.9832 20.4706 45.6693C20.0311 41.0114 19.8702 36.3535 19.9722 31.6818C19.9926 30.7817 20.0469 29.877 20.0832 28.9769V28.9745Z" fill="#81B5FB"/>
<path d="M45.0983 41.5367C45.0621 42.085 44.8536 42.3928 44.4436 42.4946C43.986 42.608 43.6054 42.446 43.4219 41.9879C43.1228 41.2405 42.8351 40.4862 42.5859 39.7203C42.4568 39.32 42.2461 39.2019 41.8451 39.2066C39.9218 39.2274 37.9961 39.2274 36.0728 39.2066C35.6808 39.2019 35.5019 39.3361 35.3773 39.7017C35.1326 40.4283 34.8562 41.1456 34.573 41.8583C34.3442 42.4344 33.8979 42.6589 33.4109 42.4761C32.9442 42.3002 32.7358 41.7889 32.9442 41.2289C34.573 36.8395 36.211 32.4546 37.8443 28.0675C38.0437 27.5307 38.4039 27.179 38.9748 27.1743C39.5661 27.1697 39.9399 27.5145 40.1506 28.0837C41.7545 32.4408 43.3675 36.7955 44.976 41.1502C45.0349 41.3122 45.1119 41.4696 45.1006 41.5367H45.0983ZM38.9929 30.0297C38.0414 32.5842 37.1511 34.9721 36.2517 37.3902H41.6571C41.6503 37.3069 41.6571 37.2467 41.639 37.1958C40.7758 34.8565 39.9127 32.5171 38.9929 30.0297Z" fill="#243A6B"/>
<path d="M10.7609 14.1194C10.7609 10.0631 13.8464 6.70334 17.8178 6.43956C21.7574 6.17809 25.2575 9.16301 25.7378 13.1845C25.9666 15.1028 25.5316 16.8544 24.4782 18.4417C24.2834 18.7356 24.2675 18.9137 24.5371 19.1544C24.8905 19.4714 25.2167 19.8208 25.5407 20.1725C25.9371 20.6029 25.9439 21.1467 25.5724 21.5053C25.2145 21.8501 24.7229 21.8292 24.306 21.4336C23.9889 21.1328 23.6672 20.8296 23.3885 20.4918C23.1144 20.1632 22.915 20.1609 22.5571 20.4155C18.69 23.1782 13.3277 21.6488 11.4088 17.2547C10.9739 16.2574 10.7428 15.2138 10.7586 14.1194H10.7609ZM18.3003 8.23976C14.44 8.21894 11.649 12.0137 12.7409 15.7923C13.8057 19.4691 18.0239 21.1443 21.2431 19.1798C21.6373 18.9392 21.771 18.7726 21.3564 18.4116C20.9282 18.0368 20.5408 17.611 20.1535 17.1899C19.7411 16.7433 19.7434 16.2343 20.1331 15.8617C20.4887 15.5216 20.9871 15.5424 21.3972 15.9404C21.7936 16.3245 22.2082 16.697 22.5503 17.1297C22.9309 17.611 23.0872 17.4097 23.3115 17.0025C25.4614 13.0966 22.6975 8.26059 18.298 8.23745L18.3003 8.23976Z" fill="#243A6B"/>
<path d="M38.9929 30.0297C39.9127 32.5171 40.7758 34.8565 41.6389 37.1958C41.6571 37.2467 41.6503 37.3069 41.6571 37.3902H36.2517C37.1511 34.9745 38.0414 32.5842 38.9929 30.0297Z" fill="#9DC5FA"/>
<path d="M18.3003 8.23977C22.6998 8.26291 25.4636 13.0989 23.3137 17.0048C23.0894 17.412 22.9308 17.6157 22.5525 17.1321C22.2104 16.6994 21.7959 16.3268 21.3994 15.9427C20.9894 15.5447 20.491 15.5239 20.1353 15.864C19.7456 16.2366 19.7434 16.7456 20.1557 17.1922C20.5431 17.6133 20.9305 18.0391 21.3586 18.4139C21.7732 18.7749 21.6373 18.9415 21.2453 19.1822C18.0261 21.1467 13.8079 19.4714 12.7431 15.7946C11.6489 12.016 14.4422 8.22126 18.3025 8.24208L18.3003 8.23977Z" fill="#F8D942"/>
</g>
<defs>
<clipPath id="clip0_970_509">
<rect width="58" height="58" fill="white"/>
</clipPath>
</defs>
</svg>
