<svg width="70" height="67" viewBox="0 0 70 67" fill="none" xmlns="http://www.w3.org/2000/svg">
<g clip-path="url(#clip0_970_625)">
<path d="M39.7362 29.0902C43.141 30.7569 45.8405 33.0962 47.9399 36.1343C50.8061 40.2835 52.1198 44.97 52.5806 49.9436C52.8821 53.203 52.7863 56.458 52.4267 59.7084C52.4063 59.9025 52.3759 60.0978 52.3504 60.2937C52.2924 60.321 52.2342 60.3507 52.1763 60.3781C51.9019 59.9812 51.6437 59.5739 51.3525 59.1923C50.31 57.8261 49.2652 56.4596 48.2007 55.1105C47.73 54.5137 46.963 54.3514 46.3335 54.6503C45.6909 54.955 45.3061 55.6894 45.4798 56.3844C45.551 56.6726 45.7118 56.9551 45.8933 57.1929C47.8222 59.7381 49.7569 62.2766 51.7023 64.809C52.5706 65.9383 53.7838 66.089 54.9157 65.2155C57.4268 63.2767 59.9313 61.3319 62.4361 59.3848C63.3129 58.7047 63.4955 57.7971 62.9277 57.0357C62.3701 56.2906 61.4143 56.2307 60.5487 56.8998C59.043 58.0633 57.5415 59.2322 56.0355 60.3981C55.8788 60.5196 55.711 60.6322 55.4573 60.8158C55.4987 60.3082 55.5216 59.9053 55.5643 59.5024C56.0169 55.1783 55.9865 50.8634 55.2512 46.5737C54.3513 41.3286 52.4475 36.5253 49.0041 32.4254C46.4486 29.3801 43.3274 27.1103 39.6435 25.6513C39.1666 25.4621 38.9682 25.2021 38.8457 24.7204C37.5231 19.4202 35.3002 14.5629 31.8248 10.3293C28.3449 6.09264 24.0231 3.12088 18.7312 1.67628C15.5174 0.799006 12.2295 0.604388 8.91589 0.909495C7.95065 0.997815 7.30203 1.72761 7.37581 2.56404C7.45689 3.49607 8.142 4.02122 9.13948 4.02677C11.1095 4.03957 13.0981 3.94772 15.0459 4.16931C20.2662 4.76033 24.6345 7.14792 28.2338 10.9619C31.7745 14.7134 34.029 19.1962 35.4767 24.1242C35.494 24.1813 35.4908 24.2431 35.5034 24.3743C35.3139 24.3496 35.148 24.3329 34.981 24.3062C30.2781 23.556 25.71 23.8942 21.4524 26.228C17.9424 28.1536 15.4211 30.9852 14.3887 34.9424C13.4993 38.3528 14.0959 41.6034 15.9279 44.5693C18.1821 48.2203 21.4138 50.4572 25.7238 50.9046C28.8028 51.2239 31.5263 50.2143 34.0423 48.4653C37.2516 46.2315 38.869 43.0554 39.5442 39.2982C40.1218 36.0812 40.1475 32.852 39.7469 29.6145C39.7301 29.4779 39.741 29.3373 39.7407 29.0932L39.7362 29.0902ZM33.4905 27.3244C34.0347 27.3954 34.5826 27.4569 35.1249 27.5425C35.3839 27.5838 35.6338 27.7135 35.8932 27.7324C36.2873 27.7613 36.3756 27.9746 36.4311 28.3255C37.0161 32.12 37.1865 35.9102 36.2797 39.682C35.8093 41.6404 35.0627 43.4631 33.5179 44.8506C30.7025 47.3798 27.5635 48.5819 23.8054 47.3123C19.5408 45.8722 16.5475 41.1062 17.2047 36.6344C17.7129 33.1917 19.7791 30.7989 22.6813 29.1202C26.0462 27.1707 29.7147 26.8346 33.4929 27.3248L33.4905 27.3244Z" fill="black"/>
</g>
<defs>
<clipPath id="clip0_970_625">
<rect width="62.6209" height="59.3251" fill="white" transform="matrix(0.991606 0.129295 0.129295 -0.991606 0 58.8271)"/>
</clipPath>
</defs>
</svg>
