<svg width="355" height="102" viewBox="0 0 355 102" fill="none" xmlns="http://www.w3.org/2000/svg">
<g clip-path="url(#clip0_970_212)">
<path d="M350.857 33.4063C351.757 42.4068 348.919 50.9217 343.594 57.4142C338.267 63.8981 330.467 68.3668 321.437 69.27L40.6184 97.3576C22.479 99.172 5.68413 85.8992 4.04492 67.7813C3.2334 58.8897 6.07811 50.5007 11.3395 44.0837C16.6655 37.5912 24.475 33.133 33.4962 32.2307L63.5849 29.2212C64.3269 29.147 65.0846 29.0856 65.852 29.0347C65.3047 29.0664 64.7464 29.105 64.1928 29.1604L314.914 4.08306C332.968 2.27731 349.053 15.4026 350.854 33.4094L350.857 33.4063Z" fill="white"/>
<path d="M321.48 69.6941L40.6608 97.7818C31.7081 98.6773 22.5531 95.8785 15.5417 90.1025C8.64021 84.4162 4.407 76.5022 3.62226 67.8207C2.82954 59.117 5.4531 50.592 11.0103 43.8176C16.6394 36.9556 24.6095 32.6912 33.4537 31.8066L63.5425 28.7971C63.7451 28.7768 63.9477 28.7566 64.1506 28.7391L314.872 3.65898C333.125 1.83324 349.456 15.1583 351.277 33.3643C352.159 42.1856 349.546 50.8216 343.92 57.6834C338.285 64.5432 330.315 68.8075 321.476 69.6916L321.48 69.6941ZM33.5383 32.652C24.9195 33.5141 17.1518 37.6691 11.6691 44.3526C6.25352 50.9575 3.69735 59.2631 4.46758 67.7419C5.23268 76.1982 9.35893 83.9073 16.0844 89.4474C22.92 95.0799 31.8462 97.8096 40.5763 96.9364L321.395 68.8487C330.005 67.9875 337.773 63.8325 343.264 57.1453C348.747 50.4618 351.295 42.0449 350.435 33.4486C348.66 15.7093 332.744 2.72233 314.959 4.50125L65.8785 29.4144L65.8825 29.4543C65.1182 29.5077 64.3631 29.566 63.6268 29.6397L33.538 32.6492L33.5383 32.652Z" fill="white"/>
<path d="M321.511 70.0102L40.6922 98.0978C31.6538 99.0018 22.4155 96.1769 15.3382 90.3472C8.3708 84.607 4.09822 76.6165 3.30209 67.8499C2.50111 59.0637 5.15123 50.4583 10.7621 43.6154C16.4454 36.6904 24.492 32.3839 33.4219 31.4907L63.5106 28.4812C63.6904 28.4632 63.8731 28.445 64.0557 28.4267C64.0757 28.4247 64.0957 28.4227 64.1185 28.4204L314.84 3.34308C333.268 1.49994 349.758 14.9527 351.596 33.3324C352.487 42.2391 349.848 50.9582 344.168 57.8829C338.476 64.8088 330.429 69.1153 321.508 70.0076L321.511 70.0102ZM33.5696 32.968C25.0365 33.8215 17.3455 37.9372 11.9168 44.555C6.55203 51.0916 4.02243 59.3169 4.78726 67.7128C5.54382 76.0838 9.62784 83.7166 16.2874 89.2029C23.0571 94.7817 31.8999 97.4851 40.5444 96.6205L321.363 68.5328C329.891 67.6799 337.579 63.5645 343.019 56.9456C348.448 50.3278 350.969 41.9941 350.118 33.4831C348.361 15.9175 332.605 3.06117 314.991 4.82297L66.1587 29.7113C66.0788 29.7481 65.98 29.7694 65.9027 29.7743C65.1413 29.8275 64.3921 29.888 63.6587 29.9614L33.5699 32.9709L33.5696 32.968Z" fill="#060F11"/>
<path d="M50.3091 52.025C44.6062 47.3716 36.1701 48.2154 31.5047 53.9058C26.8364 59.5965 27.678 68.0107 33.3806 72.6613C38.4306 76.7819 45.6204 76.5889 50.4415 72.5418L57.8863 78.6165C58.9408 79.4771 60.4991 79.3212 61.3623 78.2689C62.2256 77.2165 62.0701 75.6624 61.0155 74.8019L53.5708 68.7271C56.5934 63.2125 55.3591 56.1457 50.3091 52.025ZM48.3622 67.6611C45.4204 71.2472 40.1036 71.7789 36.5099 68.8466C32.9162 65.9142 32.3858 60.6112 35.3275 57.0251C38.2693 53.4391 43.5861 52.9073 47.1798 55.8397C50.7735 58.772 51.3039 64.075 48.3622 67.6611Z" fill="#141323"/>
</g>
<defs>
<clipPath id="clip0_970_212">
<rect width="350" height="67" fill="white" transform="translate(0 34.8335) rotate(-5.71176)"/>
</clipPath>
</defs>
</svg>
