<svg width="69" height="68" viewBox="0 0 69 68" fill="none" xmlns="http://www.w3.org/2000/svg">
<g clip-path="url(#clip0_970_558)">
<path d="M31.4077 30.2953C30.5687 31.5439 29.5424 32.5525 28.2417 33.2426C25.4136 34.744 22.5579 34.78 19.7084 33.3304C19.3834 33.1648 19.229 33.1752 18.9652 33.4605C16.4007 36.2558 13.2333 37.2543 9.59983 36.1529C5.96864 35.0511 3.82917 32.4742 3.39115 28.7321C2.98922 25.3069 4.30277 22.471 7.17748 20.4962C10.0894 18.4959 13.2112 18.3614 16.3749 19.9185C16.7499 20.1025 16.9272 20.0901 17.2028 19.7679C19.571 16.9956 23.5201 15.9731 26.9664 17.246C27.4678 17.4317 27.5253 17.303 27.5963 16.8481C28.7597 9.47853 34.826 3.73536 42.2982 2.9147C50.2458 2.0419 57.601 6.70673 60.0958 14.2019C62.9005 22.6286 58.4179 31.8668 50.0093 34.9717C46.7957 36.1592 43.5176 36.3807 40.1831 35.5794C39.8703 35.5039 39.6808 35.5256 39.4824 35.824C38.7277 36.9621 37.944 38.0824 37.1576 39.201C36.9604 39.4807 36.8582 39.6201 37.3245 39.7431C38.4587 40.0437 39.1813 40.8123 39.528 41.9149C39.6163 42.1989 39.7222 42.2785 40.0368 42.2519C42.0328 42.0857 43.6534 43.6616 43.5327 45.668C43.5084 46.061 43.61 46.1553 43.9722 46.233C46.1659 46.698 47.3044 49.1366 46.0805 51.0077C44.2752 53.7716 42.5395 56.608 40.3925 59.1169C37.2234 62.8186 33.0623 64.2531 28.2775 63.319C23.5653 62.3991 20.3212 59.5669 18.757 55.044C17.4068 51.1399 17.9635 47.4032 20.2715 43.9485C21.6105 41.9449 22.9994 39.9712 24.3784 37.9947C25.7409 36.0421 28.2675 35.943 29.763 37.7851C29.9667 38.0382 30.0406 38.0591 30.2292 37.7832C31.3528 36.1367 32.4898 34.4993 33.6242 32.86C33.7361 32.698 33.8512 32.5654 33.6199 32.3891C32.8199 31.7807 32.1209 31.0633 31.4077 30.2953ZM40.9078 33.8458C41.1066 33.9727 41.3362 33.9782 41.5582 34.0175C44.3285 34.4969 47.0149 34.1805 49.6366 33.1826C57.2403 30.2887 61.14 21.3264 58.0342 13.8694C54.9458 6.45544 46.8178 2.8326 39.1867 5.46803C28.7396 9.07304 25.7867 22.6001 33.8015 30.1354C34.8294 31.1011 34.8374 31.1065 35.6392 29.9458C36.3791 28.8776 37.3733 28.3328 38.6915 28.3955C38.7903 28.4001 38.9202 28.4335 38.9712 28.2575C38.8528 28.1733 38.7335 28.0847 38.6106 28.0014C36.7575 26.765 35.4194 25.1153 34.5781 23.0673C34.0497 21.7791 34.4611 21.0245 35.8313 20.7676C41.5307 19.699 47.2278 18.6308 52.9272 17.5622C54.1531 17.3323 54.852 17.8996 54.8541 19.1177C54.8669 26.091 48.0802 31.6131 41.0362 29.1928C40.9042 29.1482 40.7688 29.0233 40.6164 29.1559C41.9904 30.711 42.0517 31.7099 40.9119 33.8427L40.9078 33.8458ZM20.0808 53.0964C20.2388 53.5662 20.343 54.1593 20.5483 54.7313C22.2808 59.5301 27.396 62.5248 32.4598 61.6493C35.5511 61.116 38.0104 59.5635 39.7951 56.9884C41.2968 54.8202 42.7955 52.6479 44.2941 50.4756C44.4023 50.3188 44.5106 50.1621 44.5907 49.9922C44.8484 49.463 44.7274 48.7804 44.3172 48.3718C43.8871 47.9438 43.2595 47.8441 42.688 48.0807C42.2096 48.2791 41.9938 48.708 41.7148 49.0863C41.335 49.5992 40.8337 49.7371 40.3962 49.4445C39.9668 49.1574 39.8917 48.6074 40.2341 48.0946C40.6238 47.5105 41.0376 46.9428 41.4273 46.3587C41.9387 45.59 41.798 44.7401 41.0942 44.2709C40.4273 43.8249 39.5563 44.0067 39.0395 44.7093C38.7701 45.0766 38.5198 45.4588 38.2607 45.8311C37.8269 46.4535 37.3035 46.6233 36.836 46.2947C36.3498 45.9535 36.3285 45.5043 36.7676 44.8602C37.0237 44.4838 37.2926 44.1143 37.5433 43.7344C38.0567 42.9514 37.9225 42.1234 37.2165 41.6431C36.5217 41.1722 35.6812 41.3552 35.1353 42.1142C34.7687 42.6223 34.4341 43.152 34.0594 43.6547C33.851 43.9365 33.5737 44.1249 33.1769 44.049C32.7994 43.9765 32.5552 43.7564 32.4466 43.4137C32.3242 43.0344 32.537 42.7262 32.7466 42.4257C34.9602 39.2268 37.173 36.0235 39.3835 32.8206C39.5028 32.648 39.6247 32.4771 39.7185 32.2931C40.0252 31.7015 39.9128 31.015 39.4531 30.5787C39.0076 30.1559 38.3242 30.0574 37.7574 30.344C37.4206 30.5135 37.2262 30.8205 37.0203 31.1157C34.6039 34.6139 32.1874 38.112 29.771 41.6102C28.6058 43.2968 27.4385 44.9839 26.2756 46.6702C26.0426 47.0075 25.7937 47.3224 25.3245 47.2832C24.5566 47.219 24.2537 46.462 24.735 45.7567C25.9031 44.0487 27.0903 42.3556 28.2584 40.6475C28.7856 39.8759 28.6648 39.0199 27.9902 38.5452C27.2725 38.0393 26.4196 38.2062 25.8643 39.0016C24.4412 41.0419 23.0043 43.0708 21.6343 45.145C20.0512 47.5389 19.5685 50.1774 20.0781 53.0946L20.0808 53.0964ZM25.4698 32.3936C27.2288 32.0083 28.8052 30.9474 29.9295 29.2175C30.1559 28.8698 30.1603 28.6193 29.9297 28.2602C28.3094 25.7155 27.469 22.9251 27.3986 19.9117C27.3887 19.5483 27.2833 19.3345 26.928 19.1815C25.1986 18.4306 23.4476 18.2988 21.6433 18.903C18.0938 20.091 16.1313 23.7584 17.0776 27.4492C17.9544 30.8686 21.6294 33.1252 25.4675 32.394L25.4698 32.3936ZM5.23132 29.016C5.89563 31.8001 7.55078 33.7348 10.3806 34.4944C13.1411 35.2323 15.5229 34.4482 17.4995 32.3989C17.7612 32.1279 17.7701 31.9759 17.4977 31.6802C14.9435 28.8944 14.3377 25.7132 15.6944 22.1871C15.8637 21.7461 15.7506 21.6032 15.3891 21.4421C12.7945 20.2823 10.2934 20.4299 8.00135 22.1405C5.70931 23.8512 4.88078 26.2008 5.23399 29.0178L5.23132 29.016ZM36.3262 22.5361C38.0037 26.4689 42.2197 28.6865 46.2666 27.8006C50.0359 26.976 53.1045 23.1613 53.0051 19.4089L36.3284 22.5357L36.3262 22.5361Z" fill="#03337D"/>
<path d="M40.9074 33.8462C42.0472 31.7134 41.9837 30.715 40.6119 29.1594C40.7666 29.0264 40.902 29.1513 41.0317 29.1963C48.0758 31.6166 54.8628 26.0967 54.8497 19.1212C54.8471 17.9008 54.1487 17.3358 52.9227 17.5657C47.2233 18.6343 41.5262 19.7025 35.8268 20.7711C34.4566 21.028 34.0452 21.7826 34.5737 23.0708C35.4149 25.1189 36.753 26.7685 38.6061 28.0049C38.7291 28.0882 38.8483 28.1768 38.9668 28.261C38.9158 28.437 38.7859 28.4036 38.687 28.399C37.3711 28.3359 36.3742 28.8789 35.6348 29.9493C34.8329 31.11 34.8249 31.1046 33.7971 30.1389C25.7841 22.6009 28.7374 9.07612 39.1822 5.47153C46.8156 2.83568 54.9414 6.45894 58.0298 13.8729C61.1378 21.3294 57.2362 30.2945 49.6321 33.1861C47.0082 34.1844 44.3237 34.4982 41.5538 34.021C41.3322 33.9839 41.1021 33.9762 40.9034 33.8493L40.9074 33.8462ZM34.3783 15.5213C34.7024 17.2502 36.3611 18.3704 38.097 18.0357C39.8058 17.706 40.9275 16.0737 40.6143 14.366C40.2965 12.6337 38.6457 11.4935 36.9163 11.8131C35.1892 12.1323 34.0523 13.7952 34.3783 15.5213ZM51.5879 12.0888C51.2941 10.4723 49.7582 9.40994 48.1434 9.70578C46.5714 9.99359 45.4877 11.5424 45.7596 13.1169C46.0348 14.7092 47.6087 15.7875 49.2204 15.4876C50.8187 15.1903 51.8758 13.6742 51.5856 12.0893L51.5879 12.0888Z" fill="#80E893"/>
<path d="M20.0804 53.0968C19.5708 50.1796 20.0562 47.543 21.6366 45.1472C23.0066 43.073 24.4457 41.0437 25.8666 39.0039C26.4215 38.2062 27.2744 38.0393 27.9925 38.5475C28.6671 39.0221 28.7879 39.8781 28.2607 40.6498C27.0926 42.3578 25.9054 44.0509 24.7373 45.7589C24.2556 46.462 24.5567 47.2217 25.3268 47.2854C25.796 47.3246 26.0449 47.0097 26.2779 46.6724C27.443 44.9857 28.6082 43.2991 29.7733 41.6124C32.1897 38.1143 34.6062 34.6161 37.0226 31.118C37.2281 30.8205 37.4229 30.5157 37.7597 30.3462C38.3265 30.0596 39.0121 30.1577 39.4554 30.5809C39.9155 31.0195 40.0252 31.7041 39.7208 32.2953C39.6248 32.4798 39.5029 32.6506 39.3859 32.8228C37.1753 36.0257 34.9644 39.2264 32.7489 42.4279C32.5397 42.7307 32.3287 43.0362 32.4489 43.4159C32.5575 43.7586 32.8017 43.9787 33.1792 44.0513C33.5761 44.1271 33.8511 43.9392 34.0618 43.6569C34.4364 43.1543 34.771 42.6245 35.1376 42.1164C35.6817 41.3601 36.524 41.1744 37.2188 41.6453C37.927 42.1252 38.059 42.9537 37.5456 43.7366C37.2949 44.1166 37.0282 44.4856 36.7699 44.8624C36.3304 45.5043 36.3539 45.9531 36.8383 46.297C37.3058 46.6255 37.8292 46.4557 38.263 45.8333C38.524 45.4584 38.7724 45.0788 39.0418 44.7116C39.5586 44.0089 40.4274 43.8275 41.0965 44.2732C41.8003 44.7423 41.9437 45.5941 41.4296 46.361C41.0399 46.945 40.6261 47.5128 40.2364 48.0968C39.8962 48.6092 39.9691 49.1597 40.3986 49.4468C40.836 49.7393 41.3373 49.6014 41.7171 49.0886C41.9961 48.7102 42.2119 48.2813 42.6903 48.083C43.2618 47.8463 43.8894 47.946 44.3195 48.374C44.7297 48.7827 44.8507 49.4652 44.593 49.9944C44.5107 50.1648 44.4024 50.3215 44.2964 50.4778C42.7978 52.6501 41.2991 54.8224 39.7974 56.9907C38.0127 59.5657 35.5534 61.1182 32.4621 61.6515C27.3983 62.527 22.2832 59.5323 20.5506 54.7335C20.3431 54.162 20.2389 53.5688 20.0831 53.0986L20.0804 53.0968Z" fill="#FDFDFE"/>
<path d="M25.4694 32.394C21.6313 33.1252 17.9563 30.8686 17.0795 27.4491C16.1332 23.7584 18.0935 20.0914 21.6452 18.903C23.4495 18.2988 25.2009 18.4328 26.9299 19.1815C27.2852 19.3345 27.3906 19.5483 27.4004 19.9117C27.4709 22.9251 28.3113 25.7155 29.9315 28.2602C30.1599 28.6197 30.156 28.8725 29.9314 29.2175C28.8071 30.9474 27.2307 32.0082 25.4716 32.3936L25.4694 32.394ZM23.7442 27.1868C22.9577 27.3343 22.17 27.4751 21.3851 27.6315C20.7621 27.7552 20.457 28.1685 20.5606 28.7086C20.6616 29.2469 21.0979 29.5211 21.7271 29.4055C23.3018 29.1195 24.8748 28.8245 26.4439 28.5211C27.0452 28.406 27.3846 27.9517 27.2841 27.441C27.186 26.9299 26.7098 26.6423 26.1019 26.7471C25.3137 26.8856 24.5289 27.042 23.7424 27.1895L23.7442 27.1868ZM21.28 25.3413C22.0176 25.2192 22.5374 24.4952 22.4121 23.7649C22.2877 23.0391 21.5466 22.533 20.8115 22.6685C20.0899 22.8015 19.6008 23.4897 19.7172 24.2101C19.8399 24.964 20.5311 25.4656 21.28 25.3413Z" fill="#F9F784"/>
<path d="M5.23096 29.0164C4.87775 26.1994 5.70853 23.8494 7.99831 22.1391C10.2926 20.4281 12.7915 20.2809 15.3861 21.4407C15.7476 21.6018 15.8629 21.7443 15.6914 22.1857C14.3324 25.7122 14.9382 28.8934 17.4946 31.6788C17.767 31.9746 17.7582 32.1265 17.4964 32.3975C15.5198 34.4468 13.1381 35.2309 10.3776 34.493C7.54816 33.7356 5.89302 31.8009 5.22829 29.0146L5.23096 29.0164ZM13.4194 30.1123C13.8077 30.0557 14.1602 29.6589 14.135 29.1758C14.1089 28.6882 13.7183 28.3221 13.1763 28.3428C11.3613 28.4172 9.89927 29.2047 8.75718 30.591C8.36172 31.0698 8.39069 31.61 8.79468 31.9482C9.2102 32.298 9.73423 32.2437 10.1415 31.7534C10.9594 30.7654 11.9955 30.2197 13.4221 30.1141L13.4194 30.1123ZM9.60363 27.5283C10.3453 27.4031 10.8653 26.6675 10.7261 25.9375C10.5933 25.2295 9.87542 24.7352 9.15584 24.8539C8.41373 24.9769 7.90014 25.709 8.04059 26.4457C8.17502 27.1626 8.88221 27.6497 9.60363 27.5283Z" fill="#FCB97B"/>
<path d="M36.3258 22.5365L53.0025 19.4097C53.1041 23.1617 50.0355 26.9764 46.264 27.8014C42.217 28.6874 38.0011 26.4698 36.3235 22.5369L36.3258 22.5365Z" fill="#FDFDFE"/>
<path d="M34.3783 15.5213C34.0545 13.7948 35.1914 12.1319 36.9163 11.8131C38.6457 11.4935 40.2965 12.6337 40.6143 14.366C40.9275 16.0737 39.8058 17.706 38.097 18.0356C36.3589 18.3708 34.7024 17.2502 34.3783 15.5213ZM38.8275 14.6779C38.6918 13.9542 38.0012 13.4687 37.2722 13.5868C36.5274 13.708 36.0216 14.4317 36.1615 15.1778C36.2984 15.9081 36.9824 16.3834 37.7151 16.2599C38.4748 16.1313 38.9664 15.431 38.8275 14.6779Z" fill="#03337D"/>
<path d="M51.5879 12.0888C51.8758 13.6742 50.8209 15.1899 49.2227 15.4872C47.6109 15.7871 46.0371 14.7088 45.7618 13.1165C45.4904 11.5442 46.5713 9.99359 48.1456 9.70536C49.7605 9.40952 51.2964 10.4718 51.5901 12.0884L51.5879 12.0888ZM49.7956 12.4087C49.6842 11.7776 49.0839 11.3629 48.4636 11.4885C47.8722 11.6063 47.4575 12.2066 47.5586 12.7957C47.6648 13.4117 48.2794 13.8282 48.9051 13.7063C49.515 13.5873 49.9036 13.022 49.796 12.4109L49.7956 12.4087Z" fill="#03337D"/>
<path d="M23.7442 27.1868C24.5307 27.0394 25.316 26.8852 26.1038 26.7444C26.7112 26.6375 27.1874 26.9251 27.286 27.4384C27.3841 27.9494 27.047 28.4034 26.4457 28.5184C24.8744 28.8223 23.3014 29.1173 21.7289 29.4028C21.102 29.5181 20.6657 29.2438 20.5625 28.7059C20.4611 28.1654 20.7666 27.7544 21.387 27.6288C22.1718 27.4724 22.9596 27.3316 23.7461 27.1842L23.7442 27.1868Z" fill="#03337D"/>
<path d="M21.28 25.3413C20.5311 25.4656 19.8376 24.9644 19.7172 24.2101C19.6008 23.4897 20.0899 22.8015 20.8115 22.6685C21.5489 22.5326 22.2877 23.0391 22.4121 23.7649C22.5374 24.4952 22.0176 25.2192 21.28 25.3413ZM21.1408 24.4495C21.3932 24.3652 21.5477 24.1813 21.4944 23.9092C21.4469 23.6684 21.2524 23.5269 20.9956 23.5635C20.7416 23.6018 20.5998 23.7787 20.6223 24.0358C20.6484 24.3245 20.8455 24.4425 21.1404 24.4473L21.1408 24.4495Z" fill="#03337D"/>
<path d="M13.4194 30.1123C11.9955 30.2197 10.959 30.7632 10.1389 31.7516C9.73156 32.2419 9.20753 32.2962 8.79201 31.9464C8.38802 31.6082 8.35905 31.068 8.75451 30.5892C9.89702 29.2051 11.359 28.4177 13.1736 28.341C13.7152 28.3181 14.1058 28.6842 14.1323 29.174C14.1598 29.6567 13.805 30.0538 13.4167 30.1105L13.4194 30.1123Z" fill="#03337D"/>
<path d="M9.60363 27.5283C8.87996 27.6501 8.17502 27.1626 8.04059 26.4457C7.90239 25.7086 8.41373 24.9769 9.15584 24.8539C9.87542 24.7352 10.5933 25.2295 10.7261 25.9375C10.863 26.6679 10.3453 27.4031 9.60363 27.5283ZM9.26493 25.7467C9.07032 25.841 8.89844 25.9819 8.93843 26.2449C8.98218 26.5281 9.17669 26.6696 9.45965 26.6235C9.72007 26.5816 9.85275 26.381 9.82063 26.135C9.78631 25.8524 9.57612 25.7393 9.26451 25.7445L9.26493 25.7467Z" fill="#03337D"/>
<path d="M38.8275 14.6779C38.9686 15.4306 38.4748 16.1313 37.7151 16.2599C36.9824 16.3834 36.3007 15.9077 36.1615 15.1778C36.0216 14.4317 36.5252 13.7084 37.2722 13.5868C38.0012 13.4687 38.694 13.9538 38.8275 14.6779Z" fill="#FDFDFE"/>
<path d="M49.7956 12.4087C49.9032 13.0197 49.5146 13.5851 48.9047 13.7041C48.2813 13.8256 47.6644 13.4094 47.5582 12.7935C47.4567 12.2022 47.8718 11.6041 48.4632 11.4863C49.0862 11.3625 49.6865 11.7771 49.7952 12.4065L49.7956 12.4087Z" fill="#F6F6F6"/>
<path d="M21.1408 24.4495C20.8459 24.4447 20.6489 24.3267 20.6227 24.038C20.6002 23.781 20.7416 23.6018 20.9961 23.5657C21.2528 23.5291 21.4469 23.6684 21.4948 23.9115C21.5482 24.1836 21.3932 24.3652 21.1412 24.4518L21.1408 24.4495Z" fill="#F9F784"/>
<path d="M9.26492 25.7467C9.57654 25.7415 9.78672 25.8547 9.82104 26.1373C9.85092 26.3837 9.71781 26.582 9.46006 26.6257C9.1771 26.6719 8.9826 26.5303 8.93884 26.2472C8.89844 25.9819 9.07073 25.8433 9.26534 25.749L9.26492 25.7467Z" fill="#FCB97B"/>
</g>
<defs>
<clipPath id="clip0_970_558">
<rect width="58.59" height="57.8291" fill="white" transform="translate(0 10.7972) rotate(-10.6194)"/>
</clipPath>
</defs>
</svg>
