<svg width="97" height="94" viewBox="0 0 97 94" fill="none" xmlns="http://www.w3.org/2000/svg">
<g clip-path="url(#clip0_970_268)">
<path d="M85.843 13.6696C84.9317 7.01247 78.8189 2.35828 72.2263 3.27892L13.7925 11.4234C7.18222 12.3464 2.58283 18.4852 3.51181 25.14L8.94585 64.1784C9.85715 70.8356 15.97 75.4898 22.5626 74.5691L35.1112 72.815L53.412 86.7646L67.19 68.3328L80.994 66.4068C87.589 65.504 92.1859 59.3474 91.257 52.6927L85.8229 13.6542L85.843 13.6696Z" fill="#DBFFF1"/>
<path d="M53.5567 87.6903C53.3268 87.7218 53.1025 87.6616 52.9012 87.5073L34.8999 73.7713L22.7049 75.477L22.6695 75.4819C19.2571 75.949 15.8559 75.0509 13.1013 72.9553C10.3443 70.8417 8.55589 67.7774 8.06424 64.3174L2.62775 25.2611C2.15378 21.7986 3.0352 18.3688 5.10266 15.5767C7.19025 12.8 10.225 11.0209 13.6526 10.5335L72.0865 2.38904L72.1218 2.3842C79.1766 1.41848 85.7322 6.41207 86.7271 13.5487L92.1636 52.605C93.1408 59.7441 88.2111 66.3644 81.1387 67.3326L67.706 69.2077L54.1389 87.3379C53.9865 87.5406 53.7689 87.6613 53.5567 87.6903ZM35.0092 71.9381C35.239 71.9067 35.4811 71.9644 35.6646 72.1211L53.2434 85.5332L66.4905 67.8286C66.6277 67.6462 66.8429 67.5077 67.0727 67.4762L80.8767 65.5502C86.9767 64.7152 91.2384 59.0045 90.3778 52.8495L84.9438 13.811C84.1009 7.65357 78.4509 3.35421 72.3509 4.18923L72.3156 4.19407L13.8817 12.3385C10.929 12.7427 8.3143 14.3007 6.51624 16.6923C4.71817 19.0839 3.95493 22.0612 4.38062 25.0393L9.8171 64.0956C10.2251 67.0762 11.7756 69.7185 14.1503 71.5389C16.5249 73.3593 19.4572 74.1216 22.3923 73.7198L22.4276 73.715L34.9762 71.9608L35.0092 71.9381Z" fill="#050004"/>
<path d="M45.4387 23.2553L50.7091 31.0976C50.9347 31.4303 51.325 31.6496 51.7213 31.6499L61.1011 31.7478C62.1285 31.7526 62.6885 32.9487 62.0613 33.7618L56.3099 41.2219C56.0661 41.5462 55.9808 41.9761 56.1053 42.359L58.9445 51.3887C59.2605 52.3818 58.3047 53.2945 57.3547 52.9336L48.5345 49.6864C48.154 49.5385 47.7296 49.5966 47.4029 49.8413L39.7798 55.3394C38.944 55.9448 37.7958 55.3201 37.8333 54.2786L38.1414 44.8181C38.1584 44.4158 37.9607 44.0247 37.6387 43.7778L30.094 38.1378C29.2714 37.5231 29.507 36.2181 30.4776 35.9398L39.4861 33.3248C39.8854 33.2156 40.1871 32.9197 40.3126 32.5207L43.2816 23.5506C43.599 22.5798 44.9074 22.4007 45.474 23.2504L45.4387 23.2553Z" fill="url(#paint0_linear_970_268)"/>
<path d="M39.3204 56.4568C38.8783 56.5173 38.4344 56.4326 38.0265 56.2157C37.3063 55.8234 36.8781 55.0638 36.9096 54.2413L37.2177 44.7808C37.2207 44.6713 37.1859 44.5488 37.0877 44.4895L29.543 38.8495C28.8814 38.3582 28.5721 37.546 28.7146 36.7447C28.8546 35.9255 29.433 35.2827 30.214 35.0667L39.2225 32.4517C39.3286 32.4372 39.4224 32.3334 39.4633 32.2369L42.4322 23.2667C42.6857 22.4866 43.3471 21.9233 44.1604 21.812C44.9737 21.7006 45.7597 22.0476 46.2159 22.7488L51.4863 30.5911C51.554 30.6909 51.6522 30.7502 51.7583 30.7356L61.1381 30.8335C61.9509 30.8495 62.6808 31.3132 63.0334 32.0468C63.386 32.7803 63.3063 33.6458 62.801 34.2968L57.0496 41.7569C57.0496 41.7569 56.9527 41.9702 56.985 42.0749L59.8242 51.1045C60.0756 51.8883 59.8496 52.7374 59.2614 53.3089C58.6731 53.8803 57.8318 54.05 57.0732 53.772L48.253 50.5248C48.1396 50.4858 48.0335 50.5003 47.9347 50.5684L40.294 56.0689C39.9977 56.2731 39.674 56.4084 39.338 56.4544L39.3204 56.4568ZM44.3517 23.604C44.3517 23.604 44.1242 23.6533 44.0779 23.8414L41.109 32.8116C40.8939 33.4774 40.3539 34.0059 39.6765 34.1895L30.6681 36.8045C30.4962 36.8644 30.4425 36.9991 30.4169 37.0753C30.409 37.1491 30.3932 37.2967 30.5542 37.4201L38.0989 43.0602C38.6599 43.4743 38.9875 44.1567 38.9566 44.8519L38.6485 54.3123C38.6376 54.4957 38.7584 54.5882 38.8364 54.6321C38.9145 54.6759 39.0456 54.7125 39.1925 54.6015L46.8156 49.1034C47.3904 48.6974 48.1153 48.5982 48.7782 48.8347L57.5984 52.0819C57.7697 52.1494 57.9014 52.0586 57.9496 52.0157C58.013 51.9525 58.0867 51.8333 58.0446 51.6572L55.2054 42.6276C54.9864 41.9485 55.121 41.2209 55.5476 40.6534L61.299 33.1933C61.4057 33.0514 61.3685 32.9111 61.3386 32.8242C61.3111 32.7553 61.2208 32.6222 61.0239 32.6309L51.6441 32.5331C50.9399 32.5204 50.2978 32.172 49.894 31.5909L44.6236 23.7486C44.5132 23.6 44.3669 23.5837 44.2962 23.5934L44.3517 23.604Z" fill="#050004"/>
</g>
<defs>
<linearGradient id="paint0_linear_970_268" x1="33.7281" y1="31.1312" x2="59.9765" y2="50.8811" gradientUnits="userSpaceOnUse">
<stop stop-color="white"/>
<stop offset="0.94" stop-color="#F9F9F9"/>
</linearGradient>
<clipPath id="clip0_970_268">
<rect width="85" height="82" fill="white" transform="translate(0.832031 12.1431) rotate(-7.79478)"/>
</clipPath>
</defs>
</svg>
