<svg width="48" height="46" viewBox="0 0 48 46" fill="none" xmlns="http://www.w3.org/2000/svg">
<path d="M41.2554 0.187012L45.873 6.12402C44.1139 7.75749 42.4176 10.2705 40.7842 13.6631C39.2135 16.9928 38.3654 21.2021 38.2397 26.291L47.9463 27.5161V45.2329H29.0986V36.8457C29.0986 36.0918 29.13 34.5212 29.1929 32.1338C29.2557 29.6836 29.3185 28.0501 29.3813 27.2334C29.4442 26.3538 29.5384 24.8774 29.6641 22.8042C29.7897 20.731 29.9782 19.2231 30.2295 18.2808C30.4808 17.3384 30.7949 16.019 31.1719 14.3228C31.5488 12.6265 32.02 11.2757 32.5854 10.2705C33.2137 9.2653 33.9048 8.10303 34.6587 6.78369C35.4754 5.46436 36.4178 4.30208 37.4858 3.29688C38.6167 2.22884 39.8732 1.19222 41.2554 0.187012ZM13.5493 0.187012L18.167 6.12402C16.4079 7.75749 14.7116 10.2705 13.0781 13.6631C11.5075 16.9928 10.6593 21.1707 10.5337 26.1968L19.6748 27.5161V45.2329H0.827148V36.8457C0.827148 33.0133 0.858561 30.092 0.921387 28.0815C0.984212 26.0711 1.23551 23.4953 1.67529 20.354C2.11507 17.1499 2.74333 14.5426 3.56006 12.5322C4.43962 10.5218 5.69613 8.38574 7.32959 6.12402C9.02588 3.8623 11.0991 1.8833 13.5493 0.187012Z" fill="#EB9B43"/>
</svg>
