<svg width="66" height="40" viewBox="0 0 66 40" fill="none" xmlns="http://www.w3.org/2000/svg">
<g clip-path="url(#clip0_970_614)">
<path d="M31.5213 36.633C21.4573 35.6333 11.3963 34.6287 1.33057 33.6465C0.736531 33.5875 0.536085 33.4665 0.60987 32.7992C0.960383 29.6986 1.25149 26.5921 1.54508 23.4858C1.58807 23.053 1.69557 22.8767 2.17305 22.8762C5.38246 22.8766 7.93661 20.5912 8.23787 17.4832C8.53639 14.4026 6.44988 11.6284 3.31944 11.0092C2.87566 10.9221 2.80889 10.7639 2.85188 10.3564C3.17715 7.23302 3.49772 4.10669 3.77845 0.978929C3.83091 0.40051 4.00621 0.271385 4.57054 0.327447C14.1996 1.3017 23.8227 2.31073 33.4608 3.19492C43.9409 4.1577 54.4092 5.26334 64.8878 6.2664C65.8014 6.35463 65.8011 6.35713 65.7064 7.31034C65.4124 10.27 65.1187 13.2272 64.8246 16.1869C64.7663 16.774 64.4429 17.0771 63.8545 17.0961C61.3943 17.1776 59.3073 18.6858 58.4383 21.0174C57.1636 24.438 59.4066 28.3546 62.9722 28.8958C63.4304 28.9641 63.5496 29.1225 63.5016 29.58C63.1677 32.7657 62.8486 35.9528 62.554 39.1449C62.5077 39.6355 62.3379 39.7096 61.8951 39.663C51.7705 38.6446 41.6469 37.6415 31.521 36.6355L31.5215 36.6305L31.5213 36.633ZM17.0691 6.40992C16.9742 7.36563 16.8666 8.32261 16.789 9.28004C16.7367 9.90649 17.0702 10.3236 17.621 10.391C18.1791 10.4591 18.6225 10.1469 18.6951 9.5174C18.9189 7.5664 19.1155 5.6127 19.2873 3.65654C19.3437 3.01283 18.932 2.55253 18.3875 2.5237C17.8331 2.49388 17.4275 2.87805 17.3542 3.5403C17.2493 4.49502 17.1616 5.45397 17.0691 6.40992ZM15.8605 18.5764C15.7613 19.5747 15.6547 20.5722 15.5657 21.5689C15.5025 22.2801 15.8264 22.7191 16.4261 22.7711C17.0058 22.8236 17.4076 22.477 17.4802 21.797C17.6909 19.8017 17.889 17.8078 18.0749 15.81C18.1356 15.1491 17.7954 14.6984 17.2423 14.6308C16.6668 14.561 16.2302 14.9547 16.1545 15.642C16.0476 16.6167 15.9579 17.5957 15.861 18.5714L15.8605 18.5764ZM14.6419 30.843C14.5489 31.7787 14.4485 32.7136 14.363 33.6501C14.3009 34.3513 14.6269 34.8183 15.2006 34.8803C15.7744 34.9424 16.2082 34.5509 16.2822 33.8559C16.4781 31.9855 16.664 30.1141 16.84 28.2417C16.9073 27.5385 16.5689 27.0703 16.0001 27.0087C15.4264 26.9467 14.997 27.3436 14.9232 28.0362C14.8204 28.9709 14.7373 29.9076 14.6419 30.843Z" fill="#FDD22A"/>
<path d="M17.0693 6.40996C17.1642 5.45425 17.252 4.49531 17.3544 3.54034C17.4277 2.87808 17.8335 2.49142 18.3877 2.52373C18.9323 2.55256 19.344 3.01287 19.2875 3.65658C19.1132 5.61249 18.9166 7.56619 18.6953 9.51743C18.6227 10.1469 18.1796 10.4566 17.6212 10.391C17.0704 10.3237 16.7372 9.90402 16.7892 9.28007C16.8693 8.32289 16.9744 7.36567 17.0693 6.40996Z" fill="#0CAA58"/>
<path d="M15.8607 18.5765C15.9576 17.6007 16.0474 16.6218 16.1542 15.647C16.23 14.9598 16.6665 14.566 17.242 14.6358C17.7952 14.7034 18.1376 15.1569 18.0747 15.8151C17.8887 17.8128 17.6906 19.8068 17.4799 21.802C17.4074 22.482 17.0057 22.8262 16.4258 22.7761C15.8263 22.7216 15.5025 22.2827 15.5654 21.5739C15.6547 20.5747 15.7613 19.5772 15.8602 18.5815L15.8607 18.5765Z" fill="#0CAA58"/>
<path d="M14.6421 30.843C14.7351 29.9073 14.8206 28.9709 14.921 28.036C14.9972 27.3437 15.4266 26.9467 15.9979 27.0085C16.5691 27.0703 16.9051 27.5383 16.8377 28.2415C16.6617 30.1139 16.4758 31.9853 16.28 33.8557C16.2059 34.5507 15.7721 34.9422 15.1984 34.8801C14.6246 34.8181 14.2961 34.3509 14.3608 33.6499C14.4438 32.7132 14.5467 31.7785 14.6396 30.8428L14.6421 30.843Z" fill="#0CAA58"/>
<path d="M34.9245 21.8523C34.9826 21.9465 35.0383 22.0405 35.0991 22.1324C36.7056 24.5558 38.312 26.9791 39.9212 29.4003C40.0756 29.6329 40.174 29.8751 40.0838 30.1542C39.9834 30.46 39.7761 30.6592 39.4541 30.7055C39.1194 30.7532 38.8633 30.614 38.6782 30.3379C38.2236 29.6561 37.7716 28.972 37.3169 28.2901C35.8255 26.0424 34.3368 23.7924 32.8429 21.5445C32.6124 21.1981 32.3934 20.8606 32.6429 20.4382C32.8893 20.0205 33.2854 20.0346 33.6985 20.0781C34.9229 20.2074 36.1486 20.3241 37.3765 20.4435C38.7453 20.5795 40.0416 19.8594 40.6614 18.6274C40.8485 18.2543 40.8297 18.2171 40.4287 18.1772C38.2704 17.9628 36.1096 17.7482 33.9512 17.5338C33.82 17.5207 33.6859 17.5125 33.5559 17.4869C33.1614 17.4073 32.9027 17.043 32.9449 16.643C32.9852 16.263 33.3155 15.9572 33.6984 15.9523C33.8311 15.9503 33.964 15.9711 34.0952 15.9841C36.2535 16.1985 38.4143 16.4132 40.5726 16.6276C40.6915 16.6394 40.8115 16.6387 40.9957 16.6469C40.9161 16.3661 40.8753 16.1221 40.7823 15.9006C40.2623 14.669 39.3383 13.9557 38.0238 13.8024C36.7167 13.6498 35.4033 13.5345 34.094 13.4044C33.7623 13.3715 33.5173 13.2208 33.3991 12.9008C33.2847 12.5938 33.3551 12.3128 33.5782 12.0798C33.7708 11.8766 34.0176 11.8329 34.285 11.8595C34.9929 11.9298 35.6983 11.9999 36.4062 12.0702C38.8962 12.3175 41.3837 12.5647 43.8737 12.812C44.4875 12.873 44.816 13.416 44.5671 13.9345C44.4219 14.2384 44.1414 14.395 43.7699 14.3606C43.1753 14.3066 42.5818 14.2426 41.9877 14.1835C41.8863 14.1735 41.7873 14.1636 41.6214 14.1472C41.6954 14.2834 41.7322 14.3653 41.7797 14.4408C42.1864 15.0775 42.45 15.7707 42.5222 16.5282C42.5451 16.7756 42.6473 16.8539 42.8768 16.859C43.1037 16.8639 43.3307 16.894 43.555 16.9264C43.9718 16.983 44.2644 17.3329 44.2418 17.7374C44.2198 18.1597 43.8781 18.4795 43.4442 18.4692C43.2271 18.4653 43.0058 18.4535 42.7952 18.4098C42.5088 18.3485 42.3816 18.447 42.2834 18.7304C41.7719 20.2056 40.7705 21.2026 39.3268 21.7464C38.6593 21.9985 37.9667 22.0762 37.2566 22.0031C36.5883 21.9367 35.9175 21.8701 35.2493 21.8037C35.1577 21.7946 35.0661 21.7855 34.9745 21.7764C34.9594 21.8027 34.9418 21.8288 34.927 21.8525L34.9245 21.8523Z" fill="#0CAA58"/>
</g>
<defs>
<clipPath id="clip0_970_614">
<rect width="62.268" height="33.5289" fill="white" transform="translate(3.85075 0.202896) rotate(5.67324)"/>
</clipPath>
</defs>
</svg>
